<?xml version="1.0" standalone="no"?>
<!DOCTYPE svg PUBLIC "-//W3C//DTD SVG 1.1//EN" "http://www.w3.org/Graphics/SVG/1.1/DTD/svg11.dtd" >
<svg xmlns="http://www.w3.org/2000/svg">
<metadata></metadata>
<defs>
<font id="ashbury-lightregular" horiz-adv-x="1091" >
<font-face units-per-em="2048" ascent="1536" descent="-512" />
<missing-glyph horiz-adv-x="452" />
<glyph unicode="&#xfb01;" horiz-adv-x="1255" d="M84 35q0 15 7.5 25t19.5 10q3 0 18 -1t21 -1q69 0 86 38q18 38 18 168v519q0 19 -7 25.5t-28 6.5q-34 0 -68.5 -2t-37.5 -2q-25 0 -25 43q0 29 25 33q45 7 69.5 15.5t40.5 27.5q28 32 33 145q7 196 47 300t121 167q113 88 293 88q127 0 201.5 -59.5t74.5 -148.5 q0 -50 -23.5 -73.5t-62.5 -23.5q-74 0 -84 78q-4 65 -26 100q-13 26 -45 41t-72 15q-77 0 -138.5 -37.5t-95.5 -112.5q-71 -155 -71 -477q0 -18 6 -24.5t27 -6.5q232 0 423 9q79 3 130 32q26 15 38 15t20.5 -9t8.5 -24q0 -35 -2 -62q-6 -109 -6 -311v-287q0 -146 22 -174 q22 -32 97 -32q8 0 19 1t13 1q14 0 22.5 -10t8.5 -27q0 -37 -33 -37q-4 0 -31.5 2.5t-76 5t-103.5 2.5t-100 -2.5t-69 -5t-29 -2.5q-29 0 -29 39q0 16 9 25.5t22 9.5q4 0 18 -1t19 -1q66 0 82 36q20 45 20 166v295q0 151 -24 201q-15 29 -51.5 42.5t-108.5 14.5 q-119 2 -309 2q-21 0 -27 -6t-6 -24v-521q0 -68 3.5 -102.5t18.5 -61t41.5 -34.5t75.5 -8q7 0 25 1t26 1q29 0 29 -37t-29 -37q-5 0 -43.5 2.5t-97.5 5t-113 2.5q-51 0 -95 -2.5t-70 -5t-33 -2.5q-29 0 -29 39z" />
<glyph unicode="&#xfb02;" horiz-adv-x="1243" d="M84 35q0 15 7.5 25t19.5 10q3 0 18 -1t21 -1q69 0 86 38q18 38 18 168v519q0 19 -7 25.5t-28 6.5q-34 0 -68.5 -2t-37.5 -2q-25 0 -25 43q0 18 7 24.5t20 8.5q80 13 108 43q28 32 33 145q8 200 41 306t109 170q48 40 124.5 62t145.5 22q100 0 190 -37q23 -9 25 -9 q7 0 22 9q1 1 15.5 11.5t20.5 14t17 8.5t19 5q11 0 19 -7t8 -20q0 -4 -2 -58.5t-4 -162t-2 -238.5v-885q0 -141 22 -174q22 -32 92 -32q8 0 24 1t19 1q25 0 25 -35q0 -19 -7.5 -29t-17.5 -10q-6 0 -35 2.5t-78 5t-102 2.5q-54 0 -103 -2.5t-76.5 -5t-31.5 -2.5q-24 0 -24 39 q0 15 7 25t17 10q3 0 19.5 -1t25.5 -1q27 0 50 10.5t32 28.5q21 40 21 167v924q0 211 -39 275q-34 53 -78.5 75.5t-118.5 22.5t-136.5 -48.5t-86.5 -115.5q-49 -131 -49 -467q0 -18 6 -24.5t27 -6.5q69 0 124.5 3.5t67.5 3.5q18 0 27.5 -9.5t9.5 -38.5q0 -49 -39 -49 q-4 0 -25 1t-64.5 2t-100.5 1q-21 0 -27 -6t-6 -24v-521q0 -68 3.5 -102.5t18.5 -61t41.5 -34.5t75.5 -8q7 0 25 1t26 1q29 0 29 -37t-29 -37q-5 0 -43.5 2.5t-97.5 5t-113 2.5q-51 0 -95 -2.5t-70 -5t-33 -2.5q-29 0 -29 39z" />
<glyph unicode="&#xfb03;" horiz-adv-x="1921" d="M84 35q0 15 7.5 25t19.5 10q3 0 18 -1t21 -1q69 0 86 38q18 38 18 168v519q0 19 -7 25.5t-28 6.5q-34 0 -68.5 -2t-37.5 -2q-25 0 -25 43q0 18 7 24.5t20 8.5q46 7 69 15t39 26t23 46t10 93q7 189 40 279.5t110 159.5q46 41 113 61t132 20q101 0 168.5 -39.5t67.5 -117.5 q0 -80 -76 -80q-34 0 -55.5 16.5t-22.5 48.5q0 55 -28 79t-93 24q-63 0 -114 -45t-74 -113q-49 -141 -49 -432q0 -16 6 -22.5t27 -6.5q68 0 155 -1t101 -1q120 0 164.5 9.5t60.5 27.5t23 47t10 94q7 194 47.5 298t122.5 169q114 88 290 88q127 0 202 -59.5t75 -148.5 q0 -49 -23.5 -73t-60.5 -24q-80 0 -86 78q-4 63 -27 100q-15 26 -46 41t-70 15q-77 0 -139 -37.5t-97 -112.5q-72 -157 -72 -477q0 -18 7 -24.5t28 -6.5q231 0 424 9q78 3 129 32q26 15 39 15q12 0 20.5 -9t8.5 -24q0 -35 -2 -62q-6 -109 -6 -311v-287q0 -146 22 -174 q22 -32 96 -32q8 0 19.5 1t13.5 1q14 0 22.5 -10t8.5 -27q0 -37 -31 -37q-5 0 -32.5 2.5t-76.5 5t-104 2.5t-100.5 -2.5t-70.5 -5t-30 -2.5q-26 0 -26 39q0 16 8.5 25.5t19.5 9.5q4 0 18 -1t19 -1q66 0 82 36q23 44 23 166v295q0 145 -27 201q-14 29 -50 42.5t-108 14.5 q-121 2 -309 2q-21 0 -28 -6t-7 -24v-521q0 -55 2.5 -86t10 -57.5t24 -38.5t41 -18t64.5 -6q7 0 25.5 1t25.5 1q29 0 29 -37t-29 -37q-4 0 -42.5 2.5t-98 5t-113.5 2.5q-51 0 -95.5 -2.5t-70.5 -5t-33 -2.5q-28 0 -28 39q0 15 7 25t19 10q4 0 18 -1t21 -1q69 0 86 38 q19 40 19 168v519q0 19 -7.5 25.5t-27.5 6.5q-110 4 -264 4q-123 0 -213 -4q-21 -1 -27 -6.5t-6 -23.5v-521q0 -68 3.5 -102.5t18.5 -61t41.5 -34.5t75.5 -8q7 0 25 1t26 1q29 0 29 -37t-29 -37q-5 0 -43.5 2.5t-97.5 5t-113 2.5q-51 0 -95 -2.5t-70 -5t-33 -2.5 q-29 0 -29 39z" />
<glyph unicode="&#xfb04;" horiz-adv-x="1908" d="M84 35q0 15 7.5 25t19.5 10q3 0 18 -1t21 -1q69 0 86 38q18 38 18 168v519q0 19 -7 25.5t-28 6.5q-34 0 -68.5 -2t-37.5 -2q-25 0 -25 43q0 18 7 24.5t20 8.5q46 7 69 15t39 26t23 46t10 93q7 189 40 279.5t110 159.5q46 41 113 61t132 20q101 0 168.5 -39.5t67.5 -117.5 q0 -80 -76 -80q-34 0 -55.5 16.5t-22.5 48.5q0 55 -28 79t-93 24q-63 0 -114 -45t-74 -113q-49 -141 -49 -432q0 -16 6 -22.5t27 -6.5q68 0 155 -1t101 -1q120 0 164.5 10t60.5 31q17 18 23.5 46t9.5 89q8 200 40.5 307t108.5 171q48 40 124 62t146 22q101 0 191 -37 q23 -9 24 -9q9 0 21 9q5 3 22.5 15t29.5 18t22 6q26 0 26 -27q0 -4 -2 -58.5t-4 -162t-2 -238.5v-885q0 -144 23 -174q22 -32 92 -32q8 0 24 1t19 1q24 0 24 -35q0 -39 -24 -39q-6 0 -35.5 2.5t-79 5t-102.5 2.5q-54 0 -102.5 -2.5t-75.5 -5t-31 -2.5q-25 0 -25 39 q0 15 7 25t18 10q3 0 19.5 -1t25.5 -1q27 0 50 10.5t32 28.5q20 38 20 167v924q0 216 -41 275q-33 53 -76.5 75.5t-117.5 22.5q-73 0 -136 -48.5t-87 -115.5q-52 -150 -52 -467q0 -18 7 -24.5t28 -6.5q69 0 125 3.5t68 3.5q17 0 27 -9.5t10 -38.5q0 -49 -39 -49 q-4 0 -25.5 1t-65 2t-100.5 1q-21 0 -28 -6t-7 -24v-521q0 -55 2.5 -86t10 -57.5t24 -38.5t41 -18t64.5 -6q7 0 25.5 1t25.5 1q29 0 29 -37t-29 -37q-4 0 -42.5 2.5t-98 5t-113.5 2.5q-51 0 -95.5 -2.5t-70.5 -5t-33 -2.5q-28 0 -28 39q0 15 7 25t19 10q4 0 18 -1t21 -1 q69 0 86 38q19 40 19 168v519q0 19 -7.5 25.5t-27.5 6.5q-110 4 -264 4q-123 0 -213 -4q-21 -1 -27 -6.5t-6 -23.5v-521q0 -68 3.5 -102.5t18.5 -61t41.5 -34.5t75.5 -8q7 0 25 1t26 1q29 0 29 -37t-29 -37q-5 0 -43.5 2.5t-97.5 5t-113 2.5q-51 0 -95 -2.5t-70 -5t-33 -2.5 q-29 0 -29 39z" />
<glyph horiz-adv-x="2048" />
<glyph horiz-adv-x="2048" />
<glyph unicode="&#xd;" horiz-adv-x="2048" />
<glyph unicode=" "  horiz-adv-x="452" />
<glyph unicode="&#x09;" horiz-adv-x="452" />
<glyph unicode="&#xa0;" horiz-adv-x="452" />
<glyph unicode="!" horiz-adv-x="647" d="M260 92q0 49 31.5 79t79.5 30q46 0 75 -29t29 -78q0 -48 -29.5 -80t-76.5 -32q-50 0 -79.5 28.5t-29.5 81.5zM276 1266q0 112 89 112q49 0 70.5 -24t21.5 -84q0 -42 -21.5 -327.5t-27.5 -489.5q0 -29 -8 -42.5t-33 -13.5q-27 0 -35 11t-10 43q-6 207 -26 490.5t-20 324.5 z" />
<glyph unicode="&#x22;" horiz-adv-x="569" d="M74 1341q0 80 73 80q43 0 59.5 -18.5t16.5 -59.5q0 -17 -6 -72t-17 -149.5t-18 -165.5q-1 -20 -7 -26t-23 -6q-18 0 -25 6.5t-8 27.5q-8 76 -19.5 167.5t-18.5 147t-7 68.5zM348 1341q0 80 72 80q44 0 60 -18t16 -60q0 -16 -6 -72t-16 -148.5t-17 -166.5q-1 -20 -8 -26 t-25 -6q-16 0 -24 7t-9 27q-7 77 -18 168t-18 147t-7 68z" />
<glyph unicode="#" horiz-adv-x="1118" d="M115 406q0 38 12 73q10 27 35 27h153q23 0 29 20l53 219q4 12 4 25q0 18 -22 18h-162q-27 0 -27 19q0 20 13 74q6 28 35 28h178q22 0 28 21l76 315q7 31 47 31q33 0 33 -21q0 -6 -4 -22l-72 -287q-2 -6 -2 -16q0 -21 23 -21h176q23 0 29 21l75 315q2 10 5.5 16t12 10.5 t23.5 4.5q37 0 37 -21q0 -12 -4 -24l-70 -285q-2 -6 -2 -16q0 -21 23 -21h125q29 0 29 -22q0 -31 -9.5 -65t-33.5 -34h-150q-23 0 -29 -20l-53 -219q-4 -12 -4 -25q0 -18 23 -18h151q29 0 29 -21q0 -15 -2.5 -35t-13 -43.5t-27.5 -23.5h-172q-23 0 -29 -21l-88 -350 q-3 -15 -11 -20.5t-32 -5.5q-33 0 -33 20q0 14 6 35l74 299q4 16 4 25q0 18 -22 18h-174q-23 0 -29 -21l-84 -350q-3 -14 -12 -20t-33 -6q-19 0 -25 5t-6 15q0 9 6 33l74 309q2 8 2 17q0 18 -22 18h-138q-12 0 -19 7t-7 16zM420 524q0 -18 22 -18h179q22 0 28 20l53 226 q3 12 3 16q0 20 -23 20h-174q-23 0 -29 -20l-55 -217q-4 -12 -4 -27z" />
<glyph unicode="$" horiz-adv-x="1017" d="M113 219q0 37 21.5 59.5t55.5 22.5q41 0 58 -27.5t27 -73t26 -65.5q56 -61 156 -63q8 0 12.5 1t9 8.5t4.5 20.5v445q0 36 -22 47q-165 86 -231 172.5t-66 194.5q0 119 79.5 203.5t223.5 105.5q10 1 13 5.5t3 16.5v146q0 21 8.5 31t32.5 10q23 0 31 -8.5t8 -32.5v-140 q0 -24 25 -24q142 -3 221.5 -58.5t79.5 -142.5q0 -88 -74 -88q-36 0 -59 21t-23 61q0 57 -41 95t-108 38q-21 0 -21 -26v-424q0 -32 19 -41q181 -94 249 -178.5t68 -190.5q0 -130 -83 -220t-228 -116q-13 -2 -19 -9t-6 -26v-135q0 -21 -8 -29t-31 -8q-26 0 -33.5 8t-7.5 29 v129q0 18 -3.5 24.5t-16.5 6.5q-166 0 -258 67t-92 158zM293 993q0 -63 34 -115t124 -106q9 -6 20 -6q12 0 12 18v379q0 25 -22 25q-12 0 -30.5 -5.5t-43 -20t-45 -35.5t-35 -56.5t-14.5 -77.5zM563 102q0 -22 17 -22q12 0 32 8q148 62 148 213q0 73 -42 126.5t-120 100.5 q-14 7 -20 7q-15 0 -15 -19v-414z" />
<glyph unicode="%" horiz-adv-x="1597" d="M51 883q0 183 84 299t225 116q136 0 211.5 -104t75.5 -287q0 -189 -78.5 -303.5t-224.5 -114.5q-145 0 -219 106.5t-74 287.5zM158 891q0 -169 45 -254.5t145 -85.5q91 0 141 88t50 252q0 348 -187 348q-90 0 -142 -90t-52 -258zM489 18q0 8 11 35l516 1182q7 17 16 25 t29 8q37 0 37 -25q0 -14 -6 -29l-523 -1189q-6 -16 -15 -22.5t-30 -6.5q-22 0 -28.5 5.5t-6.5 16.5zM950 379q0 182 85.5 299t226.5 117q134 0 209 -104.5t75 -287.5q0 -189 -78 -303t-225 -114q-145 0 -219 106t-74 287zM1057 387q0 -170 45.5 -256t146.5 -86 q90 0 139.5 89t49.5 253q0 348 -185 348q-91 0 -143.5 -89.5t-52.5 -258.5z" />
<glyph unicode="&#x26;" horiz-adv-x="1501" d="M90 381q0 64 19.5 119.5t51 97t78.5 77t95 60t108 47.5q19 8 19 23q0 4 -10 24q-28 53 -49 122.5t-21 113.5q0 135 86 217t244 82q77 0 135 -24t87 -61.5t42.5 -74t13.5 -71.5q0 -173 -162 -271q-52 -34 -170 -82q-14 -7 -14 -22q0 -4 7.5 -16.5t11.5 -16.5 q145 -234 307 -426q20 -20 26 -20q7 0 21 14q74 91 106 180q25 73 25 113q0 14 -10.5 33t-22.5 26q-47 34 -47 74q0 29 23.5 53.5t68.5 24.5t74 -33.5t29 -79.5q0 -192 -191 -440q-12 -17 -12 -29q0 -9 10 -22q98 -107 199 -107q39 0 66.5 23t51.5 73q10 19 29 19 q14 0 26.5 -8.5t12.5 -22.5q0 -9 -16 -41q-86 -154 -209 -154q-72 0 -126.5 22.5t-135.5 102.5q-13 13 -21 13q-7 0 -14 -7q-156 -133 -391 -133q-196 0 -323.5 108t-127.5 300zM236 393q0 -64 20.5 -121t61 -104t109 -74.5t157.5 -27.5q77 0 159 26.5t131 71.5q9 9 9 14 q0 10 -6 19q-49 58 -105 133t-85.5 117.5t-89.5 132t-67 100.5q-24 35 -47 35q-14 0 -63 -27q-76 -40 -130 -117.5t-54 -177.5zM520 1098q0 -110 58 -219q15 -29 38 -29q28 0 84 27q89 46 137 105t48 140t-49 123.5t-127 42.5q-83 0 -136 -48t-53 -142z" />
<glyph unicode="'" horiz-adv-x="296" d="M74 1341q0 80 73 80q43 0 59.5 -18.5t16.5 -59.5q0 -17 -6 -72t-17 -149.5t-18 -165.5q-1 -20 -7.5 -26t-24.5 -6t-24 6.5t-7 27.5q-7 77 -18.5 167.5t-19 147t-7.5 68.5z" />
<glyph unicode="(" horiz-adv-x="641" d="M92 627q0 267 117 514.5t321 404.5q19 15 33 15t25.5 -11t11.5 -26q0 -17 -12 -29q-355 -323 -355 -868q0 -264 97 -497.5t262 -377.5q8 -8 8 -22t-12 -26.5t-27 -12.5q-16 0 -35 16q-195 147 -314.5 395t-119.5 525z" />
<glyph unicode=")" horiz-adv-x="641" d="M41 -272q0 18 12 28q186 179 270.5 380t84.5 489q0 262 -97 496.5t-262 377.5q-8 8 -8 23q0 13 12.5 26t26.5 13q15 0 35 -17q195 -147 314.5 -394.5t119.5 -524.5q0 -267 -117 -515t-321 -405q-17 -14 -33 -14q-14 0 -25.5 11t-11.5 26z" />
<glyph unicode="*" horiz-adv-x="714" d="M84 1198q0 27 19 51.5t51 24.5q8 0 15.5 -2.5t13 -5.5t14 -12t14 -15t18.5 -21.5t21 -25.5q24 -30 67 -62q9 -6 15 -6q8 0 8 13q0 26 -22.5 99.5t-22.5 96.5q0 24 17.5 40t47.5 16t48 -15t18 -41q0 -25 -21.5 -91.5t-25.5 -92.5q-2 -8 -2 -16q0 -13 8 -13q5 0 18 13 q26 22 105 108q29 33 57 33q30 0 48 -21t18 -51q0 -21 -13.5 -35.5t-29.5 -19.5q-16 -6 -73.5 -21t-96.5 -30q-12 -6 -12 -13q0 -16 102 -39q71 -14 96 -28q23 -12 23 -39q0 -35 -18 -56.5t-46 -21.5q-18 0 -38 15t-60 61q-47 51 -68 65q-7 7 -12 7q-8 0 -8 -15q0 -8 22 -92 q4 -15 10 -34.5t9 -30t5.5 -22.5t2.5 -22q0 -26 -17.5 -42.5t-46.5 -16.5q-67 0 -67 57q0 21 22.5 97.5t22.5 105.5q0 15 -8 15q-6 0 -13 -7q-25 -23 -102 -108q-34 -39 -61 -39q-31 0 -49.5 22t-18.5 52q0 44 47 57q142 36 168 45q10 3 10 12q0 8 -12 13q-63 27 -149 43 q-39 8 -53.5 23.5t-14.5 37.5z" />
<glyph unicode="+" horiz-adv-x="1314" d="M170 520v64q0 26 25 26h401v428q0 27 29 27h67q25 0 25 -27v-428h401q29 0 29 -26v-64q0 -26 -29 -26h-401v-428q0 -27 -25 -27h-65q-29 0 -29 27v428h-403q-25 0 -25 26z" />
<glyph unicode="," horiz-adv-x="446" d="M66 -377q0 20 20 33q73 55 120.5 120.5t47.5 131.5q0 83 -94 123q-43 19 -43 73q0 36 27.5 66.5t76.5 30.5t85 -33t51.5 -78t15.5 -92q0 -203 -221 -383q-33 -29 -54 -29q-11 0 -21.5 12t-10.5 25z" />
<glyph unicode="-" horiz-adv-x="567" d="M59 496q0 38 7 50.5t28 12.5h381q22 0 27.5 -11.5t5.5 -49.5q0 -41 -6 -53.5t-31 -12.5h-377q-24 0 -29.5 12t-5.5 52z" />
<glyph unicode="." horiz-adv-x="446" d="M117 92q0 49 30.5 79t77.5 30q48 0 76.5 -29t28.5 -78q0 -48 -30 -80t-77 -32q-48 0 -77 28.5t-29 81.5z" />
<glyph unicode="/" horiz-adv-x="874" d="M10 -121q0 11 15 41l729 1528q7 15 12.5 22.5t16.5 13t28 5.5q47 0 47 -31q0 -19 -8 -35l-737 -1540q-10 -19 -22 -27t-38 -8q-43 0 -43 31z" />
<glyph unicode="0" d="M78 616q0 196 58.5 351t170 244t258.5 89q215 0 332 -171t117 -470q0 -204 -51.5 -356t-160 -241t-263.5 -89q-153 0 -258 82.5t-154 224.5t-49 336zM229 633q0 -284 76.5 -430t241.5 -146q148 0 228.5 149.5t80.5 424.5q0 588 -303 588q-148 0 -236 -152.5t-88 -433.5z " />
<glyph unicode="1" d="M289 37q0 37 24 37q4 0 22 -1t23 -1q36 0 66 10t39 27q18 41 18 159v633q0 167 -18 199q-11 22 -53 22q-24 0 -56.5 -3t-34.5 -3q-26 0 -26 39q0 29 22 33q120 28 242 110q21 13 41 13q11 0 19 -8.5t8 -22.5q0 -24 -2 -57q-7 -121 -7 -308v-643q0 -137 27 -168 q26 -32 100 -32q5 0 24 1t21 1q11 0 18 -11.5t7 -27.5q0 -15 -7.5 -26t-19.5 -11q-5 0 -36 3t-83 6t-106 3q-51 0 -108.5 -3t-95.5 -6t-44 -3q-24 0 -24 39z" />
<glyph unicode="2" d="M37 33q0 24 37 47q365 246 516 440t151 406q0 119 -71.5 194.5t-186.5 75.5q-136 0 -202 -70q-52 -58 -66 -120q-7 -33 -45 -33q-41 0 -41 39q0 24 14 59t43 72t75 73.5t116.5 60t152.5 23.5q176 0 271.5 -99t95.5 -273q0 -94 -22.5 -172.5t-93 -179t-193.5 -209.5 q-106 -95 -264 -205q-17 -12 -17 -19q0 -14 25 -14q94 -4 254 -4q123 0 181 11.5t82.5 40t31.5 89.5q4 29 34 29q35 0 35 -25q0 -4 -0.5 -9.5t-1.5 -16t-2 -19.5q-14 -123 -14 -202q0 -27 -41 -27q-2 0 -55 2.5t-147 5t-193 2.5q-118 0 -212.5 -2t-144.5 -4t-61 -2 q-41 0 -41 35z" />
<glyph unicode="3" d="M147 29q0 29 17.5 47t44.5 18q21 0 65 -22q43 -17 97 -17q187 0 294 87t107 245q0 125 -76 202t-200 77q-80 0 -138 -21q-36 -12 -49 -12q-15 0 -24 16t-9 31q0 21 12.5 30.5t49.5 12.5q76 6 160 47q95 44 143.5 111.5t48.5 142.5q0 85 -51 134.5t-143 49.5 q-118 0 -179 -65q-37 -46 -45 -78q-9 -29 -47 -29q-41 0 -41 37q0 22 23 60q47 72 132.5 119.5t211.5 47.5q136 0 210.5 -68t74.5 -175q0 -191 -230 -297q-16 -7 -16 -17q0 -12 16 -12q150 -12 234 -95t84 -212q0 -139 -90 -249t-236.5 -168t-318.5 -58q-63 0 -97.5 22 t-34.5 58z" />
<glyph unicode="4" d="M66 377q0 28 20 57q60 80 199 264.5t234.5 313.5t193.5 264q16 23 29.5 30t33.5 7q49 0 49 -41q0 -8 -1 -73t-1 -132v-580q0 -16 5.5 -22t27.5 -6h125q25 0 34 -11t9 -47q0 -43 -8.5 -53t-36.5 -10h-127q-17 0 -22 -7t-5 -32v-301q0 -31 -12 -41t-53 -10q-47 0 -58.5 8.5 t-11.5 42.5v297q0 25 -8 33t-31 8h-526q-59 0 -59 41zM229 469q0 -16 27 -16h391q29 0 36 6.5t7 27.5q0 199 2 382.5t2 189.5q0 26 -12 26q-7 0 -20 -20q-55 -76 -201.5 -271t-222.5 -302q-9 -14 -9 -23z" />
<glyph unicode="5" d="M143 31q0 27 17.5 47t44.5 20q13 0 36 -11.5t33 -14.5q50 -15 97 -15q184 0 292.5 92.5t108.5 249.5q0 74 -26 130t-66.5 90t-102.5 57.5t-122 34t-138 16.5q-61 4 -61 59q0 12 10.5 74t33.5 188.5t34 188.5q2 14 4.5 21t9.5 12.5t19 5.5l63 -1q64 -1 117 -1 q62 0 118.5 1t94 2t65.5 2t43 2t17 1q20 0 20 -14q0 -26 -11.5 -74.5t-31.5 -48.5q-5 0 -57 0.5t-125 1t-127 0.5q-88 0 -135 -2q-18 -1 -25 -10t-10 -29q-39 -195 -39 -227q0 -23 33 -29q289 -29 416 -125.5t127 -282.5q0 -134 -85.5 -247.5t-235.5 -179.5t-329 -66 q-60 0 -93.5 22.5t-33.5 59.5z" />
<glyph unicode="6" d="M127 567q0 117 19 223.5t63.5 205t110.5 171t167.5 115.5t227.5 43q129 0 196 -49q14 -11 25.5 -32.5t11.5 -39.5q0 -36 -19 -55t-46 -19q-51 0 -70 37q-42 76 -131 76q-81 0 -146.5 -30.5t-108 -76.5t-74.5 -114t-49.5 -130t-29.5 -136q-10 -62 -10 -90q0 -11 12 -11 q6 0 17 17q45 74 132.5 119t190.5 45q170 0 275.5 -106.5t105.5 -289.5q0 -114 -33.5 -204.5t-93 -147t-137.5 -86t-170 -29.5q-206 0 -321 154t-115 440zM279 432q0 -69 18.5 -135t53 -120.5t92 -88t128.5 -33.5q129 0 205 94.5t76 258.5q0 158 -73.5 247.5t-203.5 89.5 q-88 0 -160 -45.5t-112 -126.5q-24 -52 -24 -141z" />
<glyph unicode="7" d="M133 963q0 6 7.5 43.5t19.5 102.5t20 128q3 23 16 31t42 8q6 0 54.5 -2t139 -4t199.5 -2q50 0 198 2t160 2q11 0 19 -8t8 -17q0 -8 -19 -51q-340 -701 -522 -1202q-18 -49 -65 -49q-26 0 -40 14.5t-14 36.5q0 23 19 74q98 245 236.5 536t258.5 504q7 10 7 23 q0 18 -250 18q-175 0 -241 -4.5t-91 -18.5q-29 -17 -47 -53.5t-41 -120.5q-3 -9 -5 -13.5t-9.5 -8.5t-20.5 -4q-39 0 -39 35z" />
<glyph unicode="8" d="M129 315q0 104 63.5 191t192.5 137q23 7 23 19q0 3 -0.5 5t-2.5 4t-3.5 3t-5.5 3t-5 3q-110 55 -158.5 134.5t-48.5 162.5q0 141 106.5 232t284.5 91q155 0 250 -79.5t95 -212.5q0 -90 -60 -173t-162 -128q-16 -7 -16 -19q0 -9 16 -16q265 -119 265 -336 q0 -156 -115 -259.5t-309 -103.5q-191 0 -300.5 95.5t-109.5 246.5zM266 328q0 -123 76 -198t205 -75q114 0 189 70t75 170q0 105 -62 174t-231 139q-12 6 -26 6q-17 0 -29 -6q-197 -98 -197 -280zM330 1008q0 -85 49.5 -149.5t177.5 -121.5q19 -8 31 -8q7 0 22 6 q77 38 124.5 106t47.5 146q0 108 -57.5 171t-159.5 63q-106 0 -170.5 -61t-64.5 -152z" />
<glyph unicode="9" d="M94 858q0 114 36.5 204.5t99 147t142 86t169.5 29.5q206 0 315 -150t109 -438q0 -119 -18 -226t-61 -207t-108 -172t-165.5 -115.5t-227.5 -43.5q-161 0 -223 54q-37 30 -37 71q0 30 20 50t50 20q23 0 42.5 -11t28.5 -28q18 -34 59.5 -54t90.5 -20q326 0 399 492 q10 62 10 90q0 10 -12 10q-5 0 -16 -16q-43 -73 -131 -117.5t-191 -44.5q-170 0 -275.5 103.5t-105.5 285.5zM242 889q0 -158 71.5 -245t202.5 -87q89 0 161.5 45.5t110.5 126.5q25 54 25 143q0 95 -28.5 176.5t-94.5 138t-160 56.5q-124 0 -206 -96.5t-82 -257.5z" />
<glyph unicode=":" horiz-adv-x="493" d="M160 92q0 49 30.5 79t77.5 30t75 -29t28 -78q0 -48 -29 -80t-76 -32q-48 0 -77 28.5t-29 81.5zM160 803q0 50 30.5 79t77.5 29q48 0 75.5 -28t27.5 -78q0 -47 -29.5 -79t-75.5 -32q-48 0 -77 28.5t-29 80.5z" />
<glyph unicode=";" horiz-adv-x="493" d="M100 -377q0 18 19 33q73 55 120.5 120.5t47.5 131.5q0 43 -22.5 72t-71.5 51q-43 21 -43 73q0 36 28.5 66.5t75.5 30.5q72 0 113 -64t41 -139q0 -200 -222 -383q-36 -29 -53 -29q-12 0 -22.5 12t-10.5 25zM160 803q0 50 30.5 79t77.5 29q48 0 75.5 -28t27.5 -78 q0 -47 -29.5 -79t-75.5 -32q-48 0 -77 28.5t-29 80.5z" />
<glyph unicode="&#x3c;" horiz-adv-x="1314" d="M211 494v81q0 23 18 31l793 395q5 5 14 5q19 0 19 -25v-76q0 -19 -21 -31l-690 -337l690 -334q21 -9 21 -29v-78q0 -24 -19 -24q-6 0 -14 4l-793 389q-18 8 -18 29z" />
<glyph unicode="=" horiz-adv-x="1314" d="M172 342v68q0 24 25 24h919q29 0 29 -24v-68q0 -27 -29 -27h-919q-25 0 -25 27zM172 684v64q0 26 25 26h919q29 0 29 -26v-64q0 -29 -29 -29h-919q-25 0 -25 29z" />
<glyph unicode="&#x3e;" horiz-adv-x="1314" d="M262 96v76q0 24 19 29l692 340l-692 329q-19 11 -19 33v80q0 23 17 23q7 0 14 -5l792 -387q19 -13 19 -30v-84q0 -18 -19 -31l-792 -393q-6 -4 -14 -4q-17 0 -17 24z" />
<glyph unicode="?" horiz-adv-x="899" d="M121 1120q0 44 24 89t68.5 83t117.5 62t161 24q157 0 250.5 -75.5t93.5 -204.5q0 -111 -47 -185t-187 -163q-37 -23 -53.5 -34t-43.5 -33t-39 -39.5t-22 -43.5t-10 -55q0 -25 10.5 -62t10.5 -53q0 -35 -43 -35q-30 0 -41 35q-23 70 -23 141q0 55 18.5 95t53 74t112.5 94 q82 62 114 119t32 134q0 98 -55.5 153.5t-151.5 55.5q-195 0 -195 -145q0 -6 1.5 -27.5t1.5 -27.5q0 -35 -23.5 -54.5t-58.5 -19.5q-76 0 -76 98zM328 92q0 49 30.5 79t77.5 30q48 0 76.5 -29t28.5 -78q0 -48 -29 -80t-76 -32q-50 0 -79 28.5t-29 81.5z" />
<glyph unicode="@" horiz-adv-x="1699" d="M133 416q0 177 62.5 333t170.5 266.5t258 174t320 63.5q281 0 445.5 -146t164.5 -423q0 -146 -61 -281t-163.5 -218t-215.5 -83q-104 0 -104 105q0 54 26 149q11 29 11 39q0 11 -13 11q-6 0 -16 -13q-177 -293 -377 -293q-89 0 -140.5 55t-51.5 134q0 94 29 185t108 200 q84 116 181.5 163.5t213.5 47.5q42 0 87.5 -14.5t59.5 -14.5q19 0 30.5 12t15.5 26t14.5 26t28.5 12q38 0 38 -29q0 -13 -8 -41q-129 -463 -129 -614q3 -53 49 -53q70 0 136 68.5t106.5 178.5t40.5 226q0 247 -133 378.5t-371 131.5q-194 0 -353 -100t-249 -273t-90 -381 q0 -277 173.5 -448t451.5 -171q295 0 456 154q33 29 56 29q18 0 29.5 -11t11.5 -26q0 -20 -17 -39q-73 -88 -223 -138t-336 -50q-208 0 -372 84.5t-257.5 243t-93.5 364.5zM580 319q0 -122 94 -122q48 0 100 28t97.5 75.5t84 99.5t70.5 110q61 110 61 227q-3 72 -137 72 q-77 0 -143.5 -42t-114.5 -110q-53 -74 -82.5 -169.5t-29.5 -168.5z" />
<glyph unicode="A" horiz-adv-x="1447" d="M10 31q0 41 29 41q5 0 17 -1t20 -1q57 0 86 41q43 62 88 170q76 187 218.5 526t168.5 403q22 63 25 99q3 30 30 41q61 26 72 26q18 0 24 -26q3 -10 43 -119q55 -150 371 -948q49 -127 84 -174q29 -39 90 -39q6 0 17 1t16 1q31 0 31 -37q0 -39 -29 -39q-4 0 -82 4t-129 4 q-50 0 -162.5 -4t-113.5 -4q-31 0 -31 37q0 39 29 39q2 0 17 -1t19 -1q71 0 100 14t29 49q0 43 -43 152l-69 180q-16 38 -29 50.5t-43 12.5h-409q-25 0 -36 -10.5t-22 -38.5l-78 -196q-49 -123 -49 -162q0 -28 27 -39.5t92 -11.5q9 0 26.5 1t20.5 1q12 0 19.5 -10t7.5 -25 q0 -41 -31 -41q-2 0 -103 4t-151 4q-48 0 -113 -4t-69 -4q-11 0 -18 10.5t-7 24.5zM498 637q0 -18 13.5 -23.5t55.5 -5.5h281q34 0 46.5 6t12.5 23t-12 45l-170 438q-5 13 -7.5 17t-8.5 4q-9 0 -21 -27l-176 -432q-14 -33 -14 -45z" />
<glyph unicode="B" horiz-adv-x="1251" d="M70 33q0 39 26 39q2 0 18 -1t21 -1q86 0 107 41q20 38 20 180v772q0 149 -20 180q-23 41 -101 41q-7 0 -24 -2t-19 -2q-14 0 -21 8.5t-7 32.5q0 17 9 27t23 10q7 0 41 -3t88 -6t109 -3q27 0 123 4t139 4q247 0 356 -80t109 -232q0 -110 -61 -181.5t-195 -121.5 q-16 -7 -16 -14q0 -9 16 -12q157 -24 243.5 -115.5t86.5 -222.5q0 -132 -67.5 -218t-183.5 -123.5t-280 -37.5q-32 0 -124.5 4t-137.5 4q-55 0 -111.5 -2t-93 -4t-43.5 -2q-30 0 -30 37zM401 303q0 -115 17 -158q28 -61 246 -61q163 0 240 61t77 197q0 82 -25 142t-65 94.5 t-101 55.5t-121 27.5t-137 6.5q-65 0 -96 -4q-17 -2 -26 -11t-9 -32v-318zM401 793q0 -8 1.5 -14.5t3 -11t5.5 -8t6.5 -6t9 -4t9.5 -2.5t11.5 -1.5t11.5 -0.5h13h13q426 0 426 289q0 69 -26 117.5t-75 75t-109 38t-138 11.5q-94 0 -125 -4q-37 -3 -37 -51v-428z" />
<glyph unicode="C" horiz-adv-x="1409" d="M102 659q0 156 49 287t140.5 227t232.5 149.5t316 53.5q68 0 130.5 -6.5t93.5 -12.5t81.5 -18.5t62.5 -15.5q54 -10 54 -49q1 -56 13.5 -152t12.5 -108q0 -35 -41 -35q-35 0 -41 25q-24 129 -76 190q-41 46 -113 72t-220 26q-112 0 -209 -39t-171.5 -113t-117.5 -192 t-43 -266q0 -284 156 -453.5t411 -169.5q207 0 316 113q51 51 98 170q10 29 41 29q35 0 35 -29q0 -28 -20 -106t-40 -115q-22 -42 -71 -66q-79 -40 -160.5 -60t-210.5 -20q-174 0 -311 52.5t-223 146t-130.5 216.5t-44.5 269z" />
<glyph unicode="D" horiz-adv-x="1531" d="M70 33q0 39 26 39q3 0 15.5 -1t17.5 -1q90 0 113 41q20 45 20 174v766q0 156 -18 188q-11 20 -38 32.5t-63 12.5q-5 0 -24 -1t-23 -1q-26 0 -26 37q0 18 8.5 28.5t19.5 10.5q7 0 44.5 -2.5t95 -5t112.5 -2.5q42 0 122.5 3t117.5 3q342 0 520 -82q155 -71 237.5 -219.5 t82.5 -345.5q0 -184 -58 -322t-164 -222.5t-247.5 -125.5t-317.5 -41q-68 0 -167 4t-126 4q-55 0 -110.5 -2t-91 -4t-42.5 -2q-36 0 -36 37zM401 289q0 -126 37 -160q28 -22 89 -30.5t180 -8.5q122 0 223.5 34.5t179 103.5t121 181.5t43.5 258.5q0 143 -45 267t-129 200 q-86 78 -216.5 105.5t-330.5 27.5q-112 0 -133 -23q-19 -19 -19 -102v-854z" />
<glyph unicode="E" horiz-adv-x="1183" d="M70 33q0 39 26 39q4 0 22 -1t23 -1q78 0 101 41q20 38 20 174v784q0 142 -20 176q-24 39 -105 39q-5 0 -22 -1t-19 -1q-26 0 -26 35q0 41 30 41q7 0 55.5 -2.5t117 -5t124.5 -2.5q169 0 347 3t227 3q33 0 33 -39q1 -34 2.5 -93t2.5 -98.5t1 -44.5q0 -30 -35 -30 q-36 0 -39 28q-7 110 -49 152q-25 27 -73 34t-146 7q-30 0 -118 -2t-112 -2q-37 0 -37 -54v-419q0 -31 17.5 -39.5t62.5 -8.5q148 0 203 19q60 20 72 143q3 31 39 31q34 0 34 -31l-6 -79q-6 -79 -6 -132q0 -40 3 -106.5t3 -81.5q0 -12 -9 -20.5t-26 -8.5q-32 0 -36 29 q-9 110 -60 141q-34 19 -221 19q-41 0 -55.5 -10.5t-14.5 -39.5v-372q0 -81 17 -105q24 -35 91.5 -46t201.5 -11q171 0 221 37q36 25 59.5 67t48.5 109q4 9 7 13.5t10.5 9t19.5 4.5q39 0 39 -27q0 -19 -21 -109.5t-36 -138.5q-18 -53 -64 -53q-90 0 -265 3t-314 3 q-55 0 -129 -1.5t-128 -3t-61 -1.5q-28 0 -28 37z" />
<glyph unicode="F" horiz-adv-x="1116" d="M70 35q0 15 7 26t19 11q2 0 16 -1t19 -1q91 0 111 41q20 38 20 184v774q0 142 -20 176q-24 39 -105 39q-5 0 -22 -1t-19 -1q-26 0 -26 35q0 41 30 41q7 0 55.5 -2.5t117 -5t124.5 -2.5q169 0 355 3t235 3q33 0 33 -39q1 -34 2.5 -93t2.5 -98.5t1 -44.5q0 -30 -35 -30 q-36 0 -39 26q-7 113 -49 158q-25 27 -71.5 33t-147.5 6q-30 0 -126 -2t-120 -2q-37 0 -37 -54v-442q0 -31 18 -39t64 -8q69 0 137.5 6t90.5 12q31 12 48.5 43t24.5 101q3 31 39 31q15 0 25 -8t10 -23l-6 -79q-6 -79 -6 -132q0 -40 3 -107t3 -82q0 -28 -35 -28q-33 0 -37 28 q-9 113 -61 142q-30 18 -248 18q-41 0 -55.5 -10t-14.5 -39v-305q0 -152 33 -189q30 -34 129 -34q4 0 18 1t17 1q31 0 31 -37q0 -39 -31 -39q-5 0 -44.5 3t-99 6t-114.5 3q-56 0 -112.5 -3t-92 -6t-39.5 -3q-26 0 -26 39z" />
<glyph unicode="G" horiz-adv-x="1525" d="M102 651q0 331 199 528t541 197q87 0 156.5 -6.5t101.5 -13.5t75 -19t60 -16q45 -9 47 -47q2 -57 17.5 -154.5t15.5 -107.5q0 -33 -41 -33q-31 0 -39 31q-21 106 -80 182q-78 100 -315 100q-277 0 -431.5 -161.5t-154.5 -448.5q0 -292 161 -456.5t423 -164.5 q216 0 286 78q27 34 27 144q0 133 -25 170q-25 41 -102 41q-8 0 -24 -1t-19 -1q-14 0 -22.5 10.5t-8.5 27.5q0 39 31 39q5 0 42 -2.5t93.5 -5t110.5 -2.5q50 0 92.5 2.5t66.5 5t29 2.5q20 0 29.5 -7t9.5 -30q0 -40 -29 -40q-5 0 -23.5 1t-29.5 1q-46 0 -63 -35 q-8 -17 -11.5 -29.5t-6.5 -48t-3 -94.5q0 -84 4 -123q2 -21 12.5 -43t10.5 -33q0 -13 -8 -22t-19 -11q-88 -14 -108 -20q-200 -60 -357 -60q-175 0 -313 50.5t-227 141.5t-135 214t-46 270z" />
<glyph unicode="H" horiz-adv-x="1601" d="M70 35q0 14 7.5 25.5t18.5 11.5q2 0 16 -1t19 -1q91 0 111 41q20 38 20 184v768q0 146 -20 180q-21 41 -105 41q-5 0 -22 -1t-19 -1q-26 0 -26 35q0 41 30 41q7 0 42.5 -3t91 -6t110.5 -3q56 0 109 3t85 6t37 3q31 0 31 -37q0 -39 -28 -39q-3 0 -16.5 1t-16.5 1 q-88 0 -115 -37q-29 -32 -29 -188v-256q0 -36 22.5 -44.5t102.5 -8.5h557q35 0 49.5 1t29.5 5.5t19.5 14.5t4.5 28v264q0 145 -21 180q-21 41 -102 41q-5 0 -22 -1t-21 -1q-27 0 -27 35q0 41 33 41q7 0 42 -3t90.5 -6t111.5 -3q55 0 108 3t85.5 6t37.5 3q31 0 31 -37 q0 -39 -29 -39q-3 0 -16.5 1t-16.5 1q-86 0 -116 -37q-27 -34 -27 -188v-762q0 -159 27 -193t114 -34q4 0 18 1t17 1q14 0 21.5 -11t7.5 -26q0 -39 -29 -39q-5 0 -40 3t-90 6t-109 3q-56 0 -112 -3t-91 -6t-39 -3q-29 0 -29 39q0 14 7.5 25.5t19.5 11.5q4 0 18 -1t19 -1 q38 0 68.5 11t39.5 30q21 40 21 184v328q0 29 -19.5 35t-87.5 6h-551q-62 0 -87 -3.5t-32.5 -12t-7.5 -30.5v-321q0 -157 29 -193q27 -34 113 -34q4 0 18 1t17 1q28 0 28 -35q0 -41 -28 -41q-5 0 -40 3t-90 6t-110 3q-56 0 -111.5 -3t-90 -6t-38.5 -3q-28 0 -28 39z" />
<glyph unicode="I" horiz-adv-x="667" d="M70 37q0 14 7 24.5t19 10.5q2 0 16 -1t19 -1q94 0 111 41q20 38 20 184v764q0 150 -20 184q-21 41 -105 41q-5 0 -22 -1t-19 -1q-26 0 -26 35q0 41 30 41q7 0 44 -3t94.5 -6t113.5 -3t104.5 3t76 6t32.5 3q33 0 33 -37q0 -39 -31 -39q-3 0 -16 1t-16 1q-73 0 -103 -37 q-29 -32 -29 -192v-762q0 -153 29 -189q27 -34 100 -34q4 0 18 1t17 1q31 0 31 -37q0 -39 -31 -39q-5 0 -36.5 3t-83.5 6t-107 3q-56 0 -112.5 -3t-92 -6t-39.5 -3q-26 0 -26 41z" />
<glyph unicode="J" horiz-adv-x="716" d="M-78 -172q0 32 19 52t47 20q27 0 63 -29q28 -25 70 -25q58 0 111.5 35t70.5 115q16 72 16 199v868q0 138 -22 180q-21 41 -107 41q-5 0 -24 -1t-23 -1q-26 0 -26 37q0 39 33 39q7 0 44 -3t94 -6t113 -3q75 0 145 6l70 6q33 0 33 -35q0 -41 -28 -41q-3 0 -16.5 1t-16.5 1 q-68 0 -96 -35q-29 -32 -29 -186q0 -65 3 -346t3 -453q0 -114 -25.5 -206.5t-66.5 -151.5t-95.5 -99t-108.5 -56.5t-110 -16.5q-74 0 -107.5 26.5t-33.5 67.5z" />
<glyph unicode="K" horiz-adv-x="1388" d="M70 37q0 14 7 24.5t19 10.5q2 0 16 -1t19 -1q91 0 111 41q20 38 20 184v768q0 146 -20 180q-21 41 -105 41q-5 0 -22 -1t-19 -1q-26 0 -26 35q0 41 30 41q7 0 42.5 -3t91 -6t110.5 -3q56 0 108 3t83 6t36 3q33 0 33 -37q0 -39 -31 -39q-3 0 -16 1t-16 1q-84 0 -111 -37 q-29 -32 -29 -188v-762q0 -157 29 -193q27 -34 113 -34q4 0 18 1t17 1q28 0 28 -37q0 -39 -28 -39q-5 0 -40 3t-90 6t-110 3q-56 0 -112 -3t-91 -6t-39 -3q-26 0 -26 41zM451 698q0 30 26 35q57 13 103 49q87 80 282 310q96 110 96 159q0 33 -67 33q-4 0 -20 -1t-19 -1 q-31 0 -31 35q0 41 31 41q6 0 46 -3t96.5 -6t103.5 -3q49 0 115.5 6t72.5 6q31 0 31 -39q0 -37 -37 -37q-5 0 -21 1t-22 1q-44 -3 -96 -37q-61 -39 -174 -170q-42 -50 -159 -179t-140 -155q-27 -27 -27 -43q0 -14 37 -57q198 -239 317.5 -356.5t214.5 -182.5q46 -34 97 -34 q8 0 22.5 3t16.5 3q16 0 25 -10.5t9 -26.5q0 -36 -30 -39q-44 -6 -95 -6q-111 0 -194 49q-108 64 -242 217q-61 71 -151 179t-107 128q-66 78 -90 97q-20 14 -20 34z" />
<glyph unicode="L" horiz-adv-x="1159" d="M70 33q0 39 26 39q4 0 22 -1t23 -1q78 0 101 41q20 38 20 174v776q0 147 -18 182q-24 41 -107 41q-5 0 -22 -1t-19 -1q-10 0 -18 9t-8 28q0 39 30 39q7 0 44 -3t94.5 -6t113.5 -3t105 3t77 6t33 3q33 0 33 -35q0 -41 -31 -41q-3 0 -17 1t-17 1q-79 0 -107 -35 q-27 -30 -27 -196v-803q0 -78 19 -109q20 -33 87 -45t202 -12q89 0 140.5 7.5t80.5 29.5q56 41 110 180q10 27 39 27q16 0 27.5 -7t11.5 -18q0 -20 -21 -113t-36 -141q-18 -53 -64 -53q-90 0 -266 4t-315 4q-55 0 -129 -2t-128 -4t-61 -2q-10 0 -19 9t-9 28z" />
<glyph unicode="M" horiz-adv-x="1884" d="M39 35q0 15 7 26t20 11q4 0 16 -1t16 -1q81 0 109 39q29 38 37 176q5 105 16.5 308t20 353t8.5 170q0 90 -23 129t-92 39q-7 0 -28 -1t-27 -1q-25 0 -25 35q0 22 7 31.5t24 9.5q6 0 79 -5t113 -5q39 0 97.5 4t62.5 4q29 0 39 -29q47 -160 90 -272q62 -164 124.5 -335.5 t99 -272t53.5 -142.5q7 -18 16 -18q8 0 16 22q16 36 330 760q31 71 92 256q5 16 15 23.5t34 7.5q2 0 59 -4t93 -4q46 0 111.5 5t70.5 5q29 0 29 -39q0 -19 -8 -30t-19 -11q-5 0 -25.5 1t-25.5 1q-79 0 -101 -35t-22 -137q0 -8 0.5 -28t2.5 -76t4.5 -134.5t7.5 -232 t10 -340.5q6 -164 29 -193q27 -34 110 -34q5 0 16 1t15 1q13 0 21 -11t8 -28q0 -37 -31 -37q-5 0 -40.5 3t-91.5 6t-112 3t-110 -3t-86.5 -6t-36.5 -3q-16 0 -25.5 10.5t-9.5 30.5q0 14 10 24.5t23 10.5q3 0 17.5 -1t18.5 -1q39 0 72.5 11t44.5 30q17 33 17 186 q0 134 -27 860q0 17 -12 17q-11 0 -17 -19q-71 -176 -232.5 -556.5t-232.5 -557.5q-7 -20 -17 -29.5t-30 -9.5q-19 0 -29 10t-16 35q-23 83 -59 182q-263 709 -350 930q-10 23 -19 23q-16 0 -16 -19q-3 -108 -17 -444.5t-14 -431.5q0 -154 23 -183q27 -34 104 -34q4 0 19 1 t18 1q31 0 31 -37q0 -17 -8.5 -28t-22.5 -11q-4 0 -39 3t-92 6t-113 3q-47 0 -91 -3t-71 -6t-32 -3q-31 0 -31 39z" />
<glyph unicode="N" horiz-adv-x="1619" d="M59 1319q0 39 33 39q5 0 59 -4t87 -4q38 0 81 4t52 4q30 0 53 -33q60 -81 172 -222t172 -218q294 -373 469 -580q14 -18 25 -18q10 0 10 16q2 88 2 258q-1 51 -1 155t-1 189.5t-4 147.5q-6 157 -23 190q-21 41 -108 41q-7 0 -27 -1t-23 -1q-28 0 -28 35q0 41 31 41 q4 0 38.5 -3t90.5 -6t112 -3q55 0 102 3t72.5 6t30.5 3q31 0 31 -37q0 -39 -29 -39q-2 0 -20 1t-25 1q-72 0 -96 -35q-31 -39 -31 -196q0 -27 -1 -150t-1 -219q0 -142 1 -260.5t3 -188.5t4 -119t3 -74t1 -30q0 -39 -51 -39q-20 0 -33 19q-67 95 -147 192 q-141 169 -433.5 536t-310.5 390q-16 16 -24 16q-12 0 -12 -18q-3 -187 -3 -412q0 -78 5 -411q2 -138 32 -181q27 -34 105 -34q2 0 20 1t25 1q26 0 26 -41q0 -35 -26 -35q-7 0 -38 3t-81.5 6t-105.5 3q-56 0 -107.5 -3t-82.5 -6t-36 -3q-28 0 -28 39q0 14 7.5 25.5 t18.5 11.5q4 0 18 -1t19 -1q39 0 70 11t41 30q20 37 22 174q8 418 8 774q0 141 -26 176q-25 30 -54 39.5t-69 9.5q-5 0 -20 -1t-19 -1q-11 0 -19 9.5t-8 27.5z" />
<glyph unicode="O" horiz-adv-x="1540" d="M102 655q0 154 50 288t139 230t217 150.5t278 54.5q297 0 475.5 -186t178.5 -494q0 -157 -45 -289.5t-129 -229.5t-212 -151.5t-286 -54.5q-195 0 -347 85.5t-235.5 240.5t-83.5 356zM258 672q0 -140 41 -256.5t111.5 -194t166 -120t203.5 -42.5q226 0 365 160t139 443 q0 143 -40.5 262t-110.5 199t-165 124.5t-202 44.5q-227 0 -367.5 -166.5t-140.5 -453.5z" />
<glyph unicode="P" horiz-adv-x="1177" d="M70 39q0 15 7.5 25t18.5 10q2 0 20 -1t23 -1q82 0 103 41q20 46 20 182v758q0 152 -20 186q-23 41 -105 41q-5 0 -23 -1t-20 -1q-24 0 -24 39q0 18 8.5 29.5t19.5 11.5q7 0 42 -2.5t90 -5t110 -2.5q27 0 118 3t134 3q487 0 487 -355q0 -61 -12.5 -114.5t-48.5 -110 t-93.5 -96.5t-155.5 -66t-226 -26q-22 0 -60.5 2t-44.5 2q-20 0 -28.5 -10t-8.5 -37v-246q0 -157 31 -191q30 -34 111 -34q3 0 22.5 1t28.5 1q12 0 19.5 -11t7.5 -28q0 -37 -31 -37q-1 0 -88 6t-162 6q-55 0 -112 -3t-92.5 -6t-39.5 -3q-26 0 -26 41zM401 752q0 -55 27 -70 q8 -6 41 -10t55 -4q216 0 307 77.5t91 233.5q0 147 -89.5 219t-281.5 72q-84 0 -113 -4q-37 -6 -37 -54v-460z" />
<glyph unicode="Q" horiz-adv-x="1540" d="M102 655q0 154 50 288t139 230t217 150.5t278 54.5q297 0 475.5 -186t178.5 -494q0 -265 -123.5 -452t-347.5 -246q-21 -5 -21 -20q0 -14 15 -21q42 -20 140 -70.5t178.5 -88.5t154.5 -66q209 -80 452 -80q147 0 258 49q4 2 18.5 9.5t25 11.5t18.5 4q13 0 24 -13t11 -28 q0 -27 -29 -41q-175 -84 -432 -84q-151 0 -289.5 29t-251.5 79t-203 100t-192.5 110t-171.5 91q-8 4 -70 19q-244 49 -373 221.5t-129 443.5zM258 672q0 -140 41 -256.5t111.5 -194t166 -120t203.5 -42.5q226 0 365 160t139 443q0 143 -40.5 262t-110.5 199t-165 124.5 t-202 44.5q-227 0 -367.5 -166.5t-140.5 -453.5z" />
<glyph unicode="R" horiz-adv-x="1353" d="M70 33q0 39 26 39q4 0 19 -1t20 -1q86 0 107 41q20 46 20 172v770q0 155 -20 186q-26 41 -109 41q-5 0 -17 -1t-16 -1q-30 0 -30 39q0 20 8 30.5t20 10.5q7 0 41.5 -2.5t89 -5t109.5 -2.5q27 0 110 3t127 3q256 0 376 -85t120 -253q0 -129 -78 -221.5t-233 -135.5 q-17 -5 -17 -14q0 -7 17 -16q25 -13 49 -38t36.5 -42t35.5 -51q110 -173 235 -336q51 -62 88 -81.5t78 -19.5q4 0 20 2.5t25 2.5q10 0 19.5 -9.5t9.5 -25.5q0 -13 -5 -22t-10.5 -13.5t-19.5 -7t-22 -2.5h-27h-12q-95 0 -156.5 21t-118.5 81q-52 52 -164 246 q-127 209 -155 239q-44 47 -123 52q-74 4 -105 4q-20 0 -28.5 -9t-8.5 -36v-301q0 -147 31 -181q15 -18 40.5 -25t74.5 -7q4 0 21 1t20 1q28 0 28 -43q0 -33 -26 -33q-7 0 -48 3t-102.5 6t-117.5 3q-51 0 -102.5 -3t-84 -6t-37.5 -3q-28 0 -28 37zM401 791q0 -55 27 -70 q8 -6 41.5 -11t54.5 -5q207 0 298 71t91 219q0 144 -86.5 209.5t-263.5 65.5q-94 0 -125 -4q-37 -3 -37 -52v-423z" />
<glyph unicode="S" horiz-adv-x="1042" d="M90 336q0 37 45 37q36 0 43 -37q20 -114 64 -178q30 -42 97.5 -71.5t152.5 -29.5q143 0 228 68t85 184q0 157 -209 269l-190 102q-133 72 -194.5 154t-61.5 196q0 157 119.5 252.5t312.5 95.5q123 0 264 -37q59 -17 65 -57q19 -174 19 -223q0 -18 -11.5 -27.5t-27.5 -9.5 q-43 0 -47 35q-3 39 -19 88.5t-37 75.5q-57 69 -213 69q-139 0 -216.5 -61t-77.5 -162q0 -76 47.5 -136.5t158.5 -121.5l183 -100q145 -79 210.5 -160.5t65.5 -194.5q0 -180 -123.5 -282.5t-341.5 -102.5q-101 0 -192.5 23t-138.5 53q-32 22 -35 53q-3 45 -9.5 99.5 t-11 90.5t-4.5 46z" />
<glyph unicode="T" horiz-adv-x="1318" d="M59 1063q0 1 8.5 103.5t8.5 152.5q0 39 30 39q5 0 43 -3t165 -6t345 -3q136 0 239.5 1t156 2.5t85 3t49 2.5t25.5 1q41 0 41 -39q0 -33 2.5 -92.5t4.5 -107t2 -50.5q0 -33 -37 -33q-19 0 -30 8t-11 21q-4 68 -15 106.5t-41.5 61.5t-75 30t-124.5 7q-164 0 -189 -13 q-18 -13 -18 -81v-887q0 -142 29 -183q24 -34 114 -34q4 0 22 1t25 1q11 0 18 -11t7 -28q0 -19 -8.5 -28t-20.5 -9q-5 0 -94.5 6t-163.5 6q-55 0 -108 -3t-86.5 -6t-40.5 -3q-29 0 -29 39q0 15 6.5 26t16.5 11q5 0 22.5 -1t22.5 -1q36 0 68 11t42 30q21 40 21 174v889 q0 65 -19 77q-28 17 -176 17q-86 0 -127.5 -8.5t-70.5 -34.5q-47 -42 -58 -158q-4 -33 -39 -33q-16 0 -26.5 8t-10.5 21z" />
<glyph unicode="U" horiz-adv-x="1562" d="M45 1317q0 41 33 41q5 0 39.5 -3t89.5 -6t110 -3q56 0 110 3t87.5 6t38.5 3q12 0 20.5 -10t8.5 -27t-7.5 -28t-19.5 -11q-3 0 -17 1t-18 1q-88 0 -112 -33q-16 -22 -23.5 -60t-7.5 -128q0 -385 4 -541q5 -237 100.5 -344.5t304.5 -107.5q84 0 150 14.5t111.5 38.5 t78.5 64.5t52 83t29.5 103.5t14 116t3.5 131q0 302 -4 446q-5 145 -25 178q-11 17 -41 28t-68 11q-4 0 -23.5 -1t-23.5 -1q-9 0 -15.5 10t-6.5 25q0 41 29 41q7 0 93.5 -6t137.5 -6q50 0 126 6t77 6q23 0 30 -8.5t7 -28.5t-7 -29.5t-26 -9.5q-4 0 -21.5 1t-21.5 1 q-63 -3 -94 -37q-33 -37 -33 -182q0 -38 1 -267t2 -292q0 -261 -129 -398t-411 -137q-284 0 -413 130t-129 386q0 45 1 232t1 348q0 136 -25 178q-24 39 -102 39q-5 0 -21 -1t-20 -1q-25 0 -25 35z" />
<glyph unicode="V" horiz-adv-x="1437" d="M6 1321q0 37 33 37q4 0 81 -4t128 -4q50 0 153.5 4t104.5 4q18 0 25.5 -8t7.5 -27q0 -41 -31 -41q-4 0 -19.5 1t-19.5 1q-64 0 -88.5 -14.5t-24.5 -40.5q0 -49 45 -162l291 -741q22 -57 30.5 -73.5t18.5 -16.5q9 0 45 83l297 746q45 112 45 164q0 55 -106 55 q-9 0 -23.5 -1t-15.5 -1q-13 0 -21 10.5t-8 26.5q0 39 35 39q2 0 95 -5t143 -5q48 0 110 5t66 5q29 0 29 -37q0 -39 -31 -39q-5 0 -17 1t-20 1q-53 0 -82 -41q-32 -46 -86 -172q-210 -497 -377 -903q-59 -148 -61 -152q-9 -20 -18.5 -29.5t-26.5 -9.5q-33 0 -45 31 q-46 116 -155 395.5t-263 667.5q-48 121 -90 178q-28 35 -82 35q-6 0 -21 -1t-20 -1q-31 0 -31 39z" />
<glyph unicode="W" horiz-adv-x="2009" d="M6 1317q0 19 9.5 30t23.5 11q4 0 80 -6t127 -6q52 0 110 2.5t97.5 5t46.5 2.5q21 0 26.5 -9.5t5.5 -31.5q0 -33 -30 -33q-3 0 -20 1t-21 1q-115 0 -115 -65q0 -53 35 -181l199 -721q10 -37 14.5 -48t11.5 -11q8 0 27 53l311 879q28 77 39 119q15 43 47 43q16 0 23 -6.5 t16 -24.5q4 -8 8.5 -22.5t14 -42.5t18.5 -54l315 -897q9 -26 14.5 -34.5t12.5 -8.5q12 0 25 47l192 717q35 128 35 195q0 35 -26 49t-95 14q-5 0 -21 -1t-18 -1q-31 0 -31 35q0 41 33 41q1 0 89.5 -6t138.5 -6q51 0 119.5 6t72.5 6q19 0 27 -8.5t8 -30.5q0 -37 -29 -37 q-6 0 -20.5 1t-20.5 1q-54 0 -76 -31q-14 -17 -26.5 -54t-40.5 -134q-21 -73 -139.5 -473t-135.5 -461q-26 -89 -36 -115q-14 -39 -45 -39q-19 0 -30 6t-18 23q-2 5 -7 20.5t-14.5 43t-21.5 57.5q-27 73 -143.5 401t-171.5 480q-9 27 -13 34t-12 7q-9 0 -26 -43 q-123 -331 -313 -875q-31 -83 -44 -115q-17 -39 -43 -39q-33 0 -45 31q-10 27 -36 115q-17 56 -62.5 215.5t-108 377t-100.5 349.5q-41 147 -67 186q-24 33 -78 33q-6 0 -21 -1t-20 -1q-31 0 -31 35z" />
<glyph unicode="X" horiz-adv-x="1468" d="M31 31q0 23 8 32t24 9q3 0 16 -1t17 -1q53 0 92 36q56 51 170 205l267 359q16 20 16 30q0 4 -2.5 9t-5.5 9t-9 11.5t-10 13.5l-221 293q-9 12 -41 54t-44.5 58.5t-37.5 46.5t-49 56q-27 31 -90 31q-5 0 -15.5 -1t-15.5 -1q-28 0 -28 39t32 39q7 0 40 -3t87 -6t111 -3 q41 0 133 6t98 6q31 0 31 -37q0 -39 -31 -39q-9 0 -39 1t-40 1q-37 0 -51.5 -8.5t-14.5 -30.5q0 -16 27 -56t106 -145l146 -194q32 -43 43 -43t43 43l145 194q63 83 88 127t25 72q0 25 -24 33t-71 8q-20 0 -37.5 -1t-21.5 -1q-33 0 -33 37q0 39 29 39q1 0 78.5 -6t154.5 -6 q79 0 139.5 6t63.5 6q35 0 35 -39q0 -37 -29 -37q-3 0 -16 1t-19 1q-43 0 -83 -37q-58 -55 -173 -207l-219 -284q-16 -21 -16 -31q0 -13 22 -39l279 -373q4 -5 16.5 -22.5t16 -22t14.5 -19.5t15.5 -21t15 -19t16.5 -20.5t16 -19.5t18.5 -21t19.5 -20.5t22 -23.5 q21 -21 41.5 -27.5t56.5 -6.5q4 0 14.5 1t14.5 1q29 0 29 -41q0 -35 -33 -35q-8 0 -39.5 3t-83.5 6t-109 3q-52 0 -147 -6t-100 -6q-31 0 -31 35q0 41 33 41q9 0 30 -1t31 -1q78 0 78 41q0 18 -25.5 58t-97.5 136l-201 268q-27 39 -39 39q-3 0 -5 -0.5t-4.5 -2.5t-4 -4 t-5 -5.5t-5.5 -6.5t-6.5 -9t-7.5 -11l-195 -268q-89 -125 -102 -154q-9 -19 -9 -34q0 -47 99 -47q20 0 39.5 1t23.5 1q29 0 29 -41q0 -35 -29 -35l-79 6q-79 6 -158 6q-80 0 -149 -6t-71 -6q-32 0 -32 35z" />
<glyph unicode="Y" horiz-adv-x="1351" d="M31 1319q0 39 32 39q7 0 38.5 -3t83.5 -6t110 -3q42 0 138.5 6t103.5 6q30 0 30 -39q0 -37 -32 -37q-9 0 -36.5 1t-37.5 1q-40 0 -56 -10t-16 -33q0 -7 1 -14.5t4.5 -16.5t6.5 -17t10 -21t12 -22.5t15.5 -27.5t18.5 -30.5t22.5 -36.5t24.5 -41l153 -252q20 -34 30 -44.5 t18 -10.5q17 0 49 51l157 258q101 162 101 223q0 27 -23.5 36t-70.5 9q-20 0 -38 -1t-22 -1q-15 0 -23 7.5t-8 29.5q0 39 31 39l74 -6q73 -6 153 -6q79 0 140.5 6t64.5 6q33 0 33 -39q0 -37 -27 -37q-4 0 -16 1t-18 1q-46 0 -86 -37q-34 -32 -158 -229l-244 -393 q-18 -24 -18 -82v-250q0 -154 28 -189q27 -34 101 -34q4 0 18 1t17 1q30 0 30 -39q0 -37 -30 -37q-5 0 -37 3t-84 6t-107 3q-56 0 -113 -3t-93 -6t-40 -3q-26 0 -26 41q0 15 7 25t19 10q2 0 16 -1t19 -1q93 0 113 41q20 38 20 184v225q0 35 -5 53t-21 45l-240 388 q-90 148 -166 243q-25 33 -90 33q-5 0 -17.5 -1t-17.5 -1q-26 0 -26 39z" />
<glyph unicode="Z" horiz-adv-x="1273" d="M68 29q0 18 14 34q504 669 846 1149q16 24 16 37q0 19 -37 19q-94 2 -272 2q-96 0 -143 -1t-101 -7t-74 -19q-33 -21 -54.5 -60.5t-41.5 -117.5q-8 -27 -39 -27q-21 0 -31 7.5t-10 27.5q0 6 7 38t18.5 91.5t19.5 122.5q3 22 15.5 28.5t42.5 6.5q4 0 150.5 -4t293.5 -4 q97 0 201.5 0.5t169.5 1t67 0.5q37 0 37 -29q0 -14 -14 -35q-74 -109 -215.5 -303.5t-345.5 -470t-269 -364.5q-22 -26 -22 -43q0 -19 39 -19q86 -2 352 -2q289 0 356 49q39 27 61.5 66t39.5 114q8 33 35 33q49 0 49 -31q0 -15 -11.5 -64t-29.5 -120t-27 -110 q-7 -27 -41 -27q-1 0 -65 1t-181 2t-247 1q-21 0 -263 -2t-260 -2q-17 0 -26.5 9t-9.5 22z" />
<glyph unicode="[" horiz-adv-x="616" d="M205 -252q0 10 1 51.5t1 50.5v1461q0 61 -1 121t-1 63q0 37 31 37q27 0 75.5 -1t77.5 -1q24 0 69 1t68 1q10 0 16.5 -1.5t12.5 -10t6 -23.5q0 -41 -35 -41q-20 0 -54 1t-52 1q-41 0 -74 -2q-3 0 -6.5 -3.5t-6.5 -12t-3 -21.5v-1601q0 -31 14 -31q66 -4 76 -4q18 0 52 1 t54 1q17 0 26 -6.5t9 -30.5q0 -37 -35 -37q-24 0 -68 1t-67 1q-30 0 -82.5 -1t-72.5 -1q-31 0 -31 37z" />
<glyph unicode="\" horiz-adv-x="851" d="M43 1356q0 30 47 30q25 0 37 -9.5t20 -30.5l627 -1321q14 -23 14 -41q0 -31 -43 -31q-26 0 -37.5 7.5t-21.5 27.5l-633 1333q-10 20 -10 35z" />
<glyph unicode="]" horiz-adv-x="614" d="M55 -254q0 41 35 41q20 0 53.5 -1t51.5 -1q40 0 73 2q3 0 7 3.5t7 12.5t3 21v1601q0 31 -15 31q-33 2 -75 2q-18 0 -51.5 -1t-53.5 -1q-17 0 -26 7.5t-9 31.5q0 22 9.5 29.5t25.5 7.5q24 0 67 -1t66 -1q30 0 84 1t74 1q31 0 31 -37q0 -10 -1 -51.5t-1 -50.5v-1461 q0 -61 1 -121t1 -63q0 -37 -33 -37q-27 0 -76 1t-78 1q-23 0 -67 -1t-68 -1q-11 0 -17.5 1.5t-12 10t-5.5 23.5z" />
<glyph unicode="^" horiz-adv-x="1314" d="M242 545q0 7 6 16l348 688q12 21 33 21h76q22 0 28 -21l336 -688q4 -4 4 -14q0 -19 -22 -19h-76q-21 0 -33 21l-283 588l-286 -588q-9 -21 -29 -21h-78q-24 0 -24 17z" />
<glyph unicode="_" horiz-adv-x="1034" d="M-31 -240q0 31 31 31h1034q29 0 29 -31v-47q0 -28 -29 -28h-1034q-31 0 -31 28v47z" />
<glyph unicode="`" horiz-adv-x="600" d="M137 1393q0 30 20.5 46.5t51.5 16.5q46 0 78 -59q51 -95 162 -262q14 -21 14 -35q0 -11 -10 -19t-23 -8q-16 0 -43 27q-156 153 -215 221q-35 43 -35 72z" />
<glyph unicode="a" horiz-adv-x="989" d="M102 209q0 112 91 168q51 29 132 51.5t244 52.5q46 8 63 22t17 48q0 115 -8.5 166t-30.5 84q-37 55 -137 55q-61 0 -121.5 -42.5t-60.5 -94.5q0 -23 7 -47.5t7 -38.5q0 -32 -22.5 -50t-55.5 -18q-36 0 -56.5 23t-20.5 63t28 83t64 75q70 61 156 101t159 40q126 0 180 -80 q37 -52 37 -188q0 -46 -3 -203t-3 -235q0 -174 90 -174q46 0 60 41q7 26 36 26q13 0 22 -8.5t9 -22.5q0 -23 -22 -51q-34 -39 -70.5 -58.5t-89.5 -19.5q-100 0 -139 97q-7 20 -19 20q-3 0 -6 -1t-7 -3.5t-6 -4.5t-7 -7.5t-7 -7.5q-53 -53 -110.5 -76t-130.5 -23 q-116 0 -192.5 69.5t-76.5 168.5zM238 223q0 -61 49 -107t139 -46q53 0 103 24t77 49q23 22 34 55t11 97q0 9 1 33t0.5 36t-3.5 28t-10.5 23t-20.5 7q-25 0 -61 -8q-129 -25 -211 -54q-108 -43 -108 -137z" />
<glyph unicode="b" horiz-adv-x="1185" d="M84 1503q0 21 20 29q112 45 193 96q3 2 9 6.5t9 6.5t8.5 4t10.5 2q13 0 18.5 -7t5.5 -24q0 -5 -1.5 -56t-3 -149t-1.5 -215v-371q0 -24 15 -24q12 0 20 8q169 145 338 145q165 0 267 -125.5t102 -318.5q0 -147 -61.5 -266.5t-178 -189.5t-266.5 -70q-113 0 -203 34 q-27 11 -45 11q-16 0 -25 -9t-14 -40q-3 -18 -12.5 -25.5t-30.5 -7.5q-22 0 -29.5 9.5t-7.5 25.5q0 6 3 42.5t6 112t3 178.5v779q0 271 -20 315q-19 44 -107 66q-22 4 -22 28zM350 328q0 -118 25 -166q23 -40 91.5 -66t141.5 -26q70 0 133 22t113.5 64.5t80.5 112.5t30 159 q0 197 -89 306.5t-245 109.5q-76 0 -160.5 -52t-103.5 -108q-17 -53 -17 -135v-221z" />
<glyph unicode="c" horiz-adv-x="946" d="M94 432q0 228 132 373t339 145q190 0 264 -96q35 -47 35 -113q0 -48 -26 -69t-64 -21q-23 0 -38.5 7.5t-22.5 15.5t-10.5 29.5t-4 31.5t-0.5 41q0 45 -46.5 73t-119.5 28q-131 0 -216 -103t-85 -270q0 -210 96 -322t242 -112q86 0 149.5 39t90.5 102q4 12 6.5 39.5 t10.5 40t32 12.5q41 0 42 -37q0 -21 -17 -71q-10 -27 -27 -55t-48 -59t-69 -55t-93.5 -39.5t-119.5 -15.5q-86 0 -158 25t-122 68t-84.5 101.5t-51 125.5t-16.5 141z" />
<glyph unicode="d" horiz-adv-x="1210" d="M94 420q0 112 38 208t107 166t171 110t223 40q73 0 145 -20q44 -11 47 -11q27 0 27 37v158q0 256 -23 303q-23 46 -114 66q-15 4 -15 26q0 17 19 27q135 55 201 104q19 13 34 13q23 0 23 -25q0 -6 -1.5 -65.5t-3 -158.5t-1.5 -202v-897q0 -135 35 -170q25 -25 57 -25 q13 0 37.5 6.5t29.5 6.5q13 0 22 -9.5t9 -27.5q0 -26 -26 -33q-11 -3 -31.5 -9t-43 -12.5t-48.5 -15.5q-29 -10 -54 -22.5l-39 -19.5t-24 -7q-25 0 -29 21q-3 14 -7.5 48t-6.5 48q-3 20 -18 20q-11 0 -31 -16q-77 -59 -146 -84t-155 -25q-173 0 -290.5 122t-117.5 325z M229 477q0 -185 96 -290t257 -105q80 0 157 39.5t90 75.5q23 61 23 157v246q0 123 -29 168q-25 41 -93.5 67.5t-156.5 26.5q-145 0 -244.5 -105t-99.5 -280z" />
<glyph unicode="e" horiz-adv-x="978" d="M96 434q0 231 122.5 373.5t320.5 142.5q92 0 163 -27.5t113 -75t63 -106.5t21 -127q0 -60 -65 -65q-109 -10 -574 -10q-33 0 -33 -70q0 -183 95.5 -291t244.5 -108q95 0 161 37.5t91 93.5q11 25 15 49q3 22 11 32.5t27 10.5q41 0 41 -43q0 -39 -32 -98q-18 -32 -46 -61.5 t-71 -57.5t-105.5 -45t-136.5 -17q-133 0 -231.5 64t-146.5 168t-48 231zM250 629q0 -21 26 -21q340 0 416 10q56 10 56 58q0 97 -58.5 150t-173.5 53q-78 0 -145.5 -45t-100.5 -127q-17 -40 -20 -78z" />
<glyph unicode="f" horiz-adv-x="665" d="M84 35q0 15 7.5 25t19.5 10q3 0 18 -1t21 -1q69 0 86 38q18 38 18 168v519q0 20 -6.5 26t-28.5 6q-33 0 -68.5 -2t-39.5 -2q-23 0 -23 43q0 29 25 33q45 7 69.5 15.5t40.5 27.5q28 32 33 145q8 203 38.5 309t104.5 171q92 80 248 80q100 0 169 -40.5t69 -119.5 q0 -90 -84 -90q-33 0 -54 19.5t-26 53.5q-6 56 -12 66q-20 39 -101 39q-66 0 -114.5 -42.5t-71.5 -109.5q-47 -125 -47 -479q0 -18 6 -24.5t27 -6.5q69 0 124.5 3.5t67.5 3.5q18 0 27.5 -9.5t9.5 -38.5q0 -49 -39 -49q-4 0 -25 1t-64.5 2t-100.5 1q-21 0 -27 -6t-6 -24v-521 q0 -68 3.5 -102.5t18.5 -61t41.5 -34.5t75.5 -8q7 0 25 1t26 1q29 0 29 -37t-29 -37q-5 0 -43.5 2.5t-97.5 5t-113 2.5q-51 0 -95 -2.5t-70 -5t-33 -2.5q-29 0 -29 39z" />
<glyph unicode="g" horiz-adv-x="1067" d="M61 -319q0 117 103 192q26 19 110 57q21 10 21 19q0 13 -21 16q-159 23 -159 170q0 71 59 133q21 23 59 51q19 13 19 25q0 8 -19 27q-86 83 -86 227q0 153 105 252.5t276 99.5q136 0 228 -61q16 -8 28 -8t41 32q65 78 142 78q45 0 68.5 -22.5t23.5 -63.5q0 -38 -22.5 -57 t-49.5 -19q-20 0 -50 20.5t-50 20.5t-35.5 -15.5t-15.5 -39.5q0 -19 14 -47q41 -68 41 -164q0 -149 -103.5 -244.5t-277.5 -95.5q-43 0 -80 6t-59 12.5t-27 6.5q-38 0 -57 -13q-56 -38 -56 -100q0 -50 35 -80q43 -37 195 -43q74 -2 203 -2q64 -1 113 -7t96 -22t77.5 -42.5 t49 -69t18.5 -100.5q0 -179 -151 -293.5t-392 -114.5q-194 0 -304 80t-110 199zM186 -293q0 -104 90 -161.5t250 -57.5q56 0 106.5 10t90 27.5t71.5 42t53 54t32.5 62.5t11.5 68q0 45 -14 78t-38.5 54t-65 33t-87.5 17t-111 5q-117 0 -180 -17q-36 -11 -70.5 -29t-66.5 -44 t-52 -63t-20 -79zM287 614q0 -144 62 -212t171 -68q103 0 166.5 67t63.5 185q0 142 -63 217.5t-167 75.5q-75 0 -128 -33.5t-79 -92.5t-26 -139z" />
<glyph unicode="h" horiz-adv-x="1202" d="M61 33q0 16 8 26.5t21 10.5q4 0 18 -1t21 -1q66 0 80 36q22 50 22 168v846q0 254 -20 295q-20 36 -68 51q-4 2 -22.5 5t-27.5 10.5t-9 23.5q0 22 14 27q120 45 201 102q19 15 37 15q8 0 14 -6.5t6 -16.5q0 -5 -1.5 -53t-3 -147t-1.5 -228v-375q0 -20 15 -20q9 0 22 10 q159 143 338 143q71 0 117.5 -20.5t79.5 -65.5q31 -44 44 -110t13 -195v-244q0 -193 16 -219q11 -19 27 -25.5t55 -6.5q5 0 23 1t20 1q13 0 21 -11t8 -28q0 -15 -8 -25t-21 -10q-4 0 -31 2.5t-75 5t-101 2.5q-51 0 -94 -2.5t-68 -5t-32 -2.5q-27 0 -27 37q0 15 8.5 26 t20.5 11q4 0 21 -1t22 -1q61 0 76 38q20 56 20 295q0 269 -35 344q-47 99 -186 99q-69 0 -144 -38t-110 -83q-20 -23 -27.5 -63.5t-7.5 -122.5v-261q0 -144 21 -176q22 -32 90 -32q5 0 21 1t22 1q31 0 31 -39q0 -15 -8 -25t-23 -10q-6 0 -36.5 2.5t-81 5t-103.5 2.5 q-51 0 -95 -2.5t-69 -5t-31 -2.5q-27 0 -27 37z" />
<glyph unicode="i" horiz-adv-x="604" d="M80 35q0 16 9 25.5t20 9.5q4 0 17.5 -1t18.5 -1q66 0 82 36q23 44 23 166v271q0 137 -24 182.5t-113 67.5q-13 3 -18 9.5t-5 20.5q0 23 16 27q91 30 205 104q21 15 39 15q11 0 19 -9t8 -24q0 -37 -2 -62q-6 -109 -6 -311v-287q0 -146 22 -174q22 -32 96 -32q8 0 19.5 1 t13.5 1q31 0 31 -37t-31 -37q-5 0 -32.5 2.5t-76.5 5t-104 2.5t-100.5 -2.5t-70.5 -5t-30 -2.5q-26 0 -26 39zM186 1311q0 42 30 70t71 28q44 0 71 -26t27 -72q0 -43 -27 -71t-69 -28t-72.5 28.5t-30.5 70.5z" />
<glyph unicode="j" horiz-adv-x="544" d="M-125 -516q0 32 18 51t48 19q41 0 65 -43q17 -33 78 -33q33 0 62.5 17t41.5 46q22 51 31.5 169t9.5 407v399q0 166 -26 211q-14 25 -39 38t-76 26q-20 3 -20 30q0 21 22 29q95 34 199 102q22 15 37 15q10 0 19 -7.5t9 -25.5q0 -55 -4 -178.5t-4 -192.5q1 -47 5.5 -289.5 t4.5 -316.5q0 -139 -9.5 -221.5t-39.5 -151.5q-39 -89 -112 -142.5t-160 -53.5q-78 0 -119 28.5t-41 67.5zM172 1311q0 42 29 70t71 28q20 0 38 -6.5t31.5 -18.5t21.5 -31t8 -42q0 -28 -13 -51t-36 -35.5t-50 -12.5q-43 0 -71.5 28t-28.5 71z" />
<glyph unicode="k" horiz-adv-x="1105" d="M55 35q0 15 8 26t17 11q3 0 20 -2t27 -2q26 0 49.5 10t32.5 28q18 34 18 168v826q0 272 -20 313q-20 36 -68 51q-5 2 -21 6t-24 7q-12 3 -12 26q0 22 14 27q111 41 201 102q19 15 37 15t18 -23q0 -5 -1.5 -52t-3 -146t-1.5 -230v-920q0 -144 25 -176q22 -32 90 -32 q8 0 24 2t19 2q24 0 24 -37q0 -39 -24 -39q-6 0 -35.5 2.5t-79 5t-102.5 2.5q-54 0 -102 -2.5t-74.5 -5t-30.5 -2.5q-25 0 -25 39zM393 485q0 27 25 35q62 20 114 72q99 99 154 160q37 43 37 69q0 33 -53 33q-6 0 -24.5 -1t-24.5 -1q-27 0 -27 37q0 35 27 35q11 0 76.5 -5.5 t123.5 -5.5q44 0 82 2.5t60.5 5.5t27.5 3q33 0 33 -39q0 -33 -31 -33q-3 0 -18 1t-21 1q-32 0 -65 -21t-98 -88q-40 -41 -129 -127t-111 -108q-8 -8 -8 -21q0 -5 6 -14q96 -132 280 -311q61 -59 105.5 -77.5t89.5 -18.5q11 0 26 3t21 3q33 0 33 -33q0 -15 -6.5 -22 t-20.5 -13q-36 -16 -98 -16q-160 0 -277 119q-126 130 -245 288q-28 37 -51 60q-13 13 -13 28z" />
<glyph unicode="l" horiz-adv-x="591" d="M59 37q0 15 7 25t18 10q3 0 19.5 -1t25.5 -1q27 0 50 10.5t32 28.5q20 38 20 167v838q0 260 -20 299q-20 36 -68 51q-1 0 -22 4.5t-29 11.5t-8 23q0 22 14 27q129 53 203 100q26 17 39 17q8 0 14 -6.5t6 -16.5q0 -5 -1.5 -60.5t-3 -163.5t-1.5 -239v-885q0 -144 23 -174 q22 -32 90 -32q7 0 24 1t21 1q23 0 23 -35q0 -19 -7.5 -29t-17.5 -10q-6 0 -35.5 2.5t-78.5 5t-101 2.5q-55 0 -103.5 -2.5t-76 -5t-31.5 -2.5q-25 0 -25 39z" />
<glyph unicode="m" horiz-adv-x="1804" d="M80 33q0 16 8 26.5t21 10.5q5 0 18.5 -1t19.5 -1q66 0 80 36q23 52 23 168v265q0 53 -1 83.5t-7 60t-14 44t-25.5 29t-39.5 22.5t-57 17q-16 4 -16 26q0 21 16 29q98 42 187 104q22 15 37 15q22 0 26 -25q1 -8 1.5 -29.5t1 -50.5t1.5 -47q0 -20 19 -20q7 0 20 10 q74 70 161.5 109.5t170.5 39.5q82 0 136 -32.5t85 -112.5q9 -21 19 -21q8 0 20 9q73 71 166 114t180 43q70 0 115 -20.5t76 -65.5q31 -44 44 -110t13 -195v-244q0 -189 19 -219q11 -19 25.5 -25.5t53.5 -6.5q5 0 23 1t20 1q13 0 21 -11t8 -28q0 -15 -8 -25t-21 -10 q-4 0 -31 2.5t-74.5 5t-100.5 2.5q-51 0 -94 -2.5t-67.5 -5t-31.5 -2.5q-27 0 -27 37q0 15 8.5 26t20.5 11q4 0 20.5 -1t20.5 -1q64 0 76 38q20 50 20 293q0 274 -34 346q-46 99 -181 99q-67 0 -133 -37t-102 -84q-39 -48 -39 -186v-218q0 -193 16 -219q11 -19 27 -25.5 t55 -6.5q5 0 22 1t19 1q14 0 22.5 -11t8.5 -28q0 -15 -8 -25t-21 -10q-5 0 -32 2.5t-74.5 5t-100.5 2.5q-51 0 -93.5 -2.5t-67 -5t-31.5 -2.5q-27 0 -27 37q0 15 7.5 26t19.5 11q5 0 22 -1t21 -1q64 0 76 38q20 56 20 293q0 273 -37 346q-46 99 -178 99q-66 0 -132 -37 t-103 -82q-21 -26 -30 -67.5t-9 -120.5v-261q0 -148 22 -176q22 -32 84 -32q5 0 21.5 1t21.5 1q31 0 31 -39q0 -35 -33 -35q-5 0 -34 2.5t-78.5 5t-102.5 2.5q-51 0 -95 -2.5t-69.5 -5t-32.5 -2.5q-24 0 -24 37z" />
<glyph unicode="n" horiz-adv-x="1218" d="M80 33q0 15 7 26t19 11q5 0 20 -1t21 -1q66 0 80 36q23 52 23 168v265q0 53 -1 83.5t-7 60t-14 44t-25.5 29t-39.5 22.5t-57 17q-16 4 -16 26q0 21 16 29q110 47 187 104q22 15 37 15q22 0 26 -25q1 -8 1.5 -29.5t1 -50.5t1.5 -47q0 -20 19 -20q5 0 24 14 q168 145 338 145q71 0 117.5 -20.5t79.5 -65.5q32 -44 45.5 -110.5t13.5 -194.5v-244q0 -192 17 -219q11 -19 26.5 -25.5t55.5 -6.5q6 0 21 1t18 1q15 0 23.5 -11t8.5 -28q0 -35 -30 -35q-4 0 -31 2.5t-75.5 5t-102.5 2.5q-50 0 -92.5 -2.5t-67 -5t-31.5 -2.5q-28 0 -28 37 q0 15 8 26t20 11q4 0 21.5 -1t21.5 -1q64 0 76 38q21 52 21 291q0 273 -35 348q-23 49 -72 74t-115 25q-67 0 -139 -38.5t-108 -82.5q-39 -48 -39 -186v-261q0 -148 22 -176q22 -32 86 -32q5 0 20.5 1t20.5 1q33 0 33 -39q0 -35 -33 -35q-6 0 -35.5 2.5t-79 5t-102.5 2.5 q-51 0 -95 -2.5t-69.5 -5t-32.5 -2.5q-24 0 -24 37z" />
<glyph unicode="o" horiz-adv-x="1130" d="M94 446q0 118 38.5 215t104.5 159.5t153.5 96t187.5 33.5q213 0 336.5 -129t123.5 -336q0 -145 -56 -260.5t-167 -184.5t-260 -69q-142 0 -248.5 66t-159.5 172.5t-53 236.5zM242 479q0 -199 90.5 -317.5t236.5 -118.5q148 0 232 110t84 306q0 195 -89.5 308.5 t-234.5 113.5q-147 0 -233 -107t-86 -295z" />
<glyph unicode="p" horiz-adv-x="1193" d="M70 -555q0 16 6.5 26.5t19.5 10.5q4 0 19 -1t22 -1q58 0 82 39q19 34 19 170v850q0 44 -1.5 72t-4.5 54.5t-10 43t-16.5 30.5t-25.5 23t-35.5 16.5t-48.5 14.5q-18 4 -18 28q0 15 18 27q105 46 187 104q18 15 32 15q26 0 29 -23q2 -20 2.5 -64t1.5 -57q0 -28 21 -28 q10 0 18 8q73 68 164.5 108.5t171.5 40.5q166 0 271.5 -124t105.5 -314q0 -151 -59 -270.5t-175 -189.5t-272 -70q-108 0 -184 26q-24 6 -31 6q-19 0 -19 -26v-299q0 -126 19 -164q7 -14 16.5 -23t35.5 -16.5t67 -7.5q5 0 26.5 1t24.5 1q16 0 24.5 -8.5t8.5 -30.5 q0 -35 -37 -35q-6 0 -44 2.5t-95.5 5t-110.5 2.5q-46 0 -90.5 -2.5t-72.5 -5t-34 -2.5q-28 0 -28 37zM358 340q0 -140 31 -188q24 -36 91 -60t138 -24q67 0 129 22.5t112.5 66t81 116t30.5 163.5q0 187 -85.5 297.5t-238.5 110.5q-88 0 -170 -50t-100 -106q-19 -63 -19 -127 v-221z" />
<glyph unicode="q" horiz-adv-x="1185" d="M94 428q0 148 60.5 267.5t175.5 189t264 69.5q112 0 207 -32q33 -13 43 -13q16 0 23.5 9t13.5 40q9 37 45 37q41 0 41 -41q0 -6 -3.5 -41.5t-7.5 -111t-4 -178.5v-934q0 -129 23 -170q24 -39 84 -39q6 0 21 1t20 1q28 0 28 -37t-30 -37l-70 5q-69 5 -129 5 q-54 0 -112 -2.5t-96.5 -5t-43.5 -2.5q-37 0 -37 35q0 39 33 39q3 0 25 -1t28 -1q92 0 115 47q18 29 18 164v405q0 27 -16 27q-13 0 -25 -12q-74 -61 -148.5 -93t-170.5 -32q-166 0 -270.5 124.5t-104.5 317.5zM221 512q0 -196 91 -304t249 -108q73 0 157 45.5t101 96.5 q15 46 15 137v231q0 124 -25 166q-23 39 -91.5 66.5t-139.5 27.5q-70 0 -133 -22t-113.5 -64.5t-80.5 -112.5t-30 -159z" />
<glyph unicode="r" horiz-adv-x="790" d="M80 33q0 17 7.5 27t18.5 10q5 0 20 -1t21 -1q61 0 80 36q23 44 23 160v273q0 53 -1 83.5t-7 60t-14 44t-25.5 29t-39.5 22.5t-57 17q-16 4 -16 26q0 21 16 29q103 43 187 104q22 15 37 15q23 0 26 -25q1 -7 1.5 -29t1 -51.5t1.5 -46.5q0 -20 13 -20q12 0 18 8 q48 64 116.5 106.5t135.5 42.5q58 0 92.5 -29t34.5 -75q0 -50 -27.5 -74t-58.5 -24q-45 0 -61 32q-23 45 -74 45q-35 0 -79 -34.5t-64 -73.5q-37 -81 -37 -182v-267q0 -134 28 -170q25 -32 105 -32q5 0 21 1t22 1q33 0 33 -37q0 -17 -9 -27t-24 -10q-5 0 -40.5 2.5t-90.5 5 t-109 2.5q-69 0 -134 -5l-65 -5q-26 0 -26 37z" />
<glyph unicode="s" horiz-adv-x="800" d="M88 240q0 20 10 29.5t35 9.5q31 0 35 -31q22 -103 73 -153t165 -50q91 0 148.5 41t57.5 102q0 47 -16.5 78t-70.5 68.5t-160 83.5q-129 57 -180.5 123t-51.5 149q0 118 87.5 189t250.5 71q100 0 182 -24q32 -8 35 -47q2 -51 8 -105.5t6 -66.5q0 -33 -40 -33q-33 0 -39 28 q-1 4 -4 22.5t-4 24t-4.5 20t-6.5 22t-8 17.5t-12 17q-42 54 -144 54q-93 0 -144.5 -42.5t-51.5 -97.5q0 -67 44.5 -110.5t172.5 -100.5q152 -66 206 -134t54 -150q0 -56 -19 -103.5t-58.5 -86.5t-108 -61t-158.5 -22q-78 0 -146 17.5t-98 40.5q-24 18 -27 49 q-18 135 -18 162z" />
<glyph unicode="t" horiz-adv-x="675" d="M74 860q0 33 26 37q95 14 136 63t65 162q3 13 5 19.5t11 13t23 6.5q31 0 31 -39q0 -3 -2 -71.5t-2 -108.5q0 -16 6 -23.5t24 -7.5q45 0 116 3.5t79 3.5q35 0 35 -48q0 -24 -11 -36.5t-26 -12.5q-10 0 -81 2t-112 2q-18 0 -25 -7t-7 -23q-5 -345 -5 -521q0 -103 21 -151 q29 -53 104 -53q74 0 121 55q10 14 27 14q14 0 24.5 -11t10.5 -26q0 -13 -15 -28q-94 -94 -227 -94q-116 0 -162 75q-33 53 -33 181q0 31 2 109t4.5 204.5t4.5 245.5q0 17 -7.5 23.5t-27.5 6.5q-27 0 -61 -2t-42 -2q-30 0 -30 39z" />
<glyph unicode="u" horiz-adv-x="1210" d="M63 866q0 31 25 35q139 20 215 49q29 13 41 13q10 0 19.5 -9t9.5 -22q0 -3 -6.5 -54.5t-13.5 -142t-7 -188.5q0 -156 6.5 -232t26.5 -122q46 -109 203 -109q76 0 141 28t98 66t33 187v229v4v62t-2 48t-5 40.5t-10 29.5t-16 24t-24 14.5t-33.5 12t-44.5 5.5q-10 0 -18.5 8 t-8.5 24q0 31 25 35q99 11 188 43q7 2 18.5 7t20.5 8.5t14 3.5q31 0 31 -29q0 -1 -3.5 -39t-7 -112t-3.5 -162v-332q0 -124 35 -162q20 -23 57 -23q9 0 35 6.5t35 6.5q26 0 26 -35q0 -27 -18 -33q-4 -1 -48.5 -13.5t-74.5 -23.5q-30 -10 -58 -23t-43 -20.5t-22 -7.5 q-23 0 -29 25q-1 4 -16 96q-3 18 -14 18q-9 0 -43 -28q-133 -101 -295 -101q-138 0 -217 97q-35 53 -48.5 127.5t-13.5 201.5q0 24 1 133.5t1 141.5q0 69 -14 104q-21 50 -123 58q-10 0 -17.5 9t-7.5 23z" />
<glyph unicode="v" horiz-adv-x="1085" d="M10 889q0 37 31 37q5 0 31.5 -3t73 -5.5t98.5 -2.5q51 0 95 2.5t69.5 5.5t31.5 3q29 0 29 -39q0 -33 -27 -33q-2 0 -20 1t-25 1q-46 0 -68 -11t-22 -40q0 -40 47 -158q88 -217 187 -424q9 -18 18 -18q11 0 19 16q90 182 186 422q53 132 53 162q0 28 -17 39.5t-67 11.5 q-5 0 -22 -1t-21 -1q-26 0 -26 35q0 37 28 37q7 0 29.5 -3t63.5 -5.5t92 -2.5t88.5 2.5t56.5 5.5t25 3q30 0 30 -37q0 -17 -7.5 -26t-18.5 -9q-3 0 -14 1t-15 1q-46 0 -70 -31t-57 -104q-42 -95 -105.5 -235.5t-112.5 -250.5t-106 -241q-10 -23 -36 -23q-27 0 -37 23 q-51 122 -142 332t-168 393q-35 78 -61 108q-23 29 -61 29q-4 0 -15 -1t-16 -1q-25 0 -25 35z" />
<glyph unicode="w" horiz-adv-x="1490" d="M6 891q0 35 33 35q1 0 73 -5.5t111 -5.5q27 0 77.5 2.5t91 5.5t44.5 3q29 0 29 -37q0 -35 -31 -35l-12 1q-11 1 -16 1q-72 0 -93.5 -13t-21.5 -40q0 -29 22 -115q47 -176 123 -418q13 -45 21 -45q4 0 7.5 6t14.5 33q23 53 64.5 157t77.5 195t67.5 172.5t32.5 83.5 q7 17 11.5 25.5t13 14.5t20.5 6q15 0 22 -6.5t13 -20.5q7 -12 33 -88q66 -177 210 -539q19 -45 23 -45q8 0 20 41q60 181 127 422q23 83 23 119q0 29 -24.5 42t-86.5 13q-4 0 -16 -1t-18 -1q-27 0 -27 35q0 37 27 37q8 0 82 -5.5t110 -5.5q37 0 104 5.5t70 5.5q11 0 19 -7.5 t8 -23.5q0 -39 -25 -39q-4 0 -16.5 1t-16.5 1q-28 0 -55 -18q-20 -16 -57 -131q-22 -69 -72 -227t-91.5 -287t-64.5 -195q-5 -15 -13 -22t-25 -7q-25 0 -37 23l-37 104q-53 149 -211 545q-12 33 -21 33t-20 -27q-81 -193 -217 -547q-4 -13 -19 -49t-20 -53q-11 -29 -39 -29 q-17 0 -24.5 5.5t-12.5 17.5q-4 6 -26 84q-135 448 -193 633q-30 96 -49 125q-19 22 -60 22q-4 0 -15.5 -1t-14.5 -1q-27 0 -27 35z" />
<glyph unicode="x" d="M23 33q0 37 28 37q3 0 15 -1t16 -1q46 0 74 28q64 64 102 109l186 225q15 15 15 27q0 11 -13 24l-188 236q-54 66 -98 110q-29 29 -60 29q-4 0 -14.5 -1t-13.5 -1q-10 0 -17.5 9.5t-7.5 25.5q0 19 8 28t19 9q6 0 31 -3t70 -5.5t97 -2.5q69 0 137.5 5.5t69.5 5.5 q29 0 29 -37q0 -15 -7 -25t-20 -10q-4 0 -19 1t-20 1q-82 0 -82 -39q0 -30 84 -133l99 -125q9 -12 18 -12q14 0 23 12l100 125q80 101 80 135q0 22 -18.5 29.5t-61.5 7.5q-5 0 -22 -1t-21 -1q-12 0 -20.5 10t-8.5 25q0 37 31 37q1 0 55 -5.5t123 -5.5q51 0 90.5 2.5 t59.5 5.5t26 3q12 0 20.5 -9t8.5 -28q0 -16 -8 -25.5t-19 -9.5q-3 0 -13.5 1t-14.5 1q-31 0 -60 -29q-46 -46 -100 -110l-174 -207q-14 -19 -14 -29q0 -16 14 -30l205 -240q82 -97 104 -115q33 -28 60 -28q4 0 16.5 1t15.5 1q11 0 19 -10t8 -27q0 -19 -8.5 -28t-20.5 -9 q-6 0 -35 2.5t-77 5t-99 2.5q-69 0 -140.5 -5t-72.5 -5q-30 0 -30 37q0 16 7.5 26.5t20.5 10.5q4 0 19 -1t20 -1q92 0 92 43q0 5 -2 10.5t-6.5 13.5t-9 14.5t-13.5 18.5t-15 19.5t-19.5 23.5t-20.5 25l-110 133q-11 16 -23 16q-11 0 -24 -16l-107 -131q-26 -33 -36.5 -46 t-24.5 -32.5t-18.5 -30.5t-4.5 -20q0 -23 20.5 -32t65.5 -9q5 0 24 1t23 1q13 0 21 -10.5t8 -26.5q0 -37 -31 -37q-1 0 -62 5t-130 5q-52 0 -95 -2.5t-66.5 -5t-29.5 -2.5q-12 0 -22 9t-10 28z" />
<glyph unicode="y" horiz-adv-x="1101" d="M16 889q0 37 31 37q5 0 32.5 -3t75 -5.5t99.5 -2.5q51 0 94.5 2.5t69 5.5t31.5 3q30 0 30 -35q0 -37 -30 -37q-2 0 -21.5 1t-26.5 1q-46 0 -64 -12.5t-18 -44.5q0 -24 50 -146q82 -199 184 -417q19 -39 29 -39q16 0 26 26q4 11 172 432q43 115 43 152q0 27 -18 38t-68 11 q-4 0 -22 -1t-21 -1q-26 0 -26 39q0 33 28 33q5 0 28.5 -3t65.5 -5.5t93 -2.5t88.5 2.5t56.5 5.5t25 3q32 0 32 -37q0 -35 -22 -35q-3 0 -19.5 1t-19.5 1q-36 0 -63 -31q-28 -28 -58 -104q-149 -373 -280 -686q-188 -442 -267 -543q-86 -104 -194 -104q-109 0 -109 77 q0 30 19 49t49 19q18 0 35.5 -7t33.5 -7q38 0 65 16t56 53q51 65 160 312q37 86 37 102q0 22 -14 57q-51 117 -301 662q-42 85 -60 106q-23 29 -61 29q-4 0 -15.5 -1t-15.5 -1q-25 0 -25 35z" />
<glyph unicode="z" horiz-adv-x="964" d="M53 27q0 12 17 32q93 115 281.5 356.5t297.5 385.5q17 20 17 28q0 11 -19 11q-31 0 -97 1t-77 1q-201 0 -242 -29q-25 -16 -46.5 -55.5t-30.5 -93.5q-2 -9 -11 -16t-22 -7q-20 0 -27.5 7t-7.5 22q0 12 7.5 52.5t17.5 93t14 81.5q4 31 39 31q2 0 106.5 -5t249.5 -5 q92 0 164 0.5t107 1t38 0.5q35 0 35 -25q0 -20 -16 -39q-323 -418 -574 -733q-12 -18 -12 -27q0 -16 29 -16q72 -4 241 -4q171 0 228 35q31 20 57 65.5t35 93.5q2 12 10.5 20.5t22.5 8.5q39 0 39 -31q0 -25 -50 -252q-5 -20 -26 -20q-3 0 -41 1t-128 2.5t-212 2.5 q-19 0 -192.5 -1t-190.5 -1q-13 0 -22 7t-9 20z" />
<glyph unicode="{" horiz-adv-x="669" d="M47 623q0 17 9.5 25t33.5 11q168 20 168 236q0 5 -3 138t-3 169q0 170 76 252t233 82q37 0 49.5 -9t12.5 -32q0 -39 -37 -39q-6 0 -23.5 1t-23.5 1q-83 0 -120.5 -57t-37.5 -189q0 -39 1 -148.5t1 -119.5q0 -135 -32 -201.5t-120 -107.5q-12 -5 -12 -12t14 -13 q76 -32 113 -98t37 -203q0 -10 -1 -123.5t-1 -152.5q0 -134 40.5 -193t129.5 -59q3 0 17 1t20 1q23 0 31 -8.5t8 -30.5t-14 -29.5t-52 -7.5q-85 0 -140 13.5t-94.5 49t-57 98t-17.5 159.5q0 53 3 180.5t3 140.5q0 215 -170 232q-24 3 -32.5 12t-8.5 31z" />
<glyph unicode="|" horiz-adv-x="516" d="M201 -291v1825q0 24 11 33.5t44 9.5q36 0 47.5 -10t11.5 -37v-1825q0 -21 -11.5 -30t-45.5 -9t-45.5 10.5t-11.5 32.5z" />
<glyph unicode="}" horiz-adv-x="669" d="M43 1499q0 21 14.5 29t53.5 8q85 0 139.5 -13.5t94 -48.5t56.5 -97.5t17 -159.5q0 -53 -3 -180t-3 -140q0 -114 44 -168.5t126 -64.5q24 -3 32.5 -11.5t8.5 -29.5q0 -18 -9.5 -26t-33.5 -11q-168 -20 -168 -236q0 -5 3 -139t3 -170q0 -170 -75.5 -251t-231.5 -81 q-38 0 -51 8.5t-13 30.5q0 39 37 39q6 0 23.5 -1t23.5 -1q83 0 121.5 57t38.5 189q0 39 -1 149.5t-1 120.5q0 136 31.5 202t119.5 107q13 5 13 13q0 6 -15 12q-50 21 -80.5 52t-49.5 93t-19 156q0 10 1 123.5t1 152.5q0 133 -41.5 192.5t-130.5 59.5q-3 0 -17 -1t-20 -1 q-23 0 -31 7.5t-8 29.5z" />
<glyph unicode="~" horiz-adv-x="1314" d="M158 479q0 8 10 21q133 176 276 176q48 0 94.5 -17t161.5 -79q49 -26 70.5 -37t47 -19t48.5 -8q49 0 95 29t98 98q11 14 24 14q10 0 21 -8l45 -35q8 -11 8 -22q0 -10 -6 -19q-134 -176 -285 -176q-93 0 -215 72q-86 52 -130 70t-79 18q-99 0 -190 -127q-10 -14 -23 -14 q-10 0 -18 8l-43 35q-10 7 -10 20z" />
<glyph unicode="&#xa1;" horiz-adv-x="647" d="M174 840q0 46 30 79t75 33q50 0 79 -28.5t29 -81.5q0 -49 -30 -79t-78 -30q-46 0 -75.5 29t-29.5 78zM193 -336q0 35 23 322t26 495q0 20 2 30t10.5 18t26.5 8q27 0 36 -11.5t9 -42.5q6 -206 25.5 -490t19.5 -327q0 -61 -23.5 -85.5t-64.5 -24.5q-47 0 -68.5 24t-21.5 84 z" />
<glyph unicode="&#xa2;" horiz-adv-x="1046" d="M150 440q0 198 100 331.5t274 164.5q11 2 15 6t4 16v142q0 21 8 30t33 9q23 0 31 -8.5t8 -30.5v-135q0 -25 26 -25q65 0 128 -28t93 -68q35 -49 35 -96q0 -84 -76 -84q-37 0 -54 19.5t-17 47.5q0 9 1 26t1 23q0 41 -35.5 63.5t-83.5 22.5q-12 0 -15 -7t-3 -28v-729 q0 -24 20 -24q11 0 27 4q62 13 107.5 50.5t66.5 88.5q4 13 6 40.5t10.5 39.5t32.5 12q39 0 39 -34q0 -29 -14 -72q-11 -27 -30 -55.5t-51 -61t-81.5 -57.5t-108.5 -35q-13 -2 -18.5 -9t-5.5 -26v-121q0 -21 -8 -29t-31 -8q-26 0 -33.5 8t-7.5 29v121q0 18 -4 24t-17 7 q-94 8 -166.5 48t-116.5 102t-66.5 137t-22.5 159zM293 506q0 -173 56.5 -278t156.5 -138q12 -4 20 -4q17 0 17 20v730q0 30 -21 30q-19 0 -39 -8q-87 -32 -138.5 -127t-51.5 -225z" />
<glyph unicode="&#xa3;" horiz-adv-x="1222" d="M53 68q0 11 5 21t16 18t20.5 14.5t27 13t27 10t29.5 9.5t25 8q81 27 139 120.5t64 241.5q0 27 -25 27h-164q-12 0 -18 2t-10.5 11.5t-4.5 29.5q0 28 8.5 36.5t24.5 8.5h166q11 0 18 6.5t7 16.5q0 18 -7.5 101.5t-7.5 115.5q0 196 109.5 308.5t316.5 112.5 q142 0 218.5 -49.5t76.5 -128.5q0 -94 -82 -94t-82 84q0 55 -41 87t-108 32q-110 0 -184 -69.5t-74 -211.5q0 -74 5 -178t5 -113q0 -20 25 -20h251q15 0 22 -8t7 -35t-7.5 -36t-21.5 -9h-258q-20 0 -24 -21q-6 -49 -12.5 -82.5t-23 -78t-47.5 -83.5t-77 -73q-16 -10 -16 -29 q0 -11 20 -14q38 -4 221 -45q185 -41 301 -41q89 0 119 35q29 31 29 80q0 4 -1 16t-1 16q0 20 12 28.5t27 8.5q45 0 45 -45q0 -32 -17 -81.5t-55 -96.5q-47 -60 -96.5 -82t-116.5 -22q-109 0 -465 102q-24 7 -61.5 19t-62 19t-38.5 7q-53 0 -94 -41q-20 -20 -43 -20 q-20 0 -30.5 12.5t-10.5 28.5z" />
<glyph unicode="&#xa4;" horiz-adv-x="948" d="M104 240q0 11 17 28l74 74q10 10 10 20t-6 19q-60 87 -60 194q0 103 60 183q8 12 8 20q0 11 -10 21l-76 71q-12 12 -12 25q0 21 23 42t36 21q16 0 27 -14l69 -78q9 -12 23 -12q9 0 18 6q83 51 170 51q110 0 176 -47q9 -6 17 -6q10 0 22 12l60 66l5.5 5.5l5.5 5.5l4.5 4.5 t5 4.5l4.5 3t5 2.5t5 1t6 0.5q15 0 35 -18t20 -38q0 -11 -15 -26l-77 -78q-9 -9 -9 -21q0 -10 7 -20q55 -83 55 -187q0 -47 -16 -99t-43 -89q-7 -11 -7 -20q0 -12 11 -23l75 -72q15 -12 15 -26q0 -19 -18.5 -37.5t-35.5 -18.5q-15 0 -28 13l-78 80q-8 10 -23 10q-8 0 -20 -8 q-74 -41 -170 -41q-103 0 -170 39q-9 6 -16 6q-13 0 -23 -13l-65 -67q-21 -21 -37 -21q-21 0 -37.5 17t-16.5 35zM236 573q0 -111 69.5 -179t169.5 -68q96 0 167 67t71 180q0 108 -68.5 182t-169.5 74q-102 0 -170.5 -75.5t-68.5 -180.5z" />
<glyph unicode="&#xa5;" horiz-adv-x="1363" d="M47 1243q0 39 31 39q7 0 37.5 -3t81 -6t108.5 -3q42 0 141.5 6t106.5 6q29 0 29 -37q0 -39 -31 -39q-9 0 -37.5 1t-38.5 1q-38 0 -52.5 -9.5t-14.5 -31.5q0 -29 24 -75t92 -154l138 -217q21 -33 29 -42t16 -9q17 0 47 47l141 223q104 166 104 225q0 43 -90 43 q-20 0 -38.5 -1t-22.5 -1q-15 0 -23 7.5t-8 29.5q0 39 29 39l74 -6q75 -6 155 -6q81 0 143 6t64 6q31 0 31 -39q0 -37 -27 -37q-4 0 -16 1t-19 1q-50 0 -90 -37q-11 -11 -25.5 -29t-33.5 -46t-32.5 -47.5t-37.5 -57t-33 -51.5l-114 -176q-11 -15 -11 -23q0 -12 23 -12h221 q18 0 27.5 -9t9.5 -34q0 -18 -5.5 -27.5t-12.5 -11.5t-19 -2h-295q-17 0 -28 -16l-35 -58q-12 -20 -12 -41q0 -15 1 -24t6.5 -17t16.5 -8h346q18 0 27.5 -9t9.5 -34q0 -27 -8.5 -34t-28.5 -7h-346q-24 0 -24 -24v-84q0 -150 28 -185q27 -34 101 -34q4 0 18.5 1t17.5 1 q31 0 31 -39q0 -17 -9.5 -27t-23.5 -10q-5 0 -35 3t-80.5 6t-105.5 3q-56 0 -113 -3t-93 -6t-40 -3q-28 0 -28 41q0 14 7 24.5t19 10.5q2 0 16 -1t19 -1q95 0 115 41q20 38 20 180v82q0 24 -24 24h-344q-18 0 -28.5 7.5t-10.5 31.5q0 26 9.5 35.5t29.5 9.5h338q6 0 10.5 1 t7.5 2t5 4.5t3 5.5t1.5 7t0.5 7.5v9.5v10q0 18 -14 39l-41 60q-12 18 -31 18h-280q-19 0 -29 8t-10 31q0 26 9.5 35.5t29.5 9.5h213q22 0 22 14q0 8 -6 17l-104 170q-92 152 -166 244q-28 32 -92 32q-5 0 -19.5 -1t-19.5 -1q-25 0 -25 39z" />
<glyph unicode="&#xa6;" horiz-adv-x="516" d="M201 -186v618q0 24 11 33.5t44 9.5q36 0 47.5 -10t11.5 -37v-618q0 -21 -11.5 -30t-45.5 -9t-45.5 10.5t-11.5 32.5zM201 756v618q0 24 11 33.5t44 9.5q36 0 47.5 -10t11.5 -37v-618q0 -21 -11.5 -30t-45.5 -9t-45.5 10.5t-11.5 32.5z" />
<glyph unicode="&#xa7;" horiz-adv-x="942" d="M100 637q0 173 197 254q12 6 12 18q0 10 -6 19q-84 87 -84 194q0 117 93 190.5t245 73.5q117 0 183.5 -46t66.5 -121q0 -82 -72 -82q-35 0 -52 17t-19 39t-8.5 49.5t-20.5 41.5q-27 31 -98 31q-86 0 -143.5 -45t-57.5 -113q0 -35 6 -58t28.5 -57t69 -75.5t125.5 -102.5 q123 -93 187.5 -158t85 -109.5t20.5 -98.5q0 -76 -45.5 -148t-150.5 -125q-15 -7 -15 -22t10 -25q103 -116 103 -221q0 -109 -94 -194t-258 -85q-124 0 -198.5 55.5t-74.5 131.5q0 34 19.5 55t56.5 21q34 0 51.5 -19t20.5 -63q3 -55 36 -78q51 -31 105 -31q100 0 155.5 51 t55.5 123q0 63 -52 138.5t-208 203.5q-155 125 -215 206.5t-60 164.5zM217 676q0 -66 43 -125.5t166 -167.5q107 -89 123 -102q21 -17 39 -17q21 0 39 12q114 66 114 183q0 27 -7.5 51t-32 61.5t-80 89t-142.5 115.5q-9 7 -39.5 28.5t-50.5 37.5q-12 10 -27 10 q-19 0 -34 -10q-111 -62 -111 -166z" />
<glyph unicode="&#xa8;" horiz-adv-x="593" d="M55 1241q0 39 26.5 64.5t63.5 25.5q36 0 61 -25t25 -65q0 -38 -25.5 -63t-62.5 -25q-36 0 -62 24.5t-26 63.5zM360 1241q0 39 27.5 64.5t65.5 25.5q37 0 61.5 -24.5t24.5 -65.5q0 -38 -25.5 -63t-62.5 -25q-36 0 -63.5 25t-27.5 63z" />
<glyph unicode="&#xa9;" horiz-adv-x="1648" d="M125 682q0 195 94.5 357t257 254.5t357.5 92.5q194 0 353.5 -90.5t251 -250.5t91.5 -355q0 -201 -92 -366.5t-251 -260t-351 -94.5q-150 0 -282.5 55t-226.5 150t-148 227t-54 281zM197 682q0 -135 49.5 -255t135 -206t204 -136t252.5 -50q173 0 315.5 85.5t223.5 232.5 t81 323q0 181 -80.5 329.5t-224.5 234t-322 85.5t-323.5 -85.5t-228 -233t-82.5 -324.5zM414 672q0 118 50.5 216t152 159t237.5 61q120 0 229 -31q35 -12 35 -39q0 -34 8.5 -98.5t8.5 -71.5q0 -10 -9.5 -16t-21.5 -6q-28 0 -35 24q-21 81 -45 117q-18 27 -56 41t-128 14 q-133 0 -218 -91t-85 -265q0 -175 90 -273t227 -98q123 0 180 72q17 20 49 105q10 24 33 24q13 0 23 -6.5t10 -20.5q0 -17 -11.5 -69.5t-23.5 -77.5q-14 -27 -49 -43q-96 -49 -217 -49q-86 0 -158 23.5t-122.5 63.5t-85.5 94.5t-51.5 115t-16.5 125.5z" />
<glyph unicode="&#xaa;" horiz-adv-x="653" d="M63 713q0 70 62 104q59 35 225 64q28 5 38.5 13.5t10.5 29.5q0 112 -22 137q-26 33 -80 33q-38 0 -77.5 -25.5t-39.5 -56.5q0 -15 5 -30.5t5 -23.5q0 -19 -14 -28.5t-35 -9.5q-49 0 -49 51q0 47 60 102q103 84 198 84q80 0 111 -38t31 -124q0 -27 -2.5 -122.5 t-2.5 -141.5q0 -59 14.5 -80.5t41.5 -21.5q13 0 23.5 7.5t13.5 18.5q8 15 22 15q10 0 16.5 -7.5t6.5 -15.5q0 -11 -15 -33q-41 -47 -104 -47q-73 0 -96 60q-4 12 -13 12q-6 0 -18 -12q-64 -64 -148 -64q-75 0 -121.5 42t-46.5 108zM160 717q0 -37 25 -61.5t79 -24.5 q58 0 109 45q28 28 28 84v14v14.5v13t-1.5 12t-3.5 9t-6 6.5t-9 2q-71 0 -154 -32q-67 -26 -67 -82z" />
<glyph unicode="&#xab;" horiz-adv-x="919" d="M57 506q0 15 6 24t25 21q193 137 342 260q8 6 16 12.5t11 9t6.5 4t7.5 1.5q10 0 21.5 -10t11.5 -19t-19 -33q-33 -39 -71.5 -79t-92 -92t-83.5 -83q-11 -11 -11 -16t9 -14q20 -20 78 -76.5t95.5 -95t71.5 -78.5q25 -31 25 -43q0 -9 -10.5 -19t-20.5 -10q-11 0 -53 35 q-129 110 -338 264q-27 19 -27 37zM422 506q0 15 6 23t25 20q127 92 342 262q32 27 45 27q9 0 19.5 -10t10.5 -19q0 -10 -18 -33q-32 -37 -69.5 -75.5t-95.5 -95t-85 -83.5q-10 -10 -10 -16t8 -14q17 -16 62.5 -60.5t67.5 -66t56.5 -57t61.5 -66.5q22 -28 22 -43 q0 -10 -9.5 -19.5t-20.5 -9.5q-12 0 -54 35q-131 111 -337 264q-27 19 -27 37z" />
<glyph unicode="&#xac;" horiz-adv-x="1314" d="M162 522v66q0 28 26 28h922q27 0 27 -28v-496q0 -26 -27 -26h-68q-28 0 -28 26v404h-826q-26 0 -26 26z" />
<glyph unicode="&#xad;" horiz-adv-x="567" d="M59 496q0 38 7 50.5t28 12.5h381q22 0 27.5 -11.5t5.5 -49.5q0 -41 -6 -53.5t-31 -12.5h-377q-24 0 -29.5 12t-5.5 52z" />
<glyph unicode="&#xae;" horiz-adv-x="1648" d="M125 682q0 195 94.5 357t257 254.5t357.5 92.5q194 0 353.5 -90.5t251 -250.5t91.5 -355q0 -201 -92 -366.5t-251 -260t-351 -94.5q-150 0 -282.5 55t-226.5 150t-148 227t-54 281zM197 682q0 -135 49.5 -255t135 -206t204 -136t252.5 -50q173 0 315.5 85.5t223.5 232.5 t81 323q0 181 -80.5 329.5t-224.5 234t-322 85.5t-323.5 -85.5t-228 -233t-82.5 -324.5zM475 309q0 12 7 20.5t16 8.5q2 0 14.5 -1t15.5 -1q46 0 62 29q18 36 18 106v434q0 82 -13 109.5t-67 27.5q-3 0 -14.5 -1t-13.5 -1q-9 0 -16 9.5t-7 21.5q0 14 6.5 23.5t18.5 9.5 q4 0 28 -1t59 -2t68 -1q15 0 67 2t79 2q309 0 309 -205q0 -77 -48 -133t-142 -82q-15 -2 -15 -10q0 -5 13 -10q51 -21 84 -80q72 -124 124 -191q29 -38 49 -51.5t42 -13.5q3 0 14 2t16 2q9 0 15 -7t6 -18q0 -23 -16.5 -30t-47.5 -7q-60 0 -102 16t-78 52q-28 30 -96 154 t-78 137q-8 9 -18.5 15t-21 9.5t-24 5.5t-25.5 2.5t-28 0.5q-22 0 -22 -31v-170q0 -23 2.5 -44.5t7 -38t10.5 -22.5q11 -11 24.5 -15.5t43.5 -4.5q1 0 12.5 1t13.5 1q23 0 23 -31q0 -13 -6.5 -22t-16.5 -9q-2 0 -29 2t-67 4.5t-74 2.5q-33 0 -70 -2.5t-62 -4.5t-27 -2 q-23 0 -23 33zM713 774q0 -22 8 -34t21.5 -15.5t37.5 -3.5q115 0 162 41.5t47 122.5q0 84 -47.5 121.5t-140.5 37.5q-19 0 -28 -0.5t-23 -2.5t-20.5 -6.5t-11.5 -13.5t-5 -22v-225z" />
<glyph unicode="&#xaf;" horiz-adv-x="595" d="M49 1180q0 35 10 48t31 13h410q25 0 36 -11t11 -46t-10 -47.5t-33 -12.5h-412q-23 0 -32.5 9.5t-10.5 46.5z" />
<glyph unicode="&#xb0;" horiz-adv-x="565" d="M49 1141q0 101 69.5 167t164.5 66q98 0 165.5 -62.5t67.5 -168.5t-69.5 -171t-163.5 -65q-102 0 -168 62.5t-66 171.5zM137 1141q0 -77 40.5 -119.5t107.5 -42.5q61 0 103 43t42 119t-39 119t-108 43q-63 0 -104.5 -43.5t-41.5 -118.5z" />
<glyph unicode="&#xb1;" horiz-adv-x="1314" d="M172 27v63q0 27 25 27h919q29 0 29 -27v-63q0 -27 -29 -27h-919q-25 0 -25 27zM172 723v63q0 25 25 25h399v403q0 27 29 27h65q25 0 25 -27v-403h401q29 0 29 -25v-63q0 -27 -29 -27h-401v-407q0 -25 -25 -25h-65q-29 0 -29 25v407h-399q-25 0 -25 27z" />
<glyph unicode="&#xb2;" horiz-adv-x="698" d="M39 848q0 18 24 35q230 151 321 263t91 240q0 72 -41 114t-112 42q-42 0 -75.5 -12.5t-49.5 -30.5q-32 -37 -39 -69q-4 -23 -31 -23q-14 0 -22.5 7.5t-8.5 19.5q0 15 10 45q23 52 82.5 93.5t161.5 41.5q114 0 177 -60.5t63 -167.5q0 -85 -38.5 -157.5t-152.5 -171.5 q-62 -54 -166 -123q-10 -8 -10 -12q0 -9 15 -9q59 -2 159 -2q76 0 110 8.5t43.5 23.5t16.5 54q4 23 29 23q10 0 17.5 -5t7.5 -14q0 -2 -7 -51q-6 -61 -6 -112q0 -7 -7 -13t-21 -6q-1 0 -35.5 1.5t-94 3t-122.5 1.5q-74 0 -133 -1.5t-90.5 -3t-38.5 -1.5q-27 0 -27 29z" />
<glyph unicode="&#xb3;" horiz-adv-x="698" d="M90 840q0 21 11.5 35t29.5 14q17 0 41 -12q26 -13 68 -13q109 0 173 49.5t64 143.5q0 76 -43.5 120t-120.5 44q-49 0 -86 -13q-18 -6 -30 -6t-18.5 11t-6.5 22q0 30 43 33q54 5 100 28q113 54 113 150q0 49 -29 76.5t-86 27.5q-46 0 -83.5 -26t-53.5 -64q-6 -18 -31 -18 q-30 0 -30 26q0 24 16 43q71 103 219 103q93 0 140 -43t47 -109q0 -117 -154 -176q-10 -5 -10 -10q0 -10 12 -10q104 -7 155.5 -56.5t51.5 -130.5q0 -86 -57.5 -153.5t-152 -103.5t-206.5 -36q-40 0 -63 14t-23 40z" />
<glyph unicode="&#xb4;" horiz-adv-x="600" d="M137 1100q0 12 15 35q9 15 37.5 59t43.5 67.5t38 62.5t42 73q32 59 76 59q32 0 53 -15t21 -44q0 -33 -35 -76q-59 -68 -215 -221q-27 -27 -43 -27q-13 0 -23 8t-10 19z" />
<glyph unicode="&#xb5;" horiz-adv-x="1212" d="M68 866q0 31 22 35q142 19 215 49q33 13 41 13q10 0 19.5 -9t9.5 -22q0 -3 -6.5 -54.5t-13.5 -142t-7 -188.5q0 -156 6.5 -232t26.5 -122q46 -109 205 -109q76 0 140 28t99 66q31 36 31 187v229v15v48t-1 39.5t-2.5 34.5t-5 27t-8 23.5t-12 17t-17 14.5t-22.5 9.5 t-29 7.5t-36 4q-27 0 -27 32q0 31 25 35q90 10 186 43q6 2 18 7t21.5 8.5t14.5 3.5q30 0 30 -29q0 -1 -3.5 -39t-7 -112t-3.5 -162v-332q0 -124 35 -162q20 -23 57 -23q9 0 35.5 6.5t36.5 6.5q24 0 24 -35q0 -27 -16 -33q-7 -2 -30 -8.5t-47 -13.5t-48 -15 q-29 -10 -56.5 -23t-43 -20.5t-23.5 -7.5q-23 0 -29 25q-2 11 -6.5 44t-7.5 52q-3 18 -16 18q-9 0 -43 -28q-67 -53 -124.5 -76t-133.5 -23q-100 0 -160 54q-14 14 -21 14q-14 0 -14 -18q0 -110 2 -173q3 -97 13 -163.5t18 -96.5t8 -45q0 -31 -18.5 -47t-67.5 -16 q-76 0 -76 72q0 288 1 535.5t1 289.5q0 24 1 142.5t1 150.5q0 64 -16 104q-21 50 -121 58q-10 0 -17 9t-7 23z" />
<glyph unicode="&#xb6;" horiz-adv-x="1050" d="M129 721q0 220 148 355t401 157q31 3 43 33q56 125 158 125q63 0 63 -54q0 -46 -45 -49q-75 -7 -100 -43q-25 -39 -25 -115v-985q0 -150 -20.5 -262t-79.5 -196q-59 -87 -150 -139t-188 -52q-29 0 -48.5 16t-19.5 39q0 33 13.5 48.5t48.5 15.5q3 0 24.5 -7t46.5 -7 q93 0 167.5 81t97.5 207q16 81 16 330q0 29 -8.5 41t-32.5 12q-4 0 -27 -1t-41 -1q-67 0 -129.5 16t-119.5 51.5t-100 87.5t-68 128t-25 168z" />
<glyph unicode="&#xb7;" horiz-adv-x="446" d="M117 553q0 50 30.5 80.5t77.5 30.5q48 0 76.5 -29t28.5 -80q0 -45 -30.5 -78t-76.5 -33q-48 0 -77 28.5t-29 80.5z" />
<glyph unicode="&#xb8;" horiz-adv-x="583" d="M115 -487q0 20 11.5 29t41.5 9q82 0 134 34.5t52 99.5q0 38 -24.5 61.5t-81.5 38.5q-13 3 -22 13.5t-9 23.5q0 19 19 61q24 56 65 127h61q-49 -98 -49 -116t23 -27q65 -20 100 -55.5t35 -96.5q0 -57 -29.5 -104t-76.5 -75.5t-101 -44t-106 -15.5q-23 0 -33 8.5t-10 28.5z " />
<glyph unicode="&#xb9;" horiz-adv-x="698" d="M180 1520q0 23 17 26q40 6 87.5 23.5t75.5 34.5q27 16 39 16q21 0 21 -27q0 -3 -1 -19t-1 -28q-4 -63 -4 -170v-375q0 -87 16 -106q19 -23 72 -23q3 0 15.5 1t14.5 1q21 0 21 -28q0 -11 -7 -19t-18 -8q-3 0 -24.5 2t-56 4t-68.5 2q-33 0 -73.5 -2t-69.5 -4t-33 -2 q-21 0 -21 29q0 12 5.5 19t13.5 7q3 0 16 -1t16 -1q57 0 70.5 26.5t13.5 100.5v363q0 97 -12 121q-7 14 -33 14q-16 0 -43.5 -2t-29.5 -2q-19 0 -19 27z" />
<glyph unicode="&#xba;" horiz-adv-x="727" d="M72 850q0 143 85.5 226t213.5 83q132 0 208 -79.5t76 -205.5q0 -136 -79 -224.5t-218 -88.5q-132 0 -209 83.5t-77 205.5zM176 870q0 -119 51 -189.5t138 -70.5q91 0 137.5 65t46.5 183q0 117 -47.5 181.5t-134.5 64.5q-90 0 -140.5 -61t-50.5 -173z" />
<glyph unicode="&#xbb;" horiz-adv-x="919" d="M51 199q0 10 19 34q32 38 70 76.5t94 92.5t85 83q11 11 11 17q0 7 -11 18q-164 156 -245 248q-23 29 -23 43q0 8 10 17.5t21 9.5q14 0 53 -33q145 -123 338 -266q27 -19 27 -37q0 -14 -5.5 -21.5t-25.5 -21.5q-145 -103 -342 -262q-7 -5 -13.5 -10.5t-10 -8t-7 -4.5 t-6 -3t-6.5 -1q-9 0 -21 10t-12 19zM416 811q0 8 9.5 17.5t20.5 9.5q12 0 52 -33q181 -148 340 -266q26 -18 26 -37q0 -15 -5.5 -23t-24.5 -20q-93 -67 -340 -262q-36 -27 -43 -27q-10 0 -21.5 10t-11.5 19q0 14 18 34q43 48 127 130.5t121 121.5q10 10 10 17q0 8 -10 18 q-159 152 -244 248q-24 30 -24 43z" />
<glyph unicode="&#xbc;" horiz-adv-x="1597" d="M182 1204q0 24 17 27q100 18 163 59q30 15 41 15q21 0 21 -27q0 -1 -1 -18t-1 -29q-4 -63 -4 -170v-375q0 -88 16 -104q16 -23 72 -23q3 0 16 1t15 1q18 0 18 -29q0 -28 -23 -28q-3 0 -24.5 2t-56 4t-68.5 2q-32 0 -73.5 -2t-71 -4t-33.5 -2q-21 0 -21 28q0 12 5.5 20.5 t13.5 8.5q3 0 16.5 -1t16.5 -1q57 0 70 25.5t13 99.5v363q0 99 -12 120q-7 15 -33 15q-16 0 -43.5 -2t-29.5 -2q-19 0 -19 26zM485 18q0 8 11 35l516 1182q13 33 49 33q14 0 22 -4t9.5 -8.5t1.5 -12.5q0 -11 -7 -29l-522 -1189q-6 -16 -16 -22.5t-29 -6.5q-35 0 -35 22z M852 231q0 21 14 35q101 131 394 514q18 23 45 23q32 0 32 -31q0 -4 -1 -41t-1 -78v-350q0 -10 4 -14t17 -4h78q17 0 22.5 -8t5.5 -31q0 -27 -5 -34t-23 -7h-80q-10 0 -13.5 -5t-3.5 -20v-180q0 -18 -10 -24.5t-37 -6.5q-32 0 -42.5 5.5t-10.5 25.5v178q0 25 -25 25h-325 q-35 0 -35 28zM975 291q0 -10 16 -10h217q19 0 24 4.5t5 17.5q0 121 1 218.5t1 101.5q0 14 -8 14q-3 0 -5 -2t-4.5 -6t-4.5 -6q-44 -60 -121.5 -162.5t-116.5 -155.5q-4 -8 -4 -14z" />
<glyph unicode="&#xbd;" horiz-adv-x="1597" d="M182 1204q0 24 17 27q100 18 163 59q30 15 41 15q21 0 21 -27q0 -1 -1 -18t-1 -29q-4 -63 -4 -170v-375q0 -88 16 -104q16 -23 72 -23q3 0 16 1t15 1q18 0 18 -29q0 -28 -23 -28q-3 0 -24.5 2t-56 4t-68.5 2q-32 0 -73.5 -2t-71 -4t-33.5 -2q-21 0 -21 28q0 12 5.5 20.5 t13.5 8.5q3 0 16.5 -1t16.5 -1q57 0 70 25.5t13 99.5v363q0 99 -12 120q-7 15 -33 15q-16 0 -43.5 -2t-29.5 -2q-19 0 -19 26zM481 18q0 8 11 35l516 1182q13 33 49 33q14 0 22 -4t9.5 -8.5t1.5 -12.5q0 -11 -7 -29l-522 -1189q-6 -16 -16 -22.5t-29 -6.5q-35 0 -35 22z M901 29q0 16 25 34q230 151 320.5 263t90.5 241q0 72 -41 114t-112 42q-42 0 -75.5 -12.5t-49.5 -30.5q-31 -36 -39 -70q-4 -22 -31 -22q-14 0 -22.5 7t-8.5 19t11 45q10 22 27 43t45 43.5t72.5 36t98.5 13.5q114 0 177 -60.5t63 -167.5q0 -86 -38 -158t-152 -171 q-62 -54 -166 -123q-11 -8 -11 -13q0 -8 15 -8q59 -2 160 -2q76 0 110 8.5t43.5 23.5t16.5 54q4 23 28 23q10 0 17.5 -5t7.5 -14t-6 -51q-7 -72 -7 -113q0 -18 -28 -18q-1 0 -35.5 1.5t-94 3t-122.5 1.5q-74 0 -133 -1.5t-90.5 -3t-38.5 -1.5q-27 0 -27 29z" />
<glyph unicode="&#xbe;" horiz-adv-x="1597" d="M127 524q0 21 11.5 35t29.5 14q17 0 41 -12t67 -12q109 0 173.5 49t64.5 143q0 76 -43.5 120t-120.5 44q-52 0 -86 -12q-18 -6 -31 -6q-12 0 -18 10.5t-6 22.5q0 29 43 32q51 5 100 29q113 54 113 149q0 49 -29 77t-86 28q-46 0 -83.5 -26t-53.5 -64q-6 -19 -31 -19 q-13 0 -21.5 7.5t-8.5 19.5q0 24 16 43q74 102 219 102q93 0 139.5 -42.5t46.5 -108.5q0 -117 -153 -176q-10 -3 -10 -10q0 -11 12 -11q104 -7 155.5 -56t51.5 -128q0 -86 -57.5 -154t-152 -104.5t-206.5 -36.5q-40 0 -63 14t-23 39zM496 18q0 10 10 35l516 1182 q13 33 49 33q14 0 22 -4t9.5 -8.5t1.5 -12.5q0 -14 -6 -29l-523 -1189q-6 -16 -16 -22.5t-29 -6.5q-21 0 -27.5 5.5t-6.5 16.5zM852 231q0 21 14 35q101 131 394 514q18 23 45 23q32 0 32 -31q0 -4 -1 -41t-1 -78v-350q0 -10 4 -14t17 -4h78q17 0 22.5 -8t5.5 -31 q0 -27 -5 -34t-23 -7h-80q-10 0 -13.5 -5t-3.5 -20v-180q0 -18 -10 -24.5t-37 -6.5q-32 0 -42.5 5.5t-10.5 25.5v178q0 25 -25 25h-325q-35 0 -35 28zM975 291q0 -10 16 -10h217q19 0 24 4.5t5 17.5q0 121 1 218.5t1 101.5q0 14 -8 14q-3 0 -5 -2t-4.5 -6t-4.5 -6 q-44 -60 -121.5 -162.5t-116.5 -155.5q-4 -8 -4 -14z" />
<glyph unicode="&#xbf;" horiz-adv-x="899" d="M72 -162q0 110 46.5 184t186.5 162q37 23 53.5 34t43.5 33t39 39.5t22 43t10 53.5q0 26 -10 63.5t-10 53.5q0 35 43 35q30 0 41 -35q22 -77 22 -142q0 -57 -18 -97t-53.5 -74.5t-112.5 -92.5q-83 -62 -115.5 -118.5t-32.5 -133.5q0 -98 55.5 -153t151.5 -55 q197 0 197 145q0 6 -1 27.5t-1 27.5q0 35 23 54.5t57 19.5q77 0 77 -98q0 -45 -24 -90t-68 -83t-117 -61.5t-161 -23.5q-158 0 -251 76.5t-93 205.5zM365 840q0 47 30 79.5t76 32.5q49 0 78 -28.5t29 -81.5q0 -49 -30.5 -79t-78.5 -30q-46 0 -75 29t-29 78z" />
<glyph unicode="&#xc0;" horiz-adv-x="1447" d="M10 31q0 41 29 41q5 0 17 -1t20 -1q57 0 86 41q43 62 88 170q76 187 218.5 526t168.5 403q22 63 25 99q3 30 30 41q61 26 72 26q18 0 24 -26q3 -10 43 -119q55 -150 371 -948q49 -127 84 -174q29 -39 90 -39q6 0 17 1t16 1q31 0 31 -37q0 -39 -29 -39q-4 0 -82 4t-129 4 q-50 0 -162.5 -4t-113.5 -4q-31 0 -31 37q0 39 29 39q2 0 17 -1t19 -1q71 0 100 14t29 49q0 43 -43 152l-69 180q-16 38 -29 50.5t-43 12.5h-409q-25 0 -36 -10.5t-22 -38.5l-78 -196q-49 -123 -49 -162q0 -28 27 -39.5t92 -11.5q9 0 26.5 1t20.5 1q12 0 19.5 -10t7.5 -25 q0 -41 -31 -41q-2 0 -103 4t-151 4q-48 0 -113 -4t-69 -4q-11 0 -18 10.5t-7 24.5zM459 1706q0 31 19.5 48.5t45.5 17.5q22 0 39.5 -10.5t44.5 -35.5q90 -87 240 -217q22 -22 22 -36q0 -12 -9 -21.5t-21 -9.5q-19 0 -49 18q-182 100 -279 170q-53 37 -53 76zM498 637 q0 -18 13.5 -23.5t55.5 -5.5h281q34 0 46.5 6t12.5 23t-12 45l-170 438q-5 13 -7.5 17t-8.5 4q-9 0 -21 -27l-176 -432q-14 -33 -14 -45z" />
<glyph unicode="&#xc1;" horiz-adv-x="1447" d="M10 31q0 41 29 41q5 0 17 -1t20 -1q57 0 86 41q43 62 88 170q76 187 218.5 526t168.5 403q22 63 25 99q3 30 30 41q61 26 72 26q18 0 24 -26q3 -10 43 -119q55 -150 371 -948q49 -127 84 -174q29 -39 90 -39q6 0 17 1t16 1q31 0 31 -37q0 -39 -29 -39q-4 0 -82 4t-129 4 q-50 0 -162.5 -4t-113.5 -4q-31 0 -31 37q0 39 29 39q2 0 17 -1t19 -1q71 0 100 14t29 49q0 43 -43 152l-69 180q-16 38 -29 50.5t-43 12.5h-409q-25 0 -36 -10.5t-22 -38.5l-78 -196q-49 -123 -49 -162q0 -28 27 -39.5t92 -11.5q9 0 26.5 1t20.5 1q12 0 19.5 -10t7.5 -25 q0 -41 -31 -41q-2 0 -103 4t-151 4q-48 0 -113 -4t-69 -4q-11 0 -18 10.5t-7 24.5zM498 637q0 -18 13.5 -23.5t55.5 -5.5h281q34 0 46.5 6t12.5 23t-12 45l-170 438q-5 13 -7.5 17t-8.5 4q-9 0 -21 -27l-176 -432q-14 -33 -14 -45zM567 1473q0 13 23 36q110 95 239 217 q28 26 45 36t39 10q27 0 46.5 -17.5t19.5 -48.5q0 -39 -53 -76q-97 -70 -279 -170q-30 -18 -49 -18q-11 0 -21 9.5t-10 21.5z" />
<glyph unicode="&#xc2;" horiz-adv-x="1447" d="M10 31q0 41 29 41q5 0 17 -1t20 -1q57 0 86 41q43 62 88 170q76 187 218.5 526t168.5 403q22 63 25 99q3 30 30 41q61 26 72 26q18 0 24 -26q3 -10 43 -119q55 -150 371 -948q49 -127 84 -174q29 -39 90 -39q6 0 17 1t16 1q31 0 31 -37q0 -39 -29 -39q-4 0 -82 4t-129 4 q-50 0 -162.5 -4t-113.5 -4q-31 0 -31 37q0 39 29 39q2 0 17 -1t19 -1q71 0 100 14t29 49q0 43 -43 152l-69 180q-16 38 -29 50.5t-43 12.5h-409q-25 0 -36 -10.5t-22 -38.5l-78 -196q-49 -123 -49 -162q0 -28 27 -39.5t92 -11.5q9 0 26.5 1t20.5 1q12 0 19.5 -10t7.5 -25 q0 -41 -31 -41q-2 0 -103 4t-151 4q-48 0 -113 -4t-69 -4q-11 0 -18 10.5t-7 24.5zM467 1448q0 12 10 25q22 23 59.5 65t90 102t82.5 93q20 26 45 26q24 0 43 -24q51 -60 135.5 -157t91.5 -105q12 -14 12 -25q0 -10 -9.5 -19.5t-20.5 -9.5q-13 0 -37 17q-3 3 -40.5 32 t-83 64.5t-69.5 56.5q-12 10 -24 10q-11 0 -23 -12q-160 -125 -199 -153q-18 -15 -34 -15q-10 0 -19.5 10t-9.5 19zM498 637q0 -18 13.5 -23.5t55.5 -5.5h281q34 0 46.5 6t12.5 23t-12 45l-170 438q-5 13 -7.5 17t-8.5 4q-9 0 -21 -27l-176 -432q-14 -33 -14 -45z" />
<glyph unicode="&#xc3;" horiz-adv-x="1447" d="M10 31q0 41 29 41q5 0 17 -1t20 -1q57 0 86 41q43 62 88 170q76 187 218.5 526t168.5 403q22 63 25 99q3 30 30 41q61 26 72 26q18 0 24 -26q3 -10 43 -119q55 -150 371 -948q49 -127 84 -174q29 -39 90 -39q6 0 17 1t16 1q31 0 31 -37q0 -39 -29 -39q-4 0 -82 4t-129 4 q-50 0 -162.5 -4t-113.5 -4q-31 0 -31 37q0 39 29 39q2 0 17 -1t19 -1q71 0 100 14t29 49q0 43 -43 152l-69 180q-16 38 -29 50.5t-43 12.5h-409q-25 0 -36 -10.5t-22 -38.5l-78 -196q-49 -123 -49 -162q0 -28 27 -39.5t92 -11.5q9 0 26.5 1t20.5 1q12 0 19.5 -10t7.5 -25 q0 -41 -31 -41q-2 0 -103 4t-151 4q-48 0 -113 -4t-69 -4q-11 0 -18 10.5t-7 24.5zM438 1485q0 15 8 39q31 92 74 125.5t96 33.5q51 0 156 -55q78 -41 131 -41q58 0 78 84q8 25 31 25q32 0 32 -29q0 -11 -6 -29q-24 -88 -58 -128t-89 -40q-70 0 -156 48q-87 47 -143 47 q-32 0 -52.5 -19.5t-39.5 -68.5q-6 -19 -29 -19q-13 0 -23 7t-10 20zM498 637q0 -18 13.5 -23.5t55.5 -5.5h281q34 0 46.5 6t12.5 23t-12 45l-170 438q-5 13 -7.5 17t-8.5 4q-9 0 -21 -27l-176 -432q-14 -33 -14 -45z" />
<glyph unicode="&#xc4;" horiz-adv-x="1447" d="M10 31q0 41 29 41q5 0 17 -1t20 -1q57 0 86 41q43 62 88 170q76 187 218.5 526t168.5 403q22 63 25 99q3 30 30 41q61 26 72 26q18 0 24 -26q3 -10 43 -119q55 -150 371 -948q49 -127 84 -174q29 -39 90 -39q6 0 17 1t16 1q31 0 31 -37q0 -39 -29 -39q-4 0 -82 4t-129 4 q-50 0 -162.5 -4t-113.5 -4q-31 0 -31 37q0 39 29 39q2 0 17 -1t19 -1q71 0 100 14t29 49q0 43 -43 152l-69 180q-16 38 -29 50.5t-43 12.5h-409q-25 0 -36 -10.5t-22 -38.5l-78 -196q-49 -123 -49 -162q0 -28 27 -39.5t92 -11.5q9 0 26.5 1t20.5 1q12 0 19.5 -10t7.5 -25 q0 -41 -31 -41q-2 0 -103 4t-151 4q-48 0 -113 -4t-69 -4q-11 0 -18 10.5t-7 24.5zM496 1532q0 39 25.5 64.5t62.5 25.5t61.5 -25.5t24.5 -64.5q0 -40 -25 -65t-63 -25q-35 0 -60.5 25t-25.5 65zM498 637q0 -18 13.5 -23.5t55.5 -5.5h281q34 0 46.5 6t12.5 23t-12 45 l-170 438q-5 13 -7.5 17t-8.5 4q-9 0 -21 -27l-176 -432q-14 -33 -14 -45zM819 1532q0 39 26.5 64.5t63.5 25.5t61.5 -25.5t24.5 -64.5q0 -40 -25 -65t-63 -25q-35 0 -61.5 25t-26.5 65z" />
<glyph unicode="&#xc5;" horiz-adv-x="1447" d="M10 31q0 41 29 41q5 0 17 -1t20 -1q57 0 86 41q43 62 88 170q76 187 218.5 526t168.5 403q22 63 25 99q3 30 30 41q61 26 72 26q18 0 24 -26q3 -10 43 -119q55 -150 371 -948q49 -127 84 -174q29 -39 90 -39q6 0 17 1t16 1q31 0 31 -37q0 -39 -29 -39q-4 0 -82 4t-129 4 q-50 0 -162.5 -4t-113.5 -4q-31 0 -31 37q0 39 29 39q2 0 17 -1t19 -1q71 0 100 14t29 49q0 43 -43 152l-69 180q-16 38 -29 50.5t-43 12.5h-409q-25 0 -36 -10.5t-22 -38.5l-78 -196q-49 -123 -49 -162q0 -28 27 -39.5t92 -11.5q9 0 26.5 1t20.5 1q12 0 19.5 -10t7.5 -25 q0 -41 -31 -41q-2 0 -103 4t-151 4q-48 0 -113 -4t-69 -4q-11 0 -18 10.5t-7 24.5zM498 637q0 -18 13.5 -23.5t55.5 -5.5h281q34 0 46.5 6t12.5 23t-12 45l-170 438q-5 13 -7.5 17t-8.5 4q-9 0 -21 -27l-176 -432q-14 -33 -14 -45zM557 1602q0 79 53.5 132.5t130.5 53.5 q83 0 133 -48t50 -130q0 -85 -52.5 -137t-132.5 -52q-84 0 -133 50t-49 131zM631 1604q0 -52 31 -84.5t77 -32.5q49 0 81 31.5t32 85.5q0 57 -31 88.5t-82 31.5q-46 0 -77 -32.5t-31 -87.5z" />
<glyph unicode="&#xc6;" horiz-adv-x="2021" d="M4 33q0 39 37 39q5 0 20 -1t23 -1q57 0 98 41q62 62 142 174q425 592 630 925q13 23 13 41q0 8 -5 14t-14.5 9.5t-18.5 6t-24 3t-22.5 0.5h-21.5h-15q-4 0 -24 -1t-27 -1q-13 0 -21 11.5t-8 27.5q0 37 33 37q7 0 69 -2.5t144.5 -5t138.5 -2.5q169 0 388 3t269 3 q33 0 33 -37q1 -34 2.5 -93.5t2.5 -99.5t1 -45q0 -30 -35 -30t-38 26q-7 111 -48 152q-26 27 -76 35t-145 8q-157 0 -227 -6q-19 -2 -28 -14t-9 -40v-417q0 -31 18.5 -39.5t63.5 -8.5q144 0 199 19q28 10 44.5 40.5t26.5 100.5q4 33 41 33q33 0 33 -31l-6 -80 q-6 -80 -6 -133q0 -40 3 -105.5t3 -80.5q0 -29 -35 -29q-15 0 -25 8.5t-12 20.5q-9 112 -57 141q-34 19 -221 19q-41 0 -55.5 -10.5t-14.5 -39.5v-372q0 -82 14 -105q24 -35 92 -46t203 -11q172 0 222 37q35 26 59 68.5t47 109.5q11 25 39 25q37 0 37 -27q0 -18 -21.5 -110 t-36.5 -140q-17 -51 -63 -51q-90 0 -258 4t-307 4q-55 0 -132.5 -2t-135 -4t-64.5 -2q-11 0 -20 8.5t-9 26.5q0 19 8 30t21 11q4 0 21 -1t22 -1q79 0 102 41q21 40 21 174v184q0 39 -9.5 51t-39.5 12h-394q-26 0 -42 -10.5t-35 -38.5l-127 -194q-88 -133 -88 -178 q0 -22 18.5 -31.5t69.5 -9.5q8 0 27.5 1t27.5 1q27 0 27 -41q0 -35 -35 -35q-2 0 -115.5 4t-163.5 4q-48 0 -111 -4t-67 -4q-22 0 -31.5 8t-9.5 29zM698 633q0 -12 12.5 -17.5t45.5 -5.5h270q47 0 60.5 15t13.5 59v520q0 21 -13 21q-10 0 -26 -27l-326 -493 q-1 -2 -9.5 -14.5t-13 -20.5t-9.5 -19t-5 -18z" />
<glyph unicode="&#xc7;" horiz-adv-x="1409" d="M102 659q0 156 49 287t140.5 227t232.5 149.5t316 53.5q68 0 130.5 -6.5t93.5 -12.5t81.5 -18.5t62.5 -15.5q54 -10 54 -49q1 -56 13.5 -152t12.5 -108q0 -35 -41 -35q-35 0 -41 25q-24 129 -76 190q-41 46 -113 72t-220 26q-112 0 -209 -39t-171.5 -113t-117.5 -192 t-43 -266q0 -284 156 -453.5t411 -169.5q207 0 316 113q51 51 98 170q10 29 41 29q35 0 35 -29q0 -28 -20 -106t-40 -115q-22 -42 -71 -66q-154 -77 -373 -80q-10 0 -21 -8.5t-14 -19.5q-20 -41 -20 -58t22 -26q69 -22 105.5 -58.5t36.5 -99.5q0 -76 -53.5 -135t-126.5 -86 t-146 -27q-47 0 -47 39q0 41 57 41q86 0 140.5 35.5t54.5 101.5q0 39 -26 63.5t-87 41.5q-33 11 -33 37q0 20 21 63q5 10 12 23.5t10.5 19.5t7 14t4.5 13.5t1 11.5q0 17 -25 21q-187 22 -320 117.5t-196.5 238.5t-63.5 321z" />
<glyph unicode="&#xc8;" horiz-adv-x="1183" d="M70 33q0 39 26 39q4 0 22 -1t23 -1q78 0 101 41q20 38 20 174v784q0 142 -20 176q-24 39 -105 39q-5 0 -22 -1t-19 -1q-26 0 -26 35q0 41 30 41q7 0 55.5 -2.5t117 -5t124.5 -2.5q169 0 347 3t227 3q33 0 33 -39q1 -34 2.5 -93t2.5 -98.5t1 -44.5q0 -30 -35 -30 q-36 0 -39 28q-7 110 -49 152q-25 27 -73 34t-146 7q-30 0 -118 -2t-112 -2q-37 0 -37 -54v-419q0 -31 17.5 -39.5t62.5 -8.5q148 0 203 19q60 20 72 143q3 31 39 31q34 0 34 -31l-6 -79q-6 -79 -6 -132q0 -40 3 -106.5t3 -81.5q0 -12 -9 -20.5t-26 -8.5q-32 0 -36 29 q-9 110 -60 141q-34 19 -221 19q-41 0 -55.5 -10.5t-14.5 -39.5v-372q0 -81 17 -105q24 -35 91.5 -46t201.5 -11q171 0 221 37q36 25 59.5 67t48.5 109q4 9 7 13.5t10.5 9t19.5 4.5q39 0 39 -27q0 -19 -21 -109.5t-36 -138.5q-18 -53 -64 -53q-90 0 -265 3t-314 3 q-55 0 -129 -1.5t-128 -3t-61 -1.5q-28 0 -28 37zM326 1706q0 31 19.5 48.5t45.5 17.5q22 0 39.5 -10.5t44.5 -35.5q90 -87 240 -217q22 -22 22 -36q0 -12 -9 -21.5t-21 -9.5q-20 0 -50 18q-177 97 -278 170q-53 37 -53 76z" />
<glyph unicode="&#xc9;" horiz-adv-x="1183" d="M70 33q0 39 26 39q4 0 22 -1t23 -1q78 0 101 41q20 38 20 174v784q0 142 -20 176q-24 39 -105 39q-5 0 -22 -1t-19 -1q-26 0 -26 35q0 41 30 41q7 0 55.5 -2.5t117 -5t124.5 -2.5q169 0 347 3t227 3q33 0 33 -39q1 -34 2.5 -93t2.5 -98.5t1 -44.5q0 -30 -35 -30 q-36 0 -39 28q-7 110 -49 152q-25 27 -73 34t-146 7q-30 0 -118 -2t-112 -2q-37 0 -37 -54v-419q0 -31 17.5 -39.5t62.5 -8.5q148 0 203 19q60 20 72 143q3 31 39 31q34 0 34 -31l-6 -79q-6 -79 -6 -132q0 -40 3 -106.5t3 -81.5q0 -12 -9 -20.5t-26 -8.5q-32 0 -36 29 q-9 110 -60 141q-34 19 -221 19q-41 0 -55.5 -10.5t-14.5 -39.5v-372q0 -81 17 -105q24 -35 91.5 -46t201.5 -11q171 0 221 37q36 25 59.5 67t48.5 109q4 9 7 13.5t10.5 9t19.5 4.5q39 0 39 -27q0 -19 -21 -109.5t-36 -138.5q-18 -53 -64 -53q-90 0 -265 3t-314 3 q-55 0 -129 -1.5t-128 -3t-61 -1.5q-28 0 -28 37zM455 1473q0 14 22 36q122 105 240 217q28 26 45 36t39 10q26 0 45.5 -17.5t19.5 -48.5q0 -39 -53 -76q-101 -73 -278 -170q-30 -18 -50 -18q-11 0 -20.5 9.5t-9.5 21.5z" />
<glyph unicode="&#xca;" horiz-adv-x="1183" d="M70 33q0 39 26 39q4 0 22 -1t23 -1q78 0 101 41q20 38 20 174v784q0 142 -20 176q-24 39 -105 39q-5 0 -22 -1t-19 -1q-26 0 -26 35q0 41 30 41q7 0 55.5 -2.5t117 -5t124.5 -2.5q169 0 347 3t227 3q33 0 33 -39q1 -34 2.5 -93t2.5 -98.5t1 -44.5q0 -30 -35 -30 q-36 0 -39 28q-7 110 -49 152q-25 27 -73 34t-146 7q-30 0 -118 -2t-112 -2q-37 0 -37 -54v-419q0 -31 17.5 -39.5t62.5 -8.5q148 0 203 19q60 20 72 143q3 31 39 31q34 0 34 -31l-6 -79q-6 -79 -6 -132q0 -40 3 -106.5t3 -81.5q0 -12 -9 -20.5t-26 -8.5q-32 0 -36 29 q-9 110 -60 141q-34 19 -221 19q-41 0 -55.5 -10.5t-14.5 -39.5v-372q0 -81 17 -105q24 -35 91.5 -46t201.5 -11q171 0 221 37q36 25 59.5 67t48.5 109q4 9 7 13.5t10.5 9t19.5 4.5q39 0 39 -27q0 -19 -21 -109.5t-36 -138.5q-18 -53 -64 -53q-90 0 -265 3t-314 3 q-55 0 -129 -1.5t-128 -3t-61 -1.5q-28 0 -28 37zM307 1448q0 12 10 25q22 23 59.5 65t90 102t82.5 93q20 26 45 26q24 0 43 -24q51 -60 135.5 -157t91.5 -105q13 -16 13 -25q0 -10 -10 -19.5t-21 -9.5q-13 0 -37 17q-3 3 -40.5 32t-83 64.5t-69.5 56.5q-12 10 -24 10 q-11 0 -23 -12q-173 -135 -198 -153q-18 -15 -35 -15q-10 0 -19.5 10t-9.5 19z" />
<glyph unicode="&#xcb;" horiz-adv-x="1183" d="M70 33q0 39 26 39q4 0 22 -1t23 -1q78 0 101 41q20 38 20 174v784q0 142 -20 176q-24 39 -105 39q-5 0 -22 -1t-19 -1q-26 0 -26 35q0 41 30 41q7 0 55.5 -2.5t117 -5t124.5 -2.5q169 0 347 3t227 3q33 0 33 -39q1 -34 2.5 -93t2.5 -98.5t1 -44.5q0 -30 -35 -30 q-36 0 -39 28q-7 110 -49 152q-25 27 -73 34t-146 7q-30 0 -118 -2t-112 -2q-37 0 -37 -54v-419q0 -31 17.5 -39.5t62.5 -8.5q148 0 203 19q60 20 72 143q3 31 39 31q34 0 34 -31l-6 -79q-6 -79 -6 -132q0 -40 3 -106.5t3 -81.5q0 -12 -9 -20.5t-26 -8.5q-32 0 -36 29 q-9 110 -60 141q-34 19 -221 19q-41 0 -55.5 -10.5t-14.5 -39.5v-372q0 -81 17 -105q24 -35 91.5 -46t201.5 -11q171 0 221 37q36 25 59.5 67t48.5 109q4 9 7 13.5t10.5 9t19.5 4.5q39 0 39 -27q0 -19 -21 -109.5t-36 -138.5q-18 -53 -64 -53q-90 0 -265 3t-314 3 q-55 0 -129 -1.5t-128 -3t-61 -1.5q-28 0 -28 37zM348 1532q0 39 25.5 64.5t62.5 25.5t61.5 -25.5t24.5 -64.5q0 -40 -25 -65t-63 -25q-35 0 -60.5 25t-25.5 65zM672 1532q0 39 26.5 64.5t63.5 25.5t61.5 -25.5t24.5 -64.5q0 -40 -25 -65t-63 -25q-35 0 -61.5 25t-26.5 65z " />
<glyph unicode="&#xcc;" horiz-adv-x="667" d="M66 1706q0 31 19.5 48.5t45.5 17.5q22 0 39.5 -10.5t44.5 -35.5q90 -87 240 -217q22 -22 22 -36q0 -12 -9.5 -21.5t-21.5 -9.5q-19 0 -49 18q-177 97 -278 170q-53 37 -53 76zM70 37q0 14 7 24.5t19 10.5q2 0 16 -1t19 -1q94 0 111 41q20 38 20 184v764q0 150 -20 184 q-21 41 -105 41q-5 0 -22 -1t-19 -1q-26 0 -26 35q0 41 30 41q7 0 44 -3t94.5 -6t113.5 -3t104.5 3t76 6t32.5 3q33 0 33 -37q0 -39 -31 -39q-3 0 -16 1t-16 1q-73 0 -103 -37q-29 -32 -29 -192v-762q0 -153 29 -189q27 -34 100 -34q4 0 18 1t17 1q31 0 31 -37 q0 -39 -31 -39q-5 0 -36.5 3t-83.5 6t-107 3q-56 0 -112.5 -3t-92 -6t-39.5 -3q-26 0 -26 41z" />
<glyph unicode="&#xcd;" horiz-adv-x="667" d="M70 37q0 14 7 24.5t19 10.5q2 0 16 -1t19 -1q94 0 111 41q20 38 20 184v764q0 150 -20 184q-21 41 -105 41q-5 0 -22 -1t-19 -1q-26 0 -26 35q0 41 30 41q7 0 44 -3t94.5 -6t113.5 -3t104.5 3t76 6t32.5 3q33 0 33 -37q0 -39 -31 -39q-3 0 -16 1t-16 1q-73 0 -103 -37 q-29 -32 -29 -192v-762q0 -153 29 -189q27 -34 100 -34q4 0 18 1t17 1q31 0 31 -37q0 -39 -31 -39q-5 0 -36.5 3t-83.5 6t-107 3q-56 0 -112.5 -3t-92 -6t-39.5 -3q-26 0 -26 41zM184 1473q0 13 23 36q110 95 239 217q28 26 45 36t39 10q27 0 46.5 -17.5t19.5 -48.5 q0 -39 -53 -76q-97 -70 -279 -170q-30 -18 -49 -18q-11 0 -21 9.5t-10 21.5z" />
<glyph unicode="&#xce;" horiz-adv-x="667" d="M47 1448q0 12 10 25q22 23 59.5 65t90 102t82.5 93q20 26 45 26q24 0 43 -24q51 -60 135.5 -157t91.5 -105q12 -14 12 -25q0 -10 -9.5 -19.5t-20.5 -9.5q-13 0 -37 17q-3 3 -40.5 32t-83 64.5t-69.5 56.5q-13 10 -24 10t-23 -12q-173 -135 -198 -153q-18 -15 -35 -15 q-10 0 -19.5 10t-9.5 19zM70 37q0 14 7 24.5t19 10.5q2 0 16 -1t19 -1q94 0 111 41q20 38 20 184v764q0 150 -20 184q-21 41 -105 41q-5 0 -22 -1t-19 -1q-26 0 -26 35q0 41 30 41q7 0 44 -3t94.5 -6t113.5 -3t104.5 3t76 6t32.5 3q33 0 33 -37q0 -39 -31 -39q-3 0 -16 1 t-16 1q-73 0 -103 -37q-29 -32 -29 -192v-762q0 -153 29 -189q27 -34 100 -34q4 0 18 1t17 1q31 0 31 -37q0 -39 -31 -39q-5 0 -36.5 3t-83.5 6t-107 3q-56 0 -112.5 -3t-92 -6t-39.5 -3q-26 0 -26 41z" />
<glyph unicode="&#xcf;" horiz-adv-x="667" d="M70 37q0 14 7 24.5t19 10.5q2 0 16 -1t19 -1q94 0 111 41q20 38 20 184v764q0 150 -20 184q-21 41 -105 41q-5 0 -22 -1t-19 -1q-26 0 -26 35q0 41 30 41q7 0 44 -3t94.5 -6t113.5 -3t104.5 3t76 6t32.5 3q33 0 33 -37q0 -39 -31 -39q-3 0 -16 1t-16 1q-73 0 -103 -37 q-29 -32 -29 -192v-762q0 -153 29 -189q27 -34 100 -34q4 0 18 1t17 1q31 0 31 -37q0 -39 -31 -39q-5 0 -36.5 3t-83.5 6t-107 3q-56 0 -112.5 -3t-92 -6t-39.5 -3q-26 0 -26 41zM80 1532q0 39 25.5 64.5t62.5 25.5t61.5 -25.5t24.5 -64.5q0 -40 -25 -65t-63 -25 q-35 0 -60.5 25t-25.5 65zM403 1532q0 39 26.5 64.5t64.5 25.5q37 0 61.5 -25.5t24.5 -64.5q0 -40 -25 -65t-63 -25q-35 0 -62 25t-27 65z" />
<glyph unicode="&#xd0;" horiz-adv-x="1531" d="M49 721q0 24 9 32.5t30 8.5h143q31 0 31 31v258q0 156 -18 188q-11 20 -38 32.5t-63 12.5q-5 0 -24 -1t-23 -1q-26 0 -26 37q0 18 8.5 28.5t19.5 10.5q7 0 44.5 -2.5t95 -5t112.5 -2.5q42 0 122.5 3t117.5 3q342 0 520 -82q155 -71 237.5 -219.5t82.5 -345.5 q0 -184 -58 -322t-164 -222.5t-247.5 -125.5t-317.5 -41q-68 0 -167 4t-126 4q-55 0 -110.5 -2t-91 -4t-42.5 -2q-36 0 -36 37q0 39 26 39q3 0 15.5 -1t17.5 -1q90 0 113 41q20 45 20 174v362q0 31 -31 31h-143q-24 0 -31.5 9t-7.5 34zM401 289q0 -126 37 -160 q26 -23 86.5 -31t182.5 -8t223.5 34.5t179 103.5t121 181.5t43.5 258.5q0 143 -45 267t-129 200q-86 78 -216.5 105.5t-330.5 27.5q-112 0 -133 -23q-19 -19 -19 -102v-350q0 -31 31 -31h373q23 0 30 -7.5t7 -31.5q0 -26 -8 -35.5t-33 -9.5h-369q-31 0 -31 -31v-358z" />
<glyph unicode="&#xd1;" horiz-adv-x="1619" d="M59 1319q0 39 33 39q5 0 59 -4t87 -4q38 0 81 4t52 4q30 0 53 -33q60 -81 172 -222t172 -218q294 -373 469 -580q14 -18 25 -18q10 0 10 16q2 88 2 258q-1 51 -1 155t-1 189.5t-4 147.5q-6 157 -23 190q-21 41 -108 41q-7 0 -27 -1t-23 -1q-28 0 -28 35q0 41 31 41 q4 0 38.5 -3t90.5 -6t112 -3q55 0 102 3t72.5 6t30.5 3q31 0 31 -37q0 -39 -29 -39q-2 0 -20 1t-25 1q-72 0 -96 -35q-31 -39 -31 -196q0 -27 -1 -150t-1 -219q0 -142 1 -260.5t3 -188.5t4 -119t3 -74t1 -30q0 -39 -51 -39q-20 0 -33 19q-67 95 -147 192 q-141 169 -433.5 536t-310.5 390q-16 16 -24 16q-12 0 -12 -18q-3 -187 -3 -412q0 -78 5 -411q2 -138 32 -181q27 -34 105 -34q2 0 20 1t25 1q26 0 26 -41q0 -35 -26 -35q-7 0 -38 3t-81.5 6t-105.5 3q-56 0 -107.5 -3t-82.5 -6t-36 -3q-28 0 -28 39q0 14 7.5 25.5 t18.5 11.5q4 0 18 -1t19 -1q39 0 70 11t41 30q20 37 22 174q8 418 8 774q0 141 -26 176q-25 30 -54 39.5t-69 9.5q-5 0 -20 -1t-19 -1q-11 0 -19 9.5t-8 27.5zM539 1485q0 15 8 39q31 92 74 125.5t96 33.5q50 0 155 -55q78 -41 132 -41q57 0 77 84q8 25 31 25q33 0 33 -29 q0 -11 -6 -29q-24 -87 -58.5 -127.5t-89.5 -40.5q-69 0 -155 48q-87 47 -144 47q-32 0 -52.5 -19.5t-39.5 -68.5q-6 -19 -29 -19q-13 0 -22.5 7t-9.5 20z" />
<glyph unicode="&#xd2;" horiz-adv-x="1540" d="M102 655q0 154 50 288t139 230t217 150.5t278 54.5q297 0 475.5 -186t178.5 -494q0 -157 -45 -289.5t-129 -229.5t-212 -151.5t-286 -54.5q-195 0 -347 85.5t-235.5 240.5t-83.5 356zM258 672q0 -140 41 -256.5t111.5 -194t166 -120t203.5 -42.5q226 0 365 160t139 443 q0 143 -40.5 262t-110.5 199t-165 124.5t-202 44.5q-227 0 -367.5 -166.5t-140.5 -453.5zM588 1706q0 31 19.5 48.5t45.5 17.5q22 0 39.5 -10.5t44.5 -35.5q90 -87 240 -217q22 -22 22 -36q0 -12 -9 -21.5t-21 -9.5q-19 0 -49 18q-182 100 -279 170q-53 37 -53 76z" />
<glyph unicode="&#xd3;" horiz-adv-x="1540" d="M102 655q0 154 50 288t139 230t217 150.5t278 54.5q297 0 475.5 -186t178.5 -494q0 -157 -45 -289.5t-129 -229.5t-212 -151.5t-286 -54.5q-195 0 -347 85.5t-235.5 240.5t-83.5 356zM258 672q0 -140 41 -256.5t111.5 -194t166 -120t203.5 -42.5q226 0 365 160t139 443 q0 143 -40.5 262t-110.5 199t-165 124.5t-202 44.5q-227 0 -367.5 -166.5t-140.5 -453.5zM631 1473q0 14 22 36q122 105 240 217q28 26 45 36t39 10q26 0 45.5 -17.5t19.5 -48.5q0 -39 -53 -76q-101 -73 -278 -170q-30 -18 -49 -18q-11 0 -21 9.5t-10 21.5z" />
<glyph unicode="&#xd4;" horiz-adv-x="1540" d="M102 655q0 154 50 288t139 230t217 150.5t278 54.5q297 0 475.5 -186t178.5 -494q0 -157 -45 -289.5t-129 -229.5t-212 -151.5t-286 -54.5q-195 0 -347 85.5t-235.5 240.5t-83.5 356zM258 672q0 -140 41 -256.5t111.5 -194t166 -120t203.5 -42.5q226 0 365 160t139 443 q0 143 -40.5 262t-110.5 199t-165 124.5t-202 44.5q-227 0 -367.5 -166.5t-140.5 -453.5zM479 1448q0 12 10 25q22 23 59.5 65t90 102t82.5 93q20 26 45 26q24 0 43 -24q51 -60 135.5 -157t91.5 -105q13 -16 13 -25q0 -10 -10 -19.5t-21 -9.5q-13 0 -37 17q-3 3 -40.5 32 t-83 64.5t-69.5 56.5q-12 10 -24 10q-11 0 -23 -12q-173 -135 -198 -153q-18 -15 -35 -15q-10 0 -19.5 10t-9.5 19z" />
<glyph unicode="&#xd5;" horiz-adv-x="1540" d="M102 655q0 154 50 288t139 230t217 150.5t278 54.5q297 0 475.5 -186t178.5 -494q0 -157 -45 -289.5t-129 -229.5t-212 -151.5t-286 -54.5q-195 0 -347 85.5t-235.5 240.5t-83.5 356zM258 672q0 -140 41 -256.5t111.5 -194t166 -120t203.5 -42.5q226 0 365 160t139 443 q0 143 -40.5 262t-110.5 199t-165 124.5t-202 44.5q-227 0 -367.5 -166.5t-140.5 -453.5zM459 1485q0 15 8 39q31 92 74 125.5t96 33.5q51 0 156 -55q78 -41 131 -41q57 0 77 84q8 25 31 25q33 0 33 -29q0 -11 -6 -29q-24 -87 -58.5 -127.5t-89.5 -40.5q-69 0 -155 48 q-87 47 -144 47q-32 0 -52.5 -19.5t-39.5 -68.5q-6 -19 -28 -19q-13 0 -23 7t-10 20z" />
<glyph unicode="&#xd6;" horiz-adv-x="1540" d="M102 655q0 154 50 288t139 230t217 150.5t278 54.5q297 0 475.5 -186t178.5 -494q0 -157 -45 -289.5t-129 -229.5t-212 -151.5t-286 -54.5q-195 0 -347 85.5t-235.5 240.5t-83.5 356zM258 672q0 -140 41 -256.5t111.5 -194t166 -120t203.5 -42.5q226 0 365 160t139 443 q0 143 -40.5 262t-110.5 199t-165 124.5t-202 44.5q-227 0 -367.5 -166.5t-140.5 -453.5zM518 1532q0 39 25.5 64.5t62.5 25.5t61.5 -25.5t24.5 -64.5q0 -40 -25 -65t-63 -25q-35 0 -60.5 25t-25.5 65zM842 1532q0 39 26.5 64.5t63.5 25.5t61.5 -25.5t24.5 -64.5 q0 -40 -25 -65t-63 -25q-35 0 -61.5 25t-26.5 65z" />
<glyph unicode="&#xd7;" horiz-adv-x="1314" d="M270 860q0 10 11 21l47 49q12 8 18 8q9 0 21 -8l295 -293l290 291q8 8 21 8q9 0 20 -8l39 -41q10 -10 10 -19q0 -10 -10 -20l-291 -291l293 -293q10 -10 10 -20q0 -11 -8 -19l-47 -47q-8 -10 -20 -10q-13 0 -21 8l-293 293l-290 -293q-8 -8 -21 -8q-10 0 -18 10l-41 39 q-9 9 -9 21q0 9 9 18l288 293l-292 293q-11 15 -11 18z" />
<glyph unicode="&#xd8;" horiz-adv-x="1540" d="M102 655q0 154 50 288t139 230t217 150.5t278 54.5q229 0 392 -115l131 158q14 17 30 17q13 0 29.5 -13.5t17.5 -27.5q0 -13 -14 -33l-128 -154q95 -91 145.5 -221.5t50.5 -290.5q0 -157 -45 -289.5t-129 -229.5t-212 -151.5t-286 -54.5q-255 0 -431 143l-132 -159 q-16 -16 -31 -16q-12 0 -29.5 14.5t-17.5 26.5q0 16 12 28l136 164q-83 91 -128 213.5t-45 267.5zM258 672q0 -230 106 -390l731 881q-138 129 -329 129q-111 0 -204.5 -42.5t-161 -121t-105 -196t-37.5 -260.5zM418 214q47 -50 104 -84.5t122.5 -52.5t135.5 -18 q111 0 203.5 40.5t159 116t104 190t37.5 256.5q0 264 -132 437z" />
<glyph unicode="&#xd9;" horiz-adv-x="1562" d="M45 1317q0 41 33 41q5 0 39.5 -3t89.5 -6t110 -3q56 0 110 3t87.5 6t38.5 3q12 0 20.5 -10t8.5 -27t-7.5 -28t-19.5 -11q-3 0 -17 1t-18 1q-88 0 -112 -33q-16 -22 -23.5 -60t-7.5 -128q0 -385 4 -541q5 -237 100.5 -344.5t304.5 -107.5q84 0 150 14.5t111.5 38.5 t78.5 64.5t52 83t29.5 103.5t14 116t3.5 131q0 302 -4 446q-5 145 -25 178q-11 17 -41 28t-68 11q-4 0 -23.5 -1t-23.5 -1q-9 0 -15.5 10t-6.5 25q0 41 29 41q7 0 93.5 -6t137.5 -6q50 0 126 6t77 6q23 0 30 -8.5t7 -28.5t-7 -29.5t-26 -9.5q-4 0 -21.5 1t-21.5 1 q-63 -3 -94 -37q-33 -37 -33 -182q0 -38 1 -267t1 -292q0 -261 -128.5 -398t-410.5 -137q-284 0 -413 130t-129 386q0 45 1 232t1 348q0 136 -25 178q-24 39 -102 39q-5 0 -21 -1t-20 -1q-25 0 -25 35zM555 1706q0 31 19.5 48.5t46.5 17.5q22 0 39.5 -10.5t44.5 -35.5 q98 -95 239 -217q23 -23 23 -36q0 -12 -9.5 -21.5t-21.5 -9.5q-19 0 -49 18q-182 100 -279 170q-53 37 -53 76z" />
<glyph unicode="&#xda;" horiz-adv-x="1562" d="M45 1317q0 41 33 41q5 0 39.5 -3t89.5 -6t110 -3q56 0 110 3t87.5 6t38.5 3q12 0 20.5 -10t8.5 -27t-7.5 -28t-19.5 -11q-3 0 -17 1t-18 1q-88 0 -112 -33q-16 -22 -23.5 -60t-7.5 -128q0 -385 4 -541q5 -237 100.5 -344.5t304.5 -107.5q84 0 150 14.5t111.5 38.5 t78.5 64.5t52 83t29.5 103.5t14 116t3.5 131q0 302 -4 446q-5 145 -25 178q-11 17 -41 28t-68 11q-4 0 -23.5 -1t-23.5 -1q-9 0 -15.5 10t-6.5 25q0 41 29 41q7 0 93.5 -6t137.5 -6q50 0 126 6t77 6q23 0 30 -8.5t7 -28.5t-7 -29.5t-26 -9.5q-4 0 -21.5 1t-21.5 1 q-63 -3 -94 -37q-33 -37 -33 -182q0 -38 1 -267t1 -292q0 -261 -128.5 -398t-410.5 -137q-284 0 -413 130t-129 386q0 45 1 232t1 348q0 136 -25 178q-24 39 -102 39q-5 0 -21 -1t-20 -1q-25 0 -25 35zM649 1473q0 13 23 36q110 95 239 217q28 26 45 36t39 10 q27 0 46.5 -17.5t19.5 -48.5q0 -39 -53 -76q-97 -70 -279 -170q-30 -18 -49 -18q-11 0 -21 9.5t-10 21.5z" />
<glyph unicode="&#xdb;" horiz-adv-x="1562" d="M45 1317q0 41 33 41q5 0 39.5 -3t89.5 -6t110 -3q56 0 110 3t87.5 6t38.5 3q12 0 20.5 -10t8.5 -27t-7.5 -28t-19.5 -11q-3 0 -17 1t-18 1q-88 0 -112 -33q-16 -22 -23.5 -60t-7.5 -128q0 -385 4 -541q5 -237 100.5 -344.5t304.5 -107.5q84 0 150 14.5t111.5 38.5 t78.5 64.5t52 83t29.5 103.5t14 116t3.5 131q0 302 -4 446q-5 145 -25 178q-11 17 -41 28t-68 11q-4 0 -23.5 -1t-23.5 -1q-9 0 -15.5 10t-6.5 25q0 41 29 41q7 0 93.5 -6t137.5 -6q50 0 126 6t77 6q23 0 30 -8.5t7 -28.5t-7 -29.5t-26 -9.5q-4 0 -21.5 1t-21.5 1 q-63 -3 -94 -37q-33 -37 -33 -182q0 -38 1 -267t1 -292q0 -261 -128.5 -398t-410.5 -137q-284 0 -413 130t-129 386q0 45 1 232t1 348q0 136 -25 178q-24 39 -102 39q-5 0 -21 -1t-20 -1q-25 0 -25 35zM516 1448q0 12 10 25q22 23 59.5 65t90 102t82.5 93q20 26 45 26 q24 0 43 -24q51 -60 135.5 -157t91.5 -105q12 -14 12 -25q0 -10 -9.5 -19.5t-20.5 -9.5q-13 0 -37 17q-3 3 -40.5 32t-83 64.5t-69.5 56.5q-13 10 -24 10t-23 -12q-173 -135 -198 -153q-18 -15 -35 -15q-10 0 -19.5 10t-9.5 19z" />
<glyph unicode="&#xdc;" horiz-adv-x="1562" d="M45 1317q0 41 33 41q5 0 39.5 -3t89.5 -6t110 -3q56 0 110 3t87.5 6t38.5 3q12 0 20.5 -10t8.5 -27t-7.5 -28t-19.5 -11q-3 0 -17 1t-18 1q-88 0 -112 -33q-16 -22 -23.5 -60t-7.5 -128q0 -385 4 -541q5 -237 100.5 -344.5t304.5 -107.5q84 0 150 14.5t111.5 38.5 t78.5 64.5t52 83t29.5 103.5t14 116t3.5 131q0 302 -4 446q-5 145 -25 178q-11 17 -41 28t-68 11q-4 0 -23.5 -1t-23.5 -1q-9 0 -15.5 10t-6.5 25q0 41 29 41q7 0 93.5 -6t137.5 -6q50 0 126 6t77 6q23 0 30 -8.5t7 -28.5t-7 -29.5t-26 -9.5q-4 0 -21.5 1t-21.5 1 q-63 -3 -94 -37q-33 -37 -33 -182q0 -38 1 -267t1 -292q0 -261 -128.5 -398t-410.5 -137q-284 0 -413 130t-129 386q0 45 1 232t1 348q0 136 -25 178q-24 39 -102 39q-5 0 -21 -1t-20 -1q-25 0 -25 35zM537 1532q0 39 25.5 64.5t62.5 25.5t61.5 -25.5t24.5 -64.5 q0 -40 -25 -65t-63 -25q-35 0 -60.5 25t-25.5 65zM860 1532q0 39 26.5 64.5t63.5 25.5t61.5 -25.5t24.5 -64.5q0 -40 -25 -65t-63 -25q-35 0 -61.5 25t-26.5 65z" />
<glyph unicode="&#xdd;" horiz-adv-x="1351" d="M31 1319q0 39 32 39q7 0 38.5 -3t83.5 -6t110 -3q42 0 138.5 6t103.5 6q30 0 30 -39q0 -37 -32 -37q-9 0 -36.5 1t-37.5 1q-40 0 -56 -10t-16 -33q0 -7 1 -14.5t4.5 -16.5t6.5 -17t10 -21t12 -22.5t15.5 -27.5t18.5 -30.5t22.5 -36.5t24.5 -41l153 -252q20 -34 30 -44.5 t18 -10.5q17 0 49 51l157 258q101 162 101 223q0 27 -23.5 36t-70.5 9q-20 0 -38 -1t-22 -1q-15 0 -23 7.5t-8 29.5q0 39 31 39l74 -6q73 -6 153 -6q79 0 140.5 6t64.5 6q33 0 33 -39q0 -37 -27 -37q-4 0 -16 1t-18 1q-46 0 -86 -37q-34 -32 -158 -229l-244 -393 q-18 -24 -18 -82v-250q0 -154 28 -189q27 -34 101 -34q4 0 18 1t17 1q30 0 30 -39q0 -37 -30 -37q-5 0 -37 3t-84 6t-107 3q-56 0 -113 -3t-93 -6t-40 -3q-26 0 -26 41q0 15 7 25t19 10q2 0 16 -1t19 -1q93 0 113 41q20 38 20 184v225q0 35 -5 53t-21 45l-240 388 q-90 148 -166 243q-25 33 -90 33q-5 0 -17.5 -1t-17.5 -1q-26 0 -26 39zM573 1473q0 13 23 36q122 105 240 217q28 26 45 36t39 10q26 0 45.5 -17.5t19.5 -48.5q0 -39 -53 -76q-97 -70 -279 -170q-30 -18 -49 -18q-11 0 -21 9.5t-10 21.5z" />
<glyph unicode="&#xde;" horiz-adv-x="1177" d="M70 35q0 15 7.5 26t18.5 11q2 0 16 -1t19 -1q94 0 111 41q20 38 20 182v770q0 146 -20 180q-21 41 -105 41q-5 0 -22 -1t-19 -1q-26 0 -26 35q0 41 30 41q7 0 42.5 -3t91 -6t110.5 -3q56 0 109 3t85 6t37 3q31 0 31 -37q0 -39 -28 -39q-3 0 -16.5 1t-16.5 1 q-87 0 -117 -37q-25 -33 -25 -123q0 -51 29 -51q24 0 80 2t80 2q487 0 487 -354q0 -61 -12.5 -114t-48.5 -109.5t-93.5 -97t-155.5 -66t-226 -25.5q-22 0 -60.5 2t-44.5 2q-21 0 -29 -7.5t-8 -31.5q0 -136 29 -172q27 -34 115 -34q4 0 19 1t18 1q30 0 30 -37q0 -17 -8.5 -28 t-21.5 -11q-7 0 -43 3t-91.5 6t-109.5 3q-56 0 -111.5 -3t-90 -6t-38.5 -3q-28 0 -28 39zM401 477q0 -54 27 -69q8 -6 41.5 -10.5t54.5 -4.5q216 0 307 76.5t91 232.5q0 147 -89.5 220t-281.5 73q-69 0 -113 -6q-37 -3 -37 -51v-461z" />
<glyph unicode="&#xdf;" horiz-adv-x="1175" d="M84 35q0 14 7.5 24.5t17.5 10.5q3 0 18 -1t23 -1q69 0 86 38q18 41 18 162v525q0 19 -7 25.5t-28 6.5q-35 0 -68 -2t-36 -2q-25 0 -25 45q0 26 27 31q41 7 64.5 15.5t39.5 27.5t24 50t11 102q9 190 49.5 293t120.5 174q45 41 116.5 63.5t139.5 22.5q76 0 134.5 -20 t93 -50t56.5 -71t30 -78t8 -76q0 -122 -58.5 -221t-165.5 -195q-92 -80 -92 -127q0 -31 34.5 -66t162.5 -143q124 -103 169.5 -172t45.5 -158q0 -134 -90.5 -216.5t-229.5 -82.5q-163 0 -245 60q-24 16 -27 49q-12 117 -12 123q0 41 43 41q32 0 36 -35q11 -65 41 -103 q23 -29 71 -45t104 -16q87 0 137.5 49.5t50.5 130.5q0 42 -12.5 77.5t-42.5 71t-63.5 65t-90.5 73.5q-112 88 -153.5 142.5t-41.5 109.5q0 52 27 93.5t88 102.5q184 187 184 383q0 95 -51 161.5t-145 66.5q-161 0 -238 -158q-63 -120 -63 -473v-672q0 -153 10 -184 q10 -40 10 -47q0 -37 -30 -37q-4 0 -34.5 3t-56.5 3q-69 0 -116.5 -4t-48.5 -4q-27 0 -27 39z" />
<glyph unicode="&#xe0;" horiz-adv-x="989" d="M102 209q0 112 91 168q51 29 132 51.5t244 52.5q46 8 63 22t17 48q0 115 -8.5 166t-30.5 84q-37 55 -137 55q-61 0 -121.5 -42.5t-60.5 -94.5q0 -23 7 -47.5t7 -38.5q0 -32 -22.5 -50t-55.5 -18q-36 0 -56.5 23t-20.5 63t28 83t64 75q70 61 156 101t159 40q126 0 180 -80 q37 -52 37 -188q0 -46 -3 -203t-3 -235q0 -174 90 -174q46 0 60 41q7 26 36 26q13 0 22 -8.5t9 -22.5q0 -23 -22 -51q-34 -39 -70.5 -58.5t-89.5 -19.5q-100 0 -139 97q-7 20 -19 20q-3 0 -6 -1t-7 -3.5t-6 -4.5t-7 -7.5t-7 -7.5q-53 -53 -110.5 -76t-130.5 -23 q-116 0 -192.5 69.5t-76.5 168.5zM238 223q0 -61 49 -107t139 -46q53 0 103 24t77 49q23 22 34 55t11 97q0 9 1 33t0.5 36t-3.5 28t-10.5 23t-20.5 7q-25 0 -61 -8q-129 -25 -211 -54q-108 -43 -108 -137zM281 1393q0 30 20 46.5t51 16.5q46 0 78 -59q51 -95 162 -262 q14 -21 14 -35q0 -11 -10 -19t-23 -8q-16 0 -43 27q-156 153 -215 221q-34 42 -34 72z" />
<glyph unicode="&#xe1;" horiz-adv-x="989" d="M102 209q0 112 91 168q51 29 132 51.5t244 52.5q46 8 63 22t17 48q0 115 -8.5 166t-30.5 84q-37 55 -137 55q-61 0 -121.5 -42.5t-60.5 -94.5q0 -23 7 -47.5t7 -38.5q0 -32 -22.5 -50t-55.5 -18q-36 0 -56.5 23t-20.5 63t28 83t64 75q70 61 156 101t159 40q126 0 180 -80 q37 -52 37 -188q0 -46 -3 -203t-3 -235q0 -174 90 -174q46 0 60 41q7 26 36 26q13 0 22 -8.5t9 -22.5q0 -23 -22 -51q-34 -39 -70.5 -58.5t-89.5 -19.5q-100 0 -139 97q-7 20 -19 20q-3 0 -6 -1t-7 -3.5t-6 -4.5t-7 -7.5t-7 -7.5q-53 -53 -110.5 -76t-130.5 -23 q-116 0 -192.5 69.5t-76.5 168.5zM238 223q0 -61 49 -107t139 -46q53 0 103 24t77 49q23 22 34 55t11 97q0 9 1 33t0.5 36t-3.5 28t-10.5 23t-20.5 7q-25 0 -61 -8q-129 -25 -211 -54q-108 -43 -108 -137zM403 1100q0 12 15 35q12 19 38.5 59.5t43 66t39 64t41.5 72.5 q17 32 34.5 45.5t40.5 13.5q32 0 53 -15t21 -44q0 -33 -35 -76q-59 -68 -215 -221q-27 -27 -43 -27q-13 0 -23 8t-10 19z" />
<glyph unicode="&#xe2;" horiz-adv-x="989" d="M102 209q0 112 91 168q51 29 132 51.5t244 52.5q46 8 63 22t17 48q0 115 -8.5 166t-30.5 84q-37 55 -137 55q-61 0 -121.5 -42.5t-60.5 -94.5q0 -23 7 -47.5t7 -38.5q0 -32 -22.5 -50t-55.5 -18q-36 0 -56.5 23t-20.5 63t28 83t64 75q70 61 156 101t159 40q126 0 180 -80 q37 -52 37 -188q0 -46 -3 -203t-3 -235q0 -174 90 -174q46 0 60 41q7 26 36 26q13 0 22 -8.5t9 -22.5q0 -23 -22 -51q-34 -39 -70.5 -58.5t-89.5 -19.5q-100 0 -139 97q-7 20 -19 20q-3 0 -6 -1t-7 -3.5t-6 -4.5t-7 -7.5t-7 -7.5q-53 -53 -110.5 -76t-130.5 -23 q-116 0 -192.5 69.5t-76.5 168.5zM238 223q0 -61 49 -107t139 -46q53 0 103 24t77 49q23 22 34 55t11 97q0 9 1 33t0.5 36t-3.5 28t-10.5 23t-20.5 7q-25 0 -61 -8q-129 -25 -211 -54q-108 -43 -108 -137zM246 1100q0 13 8 24q105 156 192 308q18 32 48 32q29 0 43 -26 q85 -141 190 -310q10 -15 10 -24q0 -12 -11.5 -21.5t-25.5 -9.5q-15 0 -32 17q-61 66 -156 180q-12 14 -23 14q-8 0 -20 -16q-98 -118 -164 -181q-14 -14 -26 -14q-11 0 -22 9t-11 18z" />
<glyph unicode="&#xe3;" horiz-adv-x="989" d="M102 209q0 112 91 168q51 29 132 51.5t244 52.5q46 8 63 22t17 48q0 115 -8.5 166t-30.5 84q-37 55 -137 55q-61 0 -121.5 -42.5t-60.5 -94.5q0 -23 7 -47.5t7 -38.5q0 -32 -22.5 -50t-55.5 -18q-36 0 -56.5 23t-20.5 63t28 83t64 75q70 61 156 101t159 40q126 0 180 -80 q37 -52 37 -188q0 -46 -3 -203t-3 -235q0 -174 90 -174q46 0 60 41q7 26 36 26q13 0 22 -8.5t9 -22.5q0 -23 -22 -51q-34 -39 -70.5 -58.5t-89.5 -19.5q-100 0 -139 97q-7 20 -19 20q-3 0 -6 -1t-7 -3.5t-6 -4.5t-7 -7.5t-7 -7.5q-53 -53 -110.5 -76t-130.5 -23 q-116 0 -192.5 69.5t-76.5 168.5zM211 1139q0 15 8 39q31 93 69.5 126t88.5 33q40 0 145 -55q78 -41 123 -41t68 80q6 27 30 27q31 0 31 -29q0 -7 -6 -31q-22 -87 -56 -125.5t-91 -38.5q-56 0 -136 45q-84 48 -123 48q-32 0 -51.5 -18.5t-38.5 -65.5q-6 -21 -30 -21 q-12 0 -21.5 7t-9.5 20zM238 223q0 -61 49 -107t139 -46q53 0 103 24t77 49q23 22 34 55t11 97q0 9 1 33t0.5 36t-3.5 28t-10.5 23t-20.5 7q-25 0 -61 -8q-129 -25 -211 -54q-108 -43 -108 -137z" />
<glyph unicode="&#xe4;" horiz-adv-x="989" d="M102 209q0 112 91 168q51 29 132 51.5t244 52.5q46 8 63 22t17 48q0 115 -8.5 166t-30.5 84q-37 55 -137 55q-61 0 -121.5 -42.5t-60.5 -94.5q0 -23 7 -47.5t7 -38.5q0 -32 -22.5 -50t-55.5 -18q-36 0 -56.5 23t-20.5 63t28 83t64 75q70 61 156 101t159 40q126 0 180 -80 q37 -52 37 -188q0 -46 -3 -203t-3 -235q0 -174 90 -174q46 0 60 41q7 26 36 26q13 0 22 -8.5t9 -22.5q0 -23 -22 -51q-34 -39 -70.5 -58.5t-89.5 -19.5q-100 0 -139 97q-7 20 -19 20q-3 0 -6 -1t-7 -3.5t-6 -4.5t-7 -7.5t-7 -7.5q-53 -53 -110.5 -76t-130.5 -23 q-116 0 -192.5 69.5t-76.5 168.5zM238 223q0 -61 49 -107t139 -46q53 0 103 24t77 49q23 22 34 55t11 97q0 9 1 33t0.5 36t-3.5 28t-10.5 23t-20.5 7q-25 0 -61 -8q-129 -25 -211 -54q-108 -43 -108 -137zM258 1241q0 39 26.5 64.5t63.5 25.5q36 0 61 -25t25 -65 q0 -38 -25.5 -63t-62.5 -25q-36 0 -62 24.5t-26 63.5zM563 1241q0 39 27 64.5t65 25.5q37 0 61.5 -24.5t24.5 -65.5q0 -38 -25.5 -63t-62.5 -25q-35 0 -62.5 25t-27.5 63z" />
<glyph unicode="&#xe5;" horiz-adv-x="989" d="M102 209q0 112 91 168q51 29 132 51.5t244 52.5q46 8 63 22t17 48q0 115 -8.5 166t-30.5 84q-37 55 -137 55q-61 0 -121.5 -42.5t-60.5 -94.5q0 -23 7 -47.5t7 -38.5q0 -32 -22.5 -50t-55.5 -18q-36 0 -56.5 23t-20.5 63t28 83t64 75q70 61 156 101t159 40q126 0 180 -80 q37 -52 37 -188q0 -46 -3 -203t-3 -235q0 -174 90 -174q46 0 60 41q7 26 36 26q13 0 22 -8.5t9 -22.5q0 -23 -22 -51q-34 -39 -70.5 -58.5t-89.5 -19.5q-100 0 -139 97q-7 20 -19 20q-3 0 -6 -1t-7 -3.5t-6 -4.5t-7 -7.5t-7 -7.5q-53 -53 -110.5 -76t-130.5 -23 q-116 0 -192.5 69.5t-76.5 168.5zM238 223q0 -61 49 -107t139 -46q53 0 103 24t77 49q23 22 34 55t11 97q0 9 1 33t0.5 36t-3.5 28t-10.5 23t-20.5 7q-25 0 -61 -8q-129 -25 -211 -54q-108 -43 -108 -137zM307 1237q0 82 55.5 136t135.5 54q87 0 137.5 -49t50.5 -133 q0 -87 -53.5 -139.5t-136.5 -52.5q-87 0 -138 50.5t-51 133.5zM381 1239q0 -53 33.5 -89t81.5 -36q52 0 85 34.5t33 90.5q0 61 -32.5 95t-85.5 34q-48 0 -81.5 -35.5t-33.5 -93.5z" />
<glyph unicode="&#xe6;" horiz-adv-x="1521" d="M102 209q0 112 91 168q51 29 132 51.5t244 52.5q46 8 63 22t17 48q0 116 -7 168t-30 82q-42 57 -135 57q-75 0 -132.5 -41t-57.5 -98q0 -23 8 -47.5t8 -38.5q0 -32 -23.5 -50t-56.5 -18q-37 0 -57.5 23t-20.5 63q0 72 93 160q157 139 309 139q87 0 133 -34.5t68 -104.5 q5 -16 14 -16q6 0 16 12q113 143 309 143q92 0 161.5 -27.5t110 -75t60 -106t19.5 -127.5q0 -59 -66 -65q-109 -10 -563 -10q-19 0 -27 -16t-8 -54q0 -183 93.5 -291t242.5 -108q95 0 160.5 38t89.5 93q5 10 10 37t14 41t29 14q41 0 41 -43q0 -37 -33 -98 q-38 -72 -126 -126.5t-224 -54.5q-104 0 -187.5 38t-131.5 104q-1 1 -3.5 4t-3.5 4.5t-3 4t-4 4t-4.5 3t-5 2t-5.5 0.5q-8 0 -17.5 -7t-13.5 -13q-53 -55 -136 -99.5t-179 -44.5q-124 0 -199.5 69t-75.5 169zM238 225q0 -63 48.5 -109t139.5 -46q66 0 127 34t98 86 q23 34 23 72q0 22 -15 115q-7 45 -32 45t-66 -8q-150 -31 -213 -54q-110 -44 -110 -135zM793 629q0 -21 28 -21q334 0 410 10q55 9 55 58q0 203 -223 203q-81 0 -148 -45t-102 -127q-17 -40 -20 -78z" />
<glyph unicode="&#xe7;" horiz-adv-x="946" d="M94 432q0 228 132 373t339 145q190 0 264 -96q35 -47 35 -113q0 -48 -26 -69t-64 -21q-23 0 -38.5 7.5t-22.5 15.5t-10.5 29.5t-4 31.5t-0.5 41q0 45 -46.5 73t-119.5 28q-131 0 -216 -103t-85 -270q0 -210 96 -322t242 -112q86 0 149.5 39t90.5 102q4 12 6.5 39.5 t10.5 40t32 12.5q41 0 41 -37q0 -21 -16 -71q-12 -33 -35 -65.5t-60 -68t-95 -59.5t-128 -29q-13 -1 -21 -6t-11 -10t-7 -14q-16 -39 -16 -49q0 -18 22 -27q66 -20 101 -55.5t35 -96.5q0 -74 -51.5 -131t-121.5 -82.5t-141 -25.5q-23 0 -33 8.5t-10 28.5t12 29t42 9 q82 0 134 34.5t52 99.5q0 38 -25 61.5t-82 38.5q-12 3 -21 13.5t-9 23.5q0 18 45 119q4 12 4 16q0 19 -25 23q-114 19 -193 87t-115 161t-36 204z" />
<glyph unicode="&#xe8;" horiz-adv-x="978" d="M96 434q0 231 122.5 373.5t320.5 142.5q92 0 163 -27.5t113 -75t63 -106.5t21 -127q0 -60 -65 -65q-109 -10 -574 -10q-33 0 -33 -70q0 -183 95.5 -291t244.5 -108q95 0 161 37.5t91 93.5q11 25 15 49q3 22 11 32.5t27 10.5q41 0 41 -43q0 -39 -32 -98q-18 -32 -46 -61.5 t-71 -57.5t-105.5 -45t-136.5 -17q-133 0 -231.5 64t-146.5 168t-48 231zM250 629q0 -21 26 -21q340 0 416 10q56 10 56 58q0 97 -58.5 150t-173.5 53q-78 0 -145.5 -45t-100.5 -127q-17 -40 -20 -78zM285 1393q0 30 20 46.5t51 16.5q46 0 78 -59q51 -95 162 -262 q14 -21 14 -35q0 -11 -9.5 -19t-22.5 -8q-16 0 -43 27q-163 159 -216 221q-34 42 -34 72z" />
<glyph unicode="&#xe9;" horiz-adv-x="978" d="M96 434q0 231 122.5 373.5t320.5 142.5q92 0 163 -27.5t113 -75t63 -106.5t21 -127q0 -60 -65 -65q-109 -10 -574 -10q-33 0 -33 -70q0 -183 95.5 -291t244.5 -108q95 0 161 37.5t91 93.5q11 25 15 49q3 22 11 32.5t27 10.5q41 0 41 -43q0 -39 -32 -98q-18 -32 -46 -61.5 t-71 -57.5t-105.5 -45t-136.5 -17q-133 0 -231.5 64t-146.5 168t-48 231zM250 629q0 -21 26 -21q340 0 416 10q56 10 56 58q0 97 -58.5 150t-173.5 53q-78 0 -145.5 -45t-100.5 -127q-17 -40 -20 -78zM416 1100q0 14 14 35q12 19 38.5 59.5t43 66t39 64t41.5 72.5 q32 59 76 59q31 0 52 -15t21 -44q0 -34 -34 -76q-59 -68 -215 -221q-27 -27 -43 -27q-13 0 -23 8t-10 19z" />
<glyph unicode="&#xea;" horiz-adv-x="978" d="M96 434q0 231 122.5 373.5t320.5 142.5q92 0 163 -27.5t113 -75t63 -106.5t21 -127q0 -60 -65 -65q-109 -10 -574 -10q-33 0 -33 -70q0 -183 95.5 -291t244.5 -108q95 0 161 37.5t91 93.5q11 25 15 49q3 22 11 32.5t27 10.5q41 0 41 -43q0 -39 -32 -98q-18 -32 -46 -61.5 t-71 -57.5t-105.5 -45t-136.5 -17q-133 0 -231.5 64t-146.5 168t-48 231zM250 629q0 -21 26 -21q340 0 416 10q56 10 56 58q0 97 -58.5 150t-173.5 53q-78 0 -145.5 -45t-100.5 -127q-17 -40 -20 -78zM283 1100q0 13 8 24q105 156 192 308q18 32 47 32t43 -26 q40 -67 191 -310q10 -15 10 -24q0 -12 -11.5 -21.5t-25.5 -9.5q-15 0 -32 17q-61 66 -156 180q-12 14 -23 14q-8 0 -20 -16q-98 -118 -164 -181q-14 -14 -27 -14q-11 0 -21.5 9t-10.5 18z" />
<glyph unicode="&#xeb;" horiz-adv-x="978" d="M96 434q0 231 122.5 373.5t320.5 142.5q92 0 163 -27.5t113 -75t63 -106.5t21 -127q0 -60 -65 -65q-109 -10 -574 -10q-33 0 -33 -70q0 -183 95.5 -291t244.5 -108q95 0 161 37.5t91 93.5q11 25 15 49q3 22 11 32.5t27 10.5q41 0 41 -43q0 -39 -32 -98q-18 -32 -46 -61.5 t-71 -57.5t-105.5 -45t-136.5 -17q-133 0 -231.5 64t-146.5 168t-48 231zM250 629q0 -21 26 -21q340 0 416 10q56 10 56 58q0 97 -58.5 150t-173.5 53q-78 0 -145.5 -45t-100.5 -127q-17 -40 -20 -78zM276 1241q0 39 26.5 64.5t64.5 25.5q36 0 61 -25t25 -65 q0 -38 -25.5 -63t-62.5 -25q-36 0 -62.5 24.5t-26.5 63.5zM582 1241q0 39 27 64.5t65 25.5q37 0 61.5 -24.5t24.5 -65.5q0 -38 -25.5 -63t-62.5 -25q-35 0 -62.5 25t-27.5 63z" />
<glyph unicode="&#xec;" horiz-adv-x="604" d="M80 35q0 16 9 25.5t20 9.5q4 0 17.5 -1t18.5 -1q66 0 82 36q23 44 23 166v271q0 137 -24 182.5t-113 67.5q-13 3 -18 9.5t-5 20.5q0 23 16 27q99 35 205 104q21 15 39 15q11 0 19 -9t8 -24q0 -37 -2 -62q-6 -109 -6 -311v-287q0 -146 22 -174q22 -32 96 -32q8 0 19.5 1 t13.5 1q31 0 31 -37t-31 -37q-5 0 -32.5 2.5t-76.5 5t-104 2.5t-100.5 -2.5t-70.5 -5t-30 -2.5q-26 0 -26 39zM80 1393q0 30 20.5 46.5t51.5 16.5q45 0 77 -59q51 -95 162 -262q15 -23 15 -35q0 -11 -10 -19t-23 -8q-16 0 -43 27q-156 153 -215 221q-35 43 -35 72z" />
<glyph unicode="&#xed;" horiz-adv-x="604" d="M80 35q0 16 9 25.5t20 9.5q4 0 17.5 -1t18.5 -1q66 0 82 36q23 44 23 166v271q0 137 -24 182.5t-113 67.5q-13 3 -18 9.5t-5 20.5q0 23 16 27q99 35 205 104q21 15 39 15q11 0 19 -9t8 -24q0 -37 -2 -62q-6 -109 -6 -311v-287q0 -146 22 -174q22 -32 96 -32q8 0 19.5 1 t13.5 1q31 0 31 -37t-31 -37q-5 0 -32.5 2.5t-76.5 5t-104 2.5t-100.5 -2.5t-70.5 -5t-30 -2.5q-26 0 -26 39zM158 1100q0 14 14 35q12 19 38.5 59.5t43 66t39 64t41.5 72.5q32 59 76 59q31 0 52 -15t21 -44q0 -34 -34 -76q-53 -62 -216 -221q-27 -27 -43 -27q-13 0 -22.5 8 t-9.5 19z" />
<glyph unicode="&#xee;" horiz-adv-x="604" d="M41 1100q0 13 8 24q111 166 193 308q18 32 47 32t43 -26q85 -141 190 -310q10 -15 10 -24q0 -12 -11 -21.5t-25 -9.5q-16 0 -33 17q-61 66 -156 180q-12 14 -22 14q-9 0 -21 -16q-98 -118 -164 -181q-14 -14 -26 -14q-11 0 -22 9t-11 18zM80 35q0 16 9 25.5t20 9.5 q4 0 17.5 -1t18.5 -1q66 0 82 36q23 44 23 166v271q0 137 -24 182.5t-113 67.5q-13 3 -18 9.5t-5 20.5q0 23 16 27q99 35 205 104q21 15 39 15q11 0 19 -9t8 -24q0 -37 -2 -62q-6 -109 -6 -311v-287q0 -146 22 -174q22 -32 96 -32q8 0 19.5 1t13.5 1q31 0 31 -37t-31 -37 q-5 0 -32.5 2.5t-76.5 5t-104 2.5t-100.5 -2.5t-70.5 -5t-30 -2.5q-26 0 -26 39z" />
<glyph unicode="&#xef;" horiz-adv-x="604" d="M41 1241q0 39 26.5 64.5t63.5 25.5q36 0 61 -25t25 -65q0 -38 -25.5 -63t-62.5 -25q-36 0 -62 24.5t-26 63.5zM80 35q0 16 9 25.5t20 9.5q4 0 17.5 -1t18.5 -1q66 0 82 36q23 44 23 166v271q0 137 -24 182.5t-113 67.5q-13 3 -18 9.5t-5 20.5q0 23 16 27q99 35 205 104 q21 15 39 15q11 0 19 -9t8 -24q0 -37 -2 -62q-6 -109 -6 -311v-287q0 -146 22 -174q22 -32 96 -32q8 0 19.5 1t13.5 1q31 0 31 -37t-31 -37q-5 0 -32.5 2.5t-76.5 5t-104 2.5t-100.5 -2.5t-70.5 -5t-30 -2.5q-26 0 -26 39zM346 1241q0 39 27 64.5t65 25.5q37 0 61.5 -24.5 t24.5 -65.5q0 -38 -25.5 -63t-62.5 -25q-35 0 -62.5 25t-27.5 63z" />
<glyph unicode="&#xf0;" horiz-adv-x="1130" d="M94 446q0 118 38.5 214.5t105 158.5t154 95.5t186.5 33.5q148 0 256 -92q14 -14 24 -14q12 0 12 22q0 17 -4 37q-37 228 -153 373q-7 10 -19 10q-2 0 -14 -4l-195 -109q-13 -8 -24 -8q-16 0 -26.5 17.5t-10.5 33.5q0 14 18 23l183 102q12 7 12 19t-6 18 q-46 60 -119.5 113t-146.5 80q-33 12 -33 28q0 20 9.5 35t25.5 15q24 0 100 -33q127 -53 270 -180q9 -9 21 -9q4 0 14 5l141 81q15 9 25 9q14 0 24.5 -17t10.5 -33q0 -18 -21 -28l-125 -68q-14 -8 -14 -18q0 -5 4 -13q69 -102 113 -197t76 -254.5t32 -359.5 q0 -114 -29 -213.5t-86 -178t-151.5 -124t-216.5 -45.5q-141 0 -247.5 66t-160 172.5t-53.5 236.5zM242 479q0 -199 90.5 -317.5t236.5 -118.5q150 0 238 113.5t88 310.5q0 194 -90 303t-244 109q-147 0 -233 -106t-86 -294z" />
<glyph unicode="&#xf1;" horiz-adv-x="1218" d="M80 33q0 15 7 26t19 11q5 0 20 -1t21 -1q66 0 80 36q23 52 23 168v265q0 53 -1 83.5t-7 60t-14 44t-25.5 29t-39.5 22.5t-57 17q-16 4 -16 26q0 21 16 29q110 47 187 104q22 15 37 15q22 0 26 -25q1 -8 1.5 -29.5t1 -50.5t1.5 -47q0 -20 19 -20q5 0 24 14 q168 145 338 145q71 0 117.5 -20.5t79.5 -65.5q32 -44 45.5 -110.5t13.5 -194.5v-244q0 -192 17 -219q11 -19 26.5 -25.5t55.5 -6.5q6 0 21 1t18 1q15 0 23.5 -11t8.5 -28q0 -35 -30 -35q-4 0 -31 2.5t-75.5 5t-102.5 2.5q-50 0 -92.5 -2.5t-67 -5t-31.5 -2.5q-28 0 -28 37 q0 15 8 26t20 11q4 0 21.5 -1t21.5 -1q64 0 76 38q21 52 21 291q0 273 -35 348q-23 49 -72 74t-115 25q-67 0 -139 -38.5t-108 -82.5q-39 -48 -39 -186v-261q0 -148 22 -176q22 -32 86 -32q5 0 20.5 1t20.5 1q33 0 33 -39q0 -35 -33 -35q-6 0 -35.5 2.5t-79 5t-102.5 2.5 q-51 0 -95 -2.5t-69.5 -5t-32.5 -2.5q-24 0 -24 37zM336 1139q0 15 8 39q31 93 69.5 126t88.5 33q40 0 145 -55q78 -41 123 -41t68 80q6 27 30 27q31 0 31 -29q0 -7 -6 -31q-22 -87 -56.5 -125.5t-91.5 -38.5q-55 0 -135 45q-84 48 -123 48q-32 0 -51.5 -18.5t-38.5 -65.5 q-6 -21 -30 -21q-12 0 -21.5 7t-9.5 20z" />
<glyph unicode="&#xf2;" horiz-adv-x="1130" d="M94 446q0 118 38.5 215t104.5 159.5t153.5 96t187.5 33.5q213 0 336.5 -129t123.5 -336q0 -145 -56 -260.5t-167 -184.5t-260 -69q-142 0 -248.5 66t-159.5 172.5t-53 236.5zM242 479q0 -199 90.5 -317.5t236.5 -118.5q148 0 232 110t84 306q0 195 -89.5 308.5 t-234.5 113.5q-147 0 -233 -107t-86 -295zM358 1393q0 30 20.5 46.5t51.5 16.5q46 0 78 -59q51 -95 162 -262q14 -21 14 -35q0 -11 -10 -19t-23 -8q-16 0 -43 27q-156 153 -215 221q-35 43 -35 72z" />
<glyph unicode="&#xf3;" horiz-adv-x="1130" d="M94 446q0 118 38.5 215t104.5 159.5t153.5 96t187.5 33.5q213 0 336.5 -129t123.5 -336q0 -145 -56 -260.5t-167 -184.5t-260 -69q-142 0 -248.5 66t-159.5 172.5t-53 236.5zM242 479q0 -199 90.5 -317.5t236.5 -118.5q148 0 232 110t84 306q0 195 -89.5 308.5 t-234.5 113.5q-147 0 -233 -107t-86 -295zM459 1100q0 14 14 35q12 19 38.5 59.5t43 66t39 64t41.5 72.5q32 59 76 59q31 0 52 -15t21 -44q0 -34 -34 -76q-59 -68 -215 -221q-27 -27 -43 -27q-13 0 -23 8t-10 19z" />
<glyph unicode="&#xf4;" horiz-adv-x="1130" d="M94 446q0 118 38.5 215t104.5 159.5t153.5 96t187.5 33.5q213 0 336.5 -129t123.5 -336q0 -145 -56 -260.5t-167 -184.5t-260 -69q-142 0 -248.5 66t-159.5 172.5t-53 236.5zM242 479q0 -199 90.5 -317.5t236.5 -118.5q148 0 232 110t84 306q0 195 -89.5 308.5 t-234.5 113.5q-147 0 -233 -107t-86 -295zM328 1100q0 13 8 24q105 156 192 308q18 32 47 32t43 -26q40 -67 191 -310q10 -15 10 -24q0 -12 -11.5 -21.5t-25.5 -9.5q-15 0 -32 17q-61 66 -156 180q-12 14 -23 14q-8 0 -20 -16q-98 -118 -164 -181q-14 -14 -27 -14 q-11 0 -21.5 9t-10.5 18z" />
<glyph unicode="&#xf5;" horiz-adv-x="1130" d="M94 446q0 118 38.5 215t104.5 159.5t153.5 96t187.5 33.5q213 0 336.5 -129t123.5 -336q0 -145 -56 -260.5t-167 -184.5t-260 -69q-142 0 -248.5 66t-159.5 172.5t-53 236.5zM242 479q0 -199 90.5 -317.5t236.5 -118.5q148 0 232 110t84 306q0 195 -89.5 308.5 t-234.5 113.5q-147 0 -233 -107t-86 -295zM283 1139q0 15 8 39q31 93 69.5 126t88.5 33q40 0 145 -55q78 -41 123 -41q44 0 67 80q6 27 31 27q31 0 31 -29q0 -7 -6 -31q-22 -87 -56.5 -125.5t-91.5 -38.5q-55 0 -135 45q-84 48 -123 48q-32 0 -51.5 -18.5t-38.5 -65.5 q-6 -21 -31 -21q-12 0 -21 7t-9 20z" />
<glyph unicode="&#xf6;" horiz-adv-x="1130" d="M94 446q0 118 38.5 215t104.5 159.5t153.5 96t187.5 33.5q213 0 336.5 -129t123.5 -336q0 -145 -56 -260.5t-167 -184.5t-260 -69q-142 0 -248.5 66t-159.5 172.5t-53 236.5zM242 479q0 -199 90.5 -317.5t236.5 -118.5q148 0 232 110t84 306q0 195 -89.5 308.5 t-234.5 113.5q-147 0 -233 -107t-86 -295zM326 1241q0 39 26.5 64.5t63.5 25.5q36 0 61 -25t25 -65q0 -38 -25.5 -63t-62.5 -25q-36 0 -62 24.5t-26 63.5zM631 1241q0 39 27 64.5t65 25.5q37 0 61.5 -24.5t24.5 -65.5q0 -38 -25.5 -63t-62.5 -25q-35 0 -62.5 25t-27.5 63z " />
<glyph unicode="&#xf7;" horiz-adv-x="1314" d="M172 514v66q0 26 25 26h919q29 0 29 -26v-66q0 -27 -29 -27h-919q-25 0 -25 27zM565 246q0 37 26.5 64.5t65.5 27.5q40 0 66.5 -26t26.5 -66q0 -42 -27 -69t-68 -27q-38 0 -64 27t-26 69zM565 850q0 39 26.5 66.5t65.5 27.5q40 0 66.5 -26.5t26.5 -67.5q0 -40 -27 -66 t-68 -26q-37 0 -63.5 26.5t-26.5 65.5z" />
<glyph unicode="&#xf8;" horiz-adv-x="1130" d="M94 446q0 118 38.5 215t104.5 159.5t153.5 96t187.5 33.5q141 0 247 -61q9 -6 19 -6q13 0 22 12l76 92q14 17 31 17q13 0 27.5 -11.5t15.5 -25.5q0 -12 -15 -33l-73 -90q-6 -9 -6 -19q0 -12 8 -20q108 -127 108 -320q0 -145 -56 -260.5t-167 -184.5t-260 -69 q-146 0 -258 72q-12 4 -18 4q-13 0 -23 -10l-68 -84q-13 -16 -30 -16q-13 0 -27 12.5t-14 25.5q0 17 10 27l74 88q6 9 6 21q0 11 -6 20q-107 128 -107 315zM242 479q0 -139 43 -237q6 -15 16 -15q11 0 21 13l438 528q6 9 6 18q0 13 -8 21q-83 74 -197 74q-147 0 -233 -107 t-86 -295zM356 145q0 -11 9 -20q85 -82 204 -82q148 0 232 110t84 306q0 133 -45 231q-6 15 -19 15q-8 0 -18 -13l-441 -528q-6 -9 -6 -19z" />
<glyph unicode="&#xf9;" horiz-adv-x="1210" d="M63 866q0 31 25 35q139 20 215 49q29 13 41 13q10 0 19.5 -9t9.5 -22q0 -3 -6.5 -54.5t-13.5 -142t-7 -188.5q0 -156 6.5 -232t26.5 -122q46 -109 203 -109q76 0 141 28t98 66t33 187v229v4v62t-2 48t-5 40.5t-10 29.5t-16 24t-24 14.5t-33.5 12t-44.5 5.5q-10 0 -18.5 8 t-8.5 24q0 31 25 35q99 11 188 43q7 2 18.5 7t20.5 8.5t14 3.5q31 0 31 -29q0 -1 -3.5 -39t-7 -112t-3.5 -162v-332q0 -124 35 -162q20 -23 57 -23q9 0 35 6.5t35 6.5q26 0 26 -35q0 -27 -18 -33q-4 -1 -48.5 -13.5t-74.5 -23.5q-30 -10 -58 -23t-43 -20.5t-22 -7.5 q-23 0 -29 25q-1 4 -16 96q-3 18 -14 18q-9 0 -43 -28q-133 -101 -295 -101q-138 0 -217 97q-35 53 -48.5 127.5t-13.5 201.5q0 24 1 133.5t1 141.5q0 69 -14 104q-21 50 -123 58q-10 0 -17.5 9t-7.5 23zM375 1393q0 30 20 46.5t51 16.5q46 0 78 -59q51 -95 162 -262 q14 -21 14 -35q0 -11 -9.5 -19t-22.5 -8q-16 0 -43 27q-156 153 -215 221q-35 43 -35 72z" />
<glyph unicode="&#xfa;" horiz-adv-x="1210" d="M63 866q0 31 25 35q139 20 215 49q29 13 41 13q10 0 19.5 -9t9.5 -22q0 -3 -6.5 -54.5t-13.5 -142t-7 -188.5q0 -156 6.5 -232t26.5 -122q46 -109 203 -109q76 0 141 28t98 66t33 187v229v4v62t-2 48t-5 40.5t-10 29.5t-16 24t-24 14.5t-33.5 12t-44.5 5.5q-10 0 -18.5 8 t-8.5 24q0 31 25 35q99 11 188 43q7 2 18.5 7t20.5 8.5t14 3.5q31 0 31 -29q0 -1 -3.5 -39t-7 -112t-3.5 -162v-332q0 -124 35 -162q20 -23 57 -23q9 0 35 6.5t35 6.5q26 0 26 -35q0 -27 -18 -33q-4 -1 -48.5 -13.5t-74.5 -23.5q-30 -10 -58 -23t-43 -20.5t-22 -7.5 q-23 0 -29 25q-1 4 -16 96q-3 18 -14 18q-9 0 -43 -28q-133 -101 -295 -101q-138 0 -217 97q-35 53 -48.5 127.5t-13.5 201.5q0 24 1 133.5t1 141.5q0 69 -14 104q-21 50 -123 58q-10 0 -17.5 9t-7.5 23zM506 1100q0 14 14 35q12 19 38.5 59.5t43 66t39 64t41.5 72.5 q32 59 76 59q31 0 52 -15t21 -44q0 -34 -34 -76q-59 -68 -215 -221q-27 -27 -43 -27q-13 0 -23 8t-10 19z" />
<glyph unicode="&#xfb;" horiz-adv-x="1210" d="M63 866q0 31 25 35q139 20 215 49q29 13 41 13q10 0 19.5 -9t9.5 -22q0 -3 -6.5 -54.5t-13.5 -142t-7 -188.5q0 -156 6.5 -232t26.5 -122q46 -109 203 -109q76 0 141 28t98 66t33 187v229v4v62t-2 48t-5 40.5t-10 29.5t-16 24t-24 14.5t-33.5 12t-44.5 5.5q-10 0 -18.5 8 t-8.5 24q0 31 25 35q99 11 188 43q7 2 18.5 7t20.5 8.5t14 3.5q31 0 31 -29q0 -1 -3.5 -39t-7 -112t-3.5 -162v-332q0 -124 35 -162q20 -23 57 -23q9 0 35 6.5t35 6.5q26 0 26 -35q0 -27 -18 -33q-4 -1 -48.5 -13.5t-74.5 -23.5q-30 -10 -58 -23t-43 -20.5t-22 -7.5 q-23 0 -29 25q-1 4 -16 96q-3 18 -14 18q-9 0 -43 -28q-133 -101 -295 -101q-138 0 -217 97q-35 53 -48.5 127.5t-13.5 201.5q0 24 1 133.5t1 141.5q0 69 -14 104q-21 50 -123 58q-10 0 -17.5 9t-7.5 23zM375 1100q0 13 8 24q105 156 192 308q18 32 48 32q29 0 43 -26 q85 -141 190 -310q10 -15 10 -24q0 -12 -11.5 -21.5t-25.5 -9.5q-15 0 -32 17q-61 66 -156 180q-12 14 -23 14q-8 0 -20 -16q-98 -118 -164 -181q-14 -14 -26 -14q-11 0 -22 9t-11 18z" />
<glyph unicode="&#xfc;" horiz-adv-x="1210" d="M63 866q0 31 25 35q139 20 215 49q29 13 41 13q10 0 19.5 -9t9.5 -22q0 -3 -6.5 -54.5t-13.5 -142t-7 -188.5q0 -156 6.5 -232t26.5 -122q46 -109 203 -109q76 0 141 28t98 66t33 187v229v4v62t-2 48t-5 40.5t-10 29.5t-16 24t-24 14.5t-33.5 12t-44.5 5.5q-10 0 -18.5 8 t-8.5 24q0 31 25 35q99 11 188 43q7 2 18.5 7t20.5 8.5t14 3.5q31 0 31 -29q0 -1 -3.5 -39t-7 -112t-3.5 -162v-332q0 -124 35 -162q20 -23 57 -23q9 0 35 6.5t35 6.5q26 0 26 -35q0 -27 -18 -33q-4 -1 -48.5 -13.5t-74.5 -23.5q-30 -10 -58 -23t-43 -20.5t-22 -7.5 q-23 0 -29 25q-1 4 -16 96q-3 18 -14 18q-9 0 -43 -28q-133 -101 -295 -101q-138 0 -217 97q-35 53 -48.5 127.5t-13.5 201.5q0 24 1 133.5t1 141.5q0 69 -14 104q-21 50 -123 58q-10 0 -17.5 9t-7.5 23zM373 1241q0 39 26.5 64.5t63.5 25.5q36 0 61 -25t25 -65 q0 -38 -25.5 -63t-62.5 -25q-36 0 -62 24.5t-26 63.5zM678 1241q0 39 27 64.5t65 25.5q37 0 61.5 -24.5t24.5 -65.5q0 -38 -25.5 -63t-62.5 -25q-35 0 -62.5 25t-27.5 63z" />
<glyph unicode="&#xfd;" horiz-adv-x="1101" d="M16 889q0 37 31 37q5 0 32.5 -3t75 -5.5t99.5 -2.5q51 0 94.5 2.5t69 5.5t31.5 3q30 0 30 -35q0 -37 -30 -37q-2 0 -21.5 1t-26.5 1q-46 0 -64 -12.5t-18 -44.5q0 -24 50 -146q82 -199 184 -417q19 -39 29 -39q16 0 26 26q4 11 172 432q43 115 43 152q0 27 -18 38t-68 11 q-4 0 -22 -1t-21 -1q-26 0 -26 39q0 33 28 33q5 0 28.5 -3t65.5 -5.5t93 -2.5t88.5 2.5t56.5 5.5t25 3q32 0 32 -37q0 -35 -22 -35q-3 0 -19.5 1t-19.5 1q-36 0 -63 -31q-28 -28 -58 -104q-149 -373 -280 -686q-188 -442 -267 -543q-86 -104 -194 -104q-109 0 -109 77 q0 30 19 49t49 19q18 0 35.5 -7t33.5 -7q38 0 65 16t56 53q51 65 160 312q37 86 37 102q0 22 -14 57q-51 117 -301 662q-42 85 -60 106q-23 29 -61 29q-4 0 -15.5 -1t-15.5 -1q-25 0 -25 35zM481 1100q0 12 15 35q9 15 37.5 59t43.5 67.5t38 62.5t42 73q32 59 76 59 q32 0 53 -15t21 -44q0 -33 -35 -76q-59 -68 -215 -221q-27 -27 -43 -27q-13 0 -23 8t-10 19z" />
<glyph unicode="&#xfe;" horiz-adv-x="1193" d="M66 -555q0 37 26 37q4 0 19 -1t22 -1q58 0 82 39q21 37 21 170v1403q0 264 -19 311q-11 26 -40 46t-68 24q-23 5 -23 28t20 31q116 46 191 96q29 19 39 19q13 0 18.5 -7t5.5 -24q0 -8 -1.5 -94t-3 -267.5t-1.5 -423.5q0 -30 15 -30q8 0 18 10q66 63 154.5 102t171.5 39 q170 0 277.5 -123.5t107.5 -314.5q0 -152 -59 -271t-175.5 -189t-273.5 -70q-97 0 -180 26q-15 6 -33 6q-21 0 -21 -26v-299q0 -126 19 -164q20 -47 119 -47q6 0 27 1t24 1q33 0 33 -39q0 -35 -37 -35q-6 0 -44 2.5t-95.5 5t-110.5 2.5q-45 0 -89.5 -2.5t-73 -5t-34.5 -2.5 q-28 0 -28 37zM354 340q0 -140 33 -188q25 -35 91.5 -59.5t137.5 -24.5q66 0 127.5 22.5t112 66t81 116t30.5 163.5q0 188 -85 298t-239 110q-88 0 -170 -50t-100 -106q-19 -63 -19 -127v-221z" />
<glyph unicode="&#xff;" horiz-adv-x="1101" d="M16 889q0 37 31 37q5 0 32.5 -3t75 -5.5t99.5 -2.5q51 0 94.5 2.5t69 5.5t31.5 3q30 0 30 -35q0 -37 -30 -37q-2 0 -21.5 1t-26.5 1q-46 0 -64 -12.5t-18 -44.5q0 -24 50 -146q82 -199 184 -417q19 -39 29 -39q16 0 26 26q4 11 172 432q43 115 43 152q0 27 -18 38t-68 11 q-4 0 -22 -1t-21 -1q-26 0 -26 39q0 33 28 33q5 0 28.5 -3t65.5 -5.5t93 -2.5t88.5 2.5t56.5 5.5t25 3q32 0 32 -37q0 -35 -22 -35q-3 0 -19.5 1t-19.5 1q-36 0 -63 -31q-28 -28 -58 -104q-149 -373 -280 -686q-188 -442 -267 -543q-86 -104 -194 -104q-109 0 -109 77 q0 30 19 49t49 19q18 0 35.5 -7t33.5 -7q38 0 65 16t56 53q51 65 160 312q37 86 37 102q0 22 -14 57q-51 117 -301 662q-42 85 -60 106q-23 29 -61 29q-4 0 -15.5 -1t-15.5 -1q-25 0 -25 35zM317 1241q0 39 26.5 64.5t64.5 25.5q36 0 61 -25t25 -65q0 -38 -25.5 -63 t-62.5 -25q-36 0 -62.5 24.5t-26.5 63.5zM623 1241q0 39 27 64.5t65 25.5q37 0 61.5 -24.5t24.5 -65.5q0 -38 -25.5 -63t-62.5 -25q-35 0 -62.5 25t-27.5 63z" />
<glyph unicode="&#x152;" horiz-adv-x="2021" d="M102 655q0 208 84 369t244 252.5t373 91.5q91 0 214 -10t234 -10q169 0 337 4t218 4q15 0 25 -10.5t10 -30.5q1 -34 2.5 -93t2.5 -98.5t1 -44.5q0 -30 -35 -30q-21 0 -28.5 6.5t-9.5 21.5q-7 109 -50 152q-25 27 -73 34t-146 7q-76 0 -229 -6q-37 0 -37 -54v-417 q0 -31 18.5 -39.5t63.5 -8.5q146 0 201 19q29 10 47 41.5t24 101.5q3 31 39 31q15 0 25 -8t10 -23l-6 -79q-6 -79 -6 -132q0 -40 3 -106.5t3 -81.5q0 -12 -9 -20.5t-26 -8.5q-33 0 -37 29q-9 111 -59 141q-34 19 -221 19q-41 0 -55.5 -10.5t-14.5 -39.5v-370q0 -82 16 -105 q24 -35 91.5 -46t201.5 -11q174 0 221 35q36 25 60 67.5t49 108.5q4 9 7 13.5t10.5 9t19.5 4.5q39 0 39 -27q0 -18 -21.5 -109t-36.5 -139q-18 -53 -63 -53q-90 0 -261 4t-310 4q-55 0 -92 -1t-54 -2t-24 -1q-27 0 -153.5 -7t-166.5 -7q-306 0 -488 182t-182 487zM258 672 q0 -138 40 -252.5t109.5 -190.5t164.5 -117.5t206 -41.5q133 0 211.5 19t102.5 77q10 23 10 102v824q0 70 -15 107.5t-59 53.5q-77 29 -231 29q-256 0 -397.5 -161t-141.5 -449z" />
<glyph unicode="&#x153;" horiz-adv-x="1761" d="M94 440q0 119 37.5 216t102 161t150.5 98.5t185 34.5q126 0 218 -50t143 -140q10 -21 18 -21q12 0 21 17q55 92 146.5 143t205.5 51q92 0 163 -27.5t113 -75t63 -106.5t21 -127q0 -59 -65 -65q-109 -10 -574 -10q-17 0 -24.5 -16t-7.5 -54q0 -183 96 -291t244 -108 q95 0 159 37.5t90 93.5q4 10 10.5 37.5t16 41t29.5 13.5q39 0 39 -43q0 -30 -33 -98q-25 -45 -65 -82.5t-117 -68t-174 -30.5q-114 0 -201.5 46.5t-140.5 127.5q-19 29 -25 29q-11 0 -27 -27q-119 -176 -364 -176q-211 0 -332 134t-121 335zM242 473q0 -201 86.5 -315.5 t232.5 -114.5q149 0 232.5 107t83.5 303q0 195 -89 311.5t-235 116.5q-145 0 -228 -109.5t-83 -298.5zM1032 629q0 -21 27 -21q340 0 416 10q55 9 55 58q0 97 -58.5 150t-173.5 53q-77 0 -143 -45t-102 -127q-19 -43 -21 -78z" />
<glyph unicode="&#x178;" horiz-adv-x="1351" d="M31 1319q0 39 32 39q7 0 38.5 -3t83.5 -6t110 -3q42 0 138.5 6t103.5 6q30 0 30 -39q0 -37 -32 -37q-9 0 -36.5 1t-37.5 1q-40 0 -56 -10t-16 -33q0 -7 1 -14.5t4.5 -16.5t6.5 -17t10 -21t12 -22.5t15.5 -27.5t18.5 -30.5t22.5 -36.5t24.5 -41l153 -252q20 -34 30 -44.5 t18 -10.5q17 0 49 51l157 258q101 162 101 223q0 27 -23.5 36t-70.5 9q-20 0 -38 -1t-22 -1q-15 0 -23 7.5t-8 29.5q0 39 31 39l74 -6q73 -6 153 -6q79 0 140.5 6t64.5 6q33 0 33 -39q0 -37 -27 -37q-4 0 -16 1t-18 1q-46 0 -86 -37q-34 -32 -158 -229l-244 -393 q-18 -24 -18 -82v-250q0 -154 28 -189q27 -34 101 -34q4 0 18 1t17 1q30 0 30 -39q0 -37 -30 -37q-5 0 -37 3t-84 6t-107 3q-56 0 -113 -3t-93 -6t-40 -3q-26 0 -26 41q0 15 7 25t19 10q2 0 16 -1t19 -1q93 0 113 41q20 38 20 184v225q0 35 -5 53t-21 45l-240 388 q-90 148 -166 243q-25 33 -90 33q-5 0 -17.5 -1t-17.5 -1q-26 0 -26 39zM444 1532q0 39 25.5 64.5t62.5 25.5t61.5 -25.5t24.5 -64.5q0 -40 -25 -65t-63 -25q-35 0 -60.5 25t-25.5 65zM768 1532q0 39 26.5 64.5t63.5 25.5t61.5 -25.5t24.5 -64.5q0 -40 -25 -65t-63 -25 q-35 0 -61.5 25t-26.5 65z" />
<glyph unicode="&#x2c6;" horiz-adv-x="593" d="M51 1100q0 13 8 24q111 166 193 308q18 32 47 32t43 -26q85 -141 190 -310q11 -16 11 -24q0 -12 -11.5 -21.5t-25.5 -9.5q-16 0 -33 17q-61 66 -156 180q-12 14 -22 14q-9 0 -21 -16q-102 -123 -163 -181q-14 -14 -27 -14q-11 0 -22 9t-11 18z" />
<glyph unicode="&#x2dc;" horiz-adv-x="593" d="M16 1139q0 12 9 39q31 93 69 126t88 33q41 0 146 -55q78 -41 123 -41q44 0 67 80q6 27 31 27q31 0 31 -29q0 -3 -7 -31q-22 -87 -56 -125.5t-91 -38.5q-55 0 -135 45q-84 48 -123 48q-32 0 -51.5 -18.5t-38.5 -65.5q-6 -21 -31 -21q-12 0 -21.5 7t-9.5 20z" />
<glyph unicode="&#x2000;" horiz-adv-x="894" />
<glyph unicode="&#x2001;" horiz-adv-x="1788" />
<glyph unicode="&#x2002;" horiz-adv-x="894" />
<glyph unicode="&#x2003;" horiz-adv-x="1788" />
<glyph unicode="&#x2004;" horiz-adv-x="596" />
<glyph unicode="&#x2005;" horiz-adv-x="447" />
<glyph unicode="&#x2006;" horiz-adv-x="298" />
<glyph unicode="&#x2007;" horiz-adv-x="298" />
<glyph unicode="&#x2008;" horiz-adv-x="223" />
<glyph unicode="&#x2009;" horiz-adv-x="357" />
<glyph unicode="&#x200a;" horiz-adv-x="99" />
<glyph unicode="&#x2010;" horiz-adv-x="567" d="M59 496q0 38 7 50.5t28 12.5h381q22 0 27.5 -11.5t5.5 -49.5q0 -41 -6 -53.5t-31 -12.5h-377q-24 0 -29.5 12t-5.5 52z" />
<glyph unicode="&#x2011;" horiz-adv-x="567" d="M59 496q0 38 7 50.5t28 12.5h381q22 0 27.5 -11.5t5.5 -49.5q0 -41 -6 -53.5t-31 -12.5h-377q-24 0 -29.5 12t-5.5 52z" />
<glyph unicode="&#x2012;" horiz-adv-x="567" d="M59 496q0 38 7 50.5t28 12.5h381q22 0 27.5 -11.5t5.5 -49.5q0 -41 -6 -53.5t-31 -12.5h-377q-24 0 -29.5 12t-5.5 52z" />
<glyph unicode="&#x2013;" horiz-adv-x="886" d="M59 496q0 37 7 48t28 11h701q22 0 27 -10t5 -47q0 -41 -5.5 -51.5t-30.5 -10.5h-697q-24 0 -29.5 10t-5.5 50z" />
<glyph unicode="&#x2014;" horiz-adv-x="1304" d="M59 496q0 37 7 48t28 11h1118q22 0 27.5 -10t5.5 -47q0 -40 -6 -51t-31 -11h-1114q-24 0 -29.5 10t-5.5 50z" />
<glyph unicode="&#x2018;" horiz-adv-x="425" d="M96 1067q0 91 41 174t125 145q51 35 70 35q12 0 21 -8.5t9 -21.5q0 -20 -24 -35q-60 -36 -92.5 -89.5t-32.5 -113.5q0 -54 53 -80q58 -30 58 -86q0 -37 -27 -64.5t-76 -27.5q-59 0 -92 45.5t-33 126.5z" />
<glyph unicode="&#x2019;" horiz-adv-x="425" d="M63 918q0 19 27 34q59 36 91 90t32 113q0 56 -53 82q-58 30 -58 84q0 38 26.5 65t76.5 27q58 0 91.5 -45t33.5 -125q0 -197 -166 -321q-51 -35 -70 -35q-11 0 -21 9t-10 22z" />
<glyph unicode="&#x201a;" horiz-adv-x="425" d="M63 -291q0 17 27 35q123 78 123 205q0 52 -53 78q-58 30 -58 86q0 38 26.5 65t76.5 27q58 0 91.5 -45t33.5 -125q0 -195 -166 -322q-51 -35 -70 -35q-11 0 -21 9t-10 22z" />
<glyph unicode="&#x201c;" horiz-adv-x="763" d="M96 1067q0 91 41 174t125 145q51 35 70 35q12 0 21 -8.5t9 -21.5q0 -20 -24 -35q-60 -36 -92.5 -89.5t-32.5 -113.5q0 -54 53 -80q58 -30 58 -86q0 -37 -27 -64.5t-76 -27.5q-59 0 -92 45.5t-33 126.5zM434 1067q0 91 42 173.5t126 145.5q47 35 68 35q12 0 21 -8.5 t9 -21.5q0 -20 -24 -35q-60 -36 -92.5 -89.5t-32.5 -113.5q0 -54 53 -80q58 -30 58 -86q0 -37 -26.5 -64.5t-74.5 -27.5q-59 0 -93 45.5t-34 126.5z" />
<glyph unicode="&#x201d;" horiz-adv-x="763" d="M63 918q0 19 27 34q59 36 91 90t32 113q0 56 -53 82q-58 30 -58 84q0 38 26.5 65t76.5 27q58 0 91.5 -45t33.5 -125q0 -197 -166 -321q-51 -35 -70 -35q-11 0 -21 9t-10 22zM403 918q0 20 25 34q60 36 91.5 89.5t31.5 113.5q0 57 -51 82q-58 30 -58 84q0 38 26 65t75 27 q59 0 93 -45.5t34 -124.5q0 -195 -168 -321q-47 -35 -70 -35q-11 0 -20 9t-9 22z" />
<glyph unicode="&#x201e;" horiz-adv-x="763" d="M63 -291q0 17 27 35q123 78 123 205q0 52 -53 78q-58 30 -58 86q0 38 26.5 65t76.5 27q58 0 91.5 -45t33.5 -125q0 -195 -166 -322q-51 -35 -70 -35q-11 0 -21 9t-10 22zM403 -291q0 21 25 35q61 33 92 87.5t31 117.5q0 53 -51 78q-58 30 -58 86q0 38 26 65t75 27 q59 0 93 -45.5t34 -124.5q0 -193 -168 -322q-47 -35 -70 -35q-11 0 -20 9t-9 22z" />
<glyph unicode="&#x2022;" horiz-adv-x="720" d="M119 551q0 111 68 179.5t171 68.5q107 0 175.5 -68.5t68.5 -179.5q0 -112 -68.5 -181t-175.5 -69q-105 0 -172 68.5t-67 181.5z" />
<glyph unicode="&#x2026;" horiz-adv-x="1468" d="M139 92q0 49 31.5 79t79.5 30q46 0 74 -29t28 -78q0 -48 -29.5 -80t-74.5 -32q-50 0 -79.5 28.5t-29.5 81.5zM629 92q0 49 30 79t78 30t76.5 -29t28.5 -78q0 -48 -30 -80t-77 -32q-50 0 -78 28.5t-28 81.5zM1116 92q0 49 31.5 79t79.5 30q46 0 74 -29t28 -78 q0 -48 -29.5 -80t-74.5 -32q-50 0 -79.5 28.5t-29.5 81.5z" />
<glyph unicode="&#x202f;" horiz-adv-x="357" />
<glyph unicode="&#x2039;" horiz-adv-x="552" d="M57 506q0 21 31 43q39 29 114 84.5t124.5 94t103.5 83.5q29 27 41 27q10 0 21.5 -10t11.5 -19q0 -12 -19 -33q-50 -53 -247 -254q-11 -11 -11 -16t9 -14q20 -20 78 -76.5t95.5 -95t71.5 -78.5q25 -31 25 -43q0 -9 -10.5 -19t-20.5 -10q-7 0 -14 5t-37 30 q-230 183 -340 264q-27 19 -27 37z" />
<glyph unicode="&#x203a;" horiz-adv-x="555" d="M51 199q0 15 19 34q42 44 127 129t122 123q11 11 11 17q0 9 -11 20q-154 143 -245 246q-23 29 -23 43q0 8 10 17.5t21 9.5q14 0 53 -33q145 -123 338 -266q27 -19 27 -37q0 -14 -5.5 -21.5t-25.5 -21.5q-145 -103 -342 -262q-7 -5 -13.5 -10.5t-10 -8t-7 -4.5t-6 -3 t-6.5 -1q-9 0 -21 10t-12 19z" />
<glyph unicode="&#x205f;" horiz-adv-x="447" />
<glyph unicode="&#x20ac;" horiz-adv-x="1400" d="M168 524q0 26 9.5 34.5t29.5 8.5h98q11 0 18 9t7 20q0 23 1 50t2 45.5t1 21.5q0 20 -25 20h-102q-39 0 -39 37q0 27 9.5 36t29.5 9h121q22 0 26 25q49 211 187.5 335.5t355.5 124.5q107 0 185 -23t116.5 -60t55 -74.5t16.5 -77.5q0 -84 -82 -84q-80 0 -80 86 q0 68 -45 113q-53 49 -170 49q-141 0 -244.5 -98.5t-138.5 -247.5q0 -3 -4 -22.5t-4 -26.5q0 -19 22 -19h490q18 0 27.5 -9t9.5 -34q0 -14 -2.5 -22.5t-9 -12t-11 -4t-14.5 -0.5h-506q-22 0 -25 -24q-2 -27 -2 -115q0 -10 6.5 -18.5t18.5 -8.5h508q18 0 27.5 -8t9.5 -33 q0 -18 -5.5 -27.5t-12.5 -11.5t-19 -2h-496q-16 0 -20 -7.5t-4 -24.5q0 -32 8 -60q73 -323 381 -323q117 0 197.5 45.5t113.5 132.5q7 22 12 84q1 16 3.5 25t12.5 17.5t27 8.5q43 0 43 -49t-20 -105q-16 -47 -44.5 -88t-75.5 -81t-123 -63.5t-171 -23.5q-120 0 -215 39 t-156 107.5t-96.5 151t-48.5 178.5q-5 36 -29 36h-106q-39 0 -39 39z" />
<glyph unicode="&#x2122;" horiz-adv-x="1785" d="M76 1192q0 2 5 59.5t5 81.5q0 5 1.5 9.5t4 8t6.5 5.5t8 2q2 0 20.5 -1.5t84.5 -3t184 -1.5q92 0 160 1t100 2t37 1q8 0 14.5 -6t6.5 -17q0 -15 1 -49t2 -61.5t1 -28.5q0 -10 -8.5 -16.5t-20.5 -6.5q-27 0 -31 21q-3 25 -4.5 37t-6.5 26t-11.5 20t-18.5 12t-28 7.5 t-41 1.5q-84 0 -94 -6q-13 -5 -13 -39v-389q0 -81 19 -100q14 -17 55 -17q2 0 18 1.5t19 1.5q24 0 24 -29q0 -27 -20 -27q-1 0 -61.5 4t-102.5 4q-30 0 -65.5 -2t-59 -4t-24.5 -2q-27 0 -27 27q0 29 25 29q3 0 19.5 -1.5t19.5 -1.5q39 0 51 25q14 33 14 92v387q0 33 -6 37 q-6 5 -19.5 7t-27.5 2.5t-47 0.5q-58 0 -82 -22q-27 -24 -31 -80q-3 -20 -25 -20q-8 0 -15 2.5t-11 6.5t-4 9zM774 719q0 29 27 29q1 0 11.5 -1.5t12.5 -1.5q35 0 49 21q16 19 21 86q4 44 8 106.5t7.5 116t5.5 94.5t2 50q0 28 -4.5 45.5t-17.5 28t-36 10.5q-4 0 -19 -1.5 t-18 -1.5q-22 0 -22 27q0 31 26 31q2 0 46.5 -3t62.5 -3q20 0 65 2t46 2q15 0 22 -27q9 -31 25.5 -77t32.5 -90t35.5 -93.5t33 -83.5t26 -66t13.5 -34q4 -8 8 -8q5 0 12 14q4 9 31 67.5t40 88t36 81.5t40.5 97t31.5 86q9 27 15.5 36t16.5 9q2 0 24 -1t48.5 -2t40.5 -1 q20 0 59.5 2t42.5 2q10 0 15.5 -8t5.5 -19t-5.5 -20t-15.5 -9q-2 0 -10.5 1t-17 1.5t-11.5 0.5q-13 0 -21.5 -2t-15 -3.5t-10 -8.5t-6 -11.5t-3.5 -18t-1 -21.5v-28q0 -51 10 -356q2 -58 17 -88q11 -21 49 -21q2 0 17.5 1.5t17.5 1.5q20 0 20 -27q0 -17 -5.5 -23t-16.5 -6 q-2 0 -26.5 1.5t-60 3t-63.5 1.5t-61.5 -1.5t-56.5 -3t-25 -1.5q-25 0 -25 27q0 29 23 29q2 0 16.5 -1.5t16.5 -1.5q37 0 51 21t14 88q0 104 -8 377q0 10 -6 10q-8 0 -13 -10q-85 -200 -180 -412q-28 -61 -41 -98q-6 -16 -13 -21.5t-19 -5.5q-20 0 -29 29q-10 35 -31 90 q-93 246 -156 408q-5 14 -12 14q-1 0 -3.5 -1.5t-4.5 -5.5t-2 -9q-14 -320 -14 -365q0 -75 12 -90q15 -19 47 -19q1 0 13.5 1.5t19.5 1.5q20 0 20 -29q0 -27 -22 -27q-2 0 -22.5 1t-51.5 2t-59 1q-22 0 -51 -1t-50 -2t-24 -1q-23 0 -23 27z" />
<glyph unicode="&#xe000;" horiz-adv-x="921" d="M0 0v922h922v-922h-922z" />
</font>
</defs>
</svg>
